%TF.GenerationSoftware,KiCad,Pcbnew,(5.1.10)-1*%
%TF.CreationDate,2021-09-20T20:27:13+02:00*%
%TF.ProjectId,STM32F405RG +  Gyro + I2C,53544d33-3246-4343-9035-5247202b2020,rev?*%
%TF.SameCoordinates,Original*%
%TF.FileFunction,Legend,Top*%
%TF.FilePolarity,Positive*%
%FSLAX46Y46*%
G04 Gerber Fmt 4.6, Leading zero omitted, Abs format (unit mm)*
G04 Created by KiCad (PCBNEW (5.1.10)-1) date 2021-09-20 20:27:13*
%MOMM*%
%LPD*%
G01*
G04 APERTURE LIST*
%ADD10C,0.120000*%
%ADD11C,0.150000*%
%ADD12C,0.250000*%
%ADD13C,0.125000*%
%ADD14C,0.100000*%
G04 APERTURE END LIST*
D10*
X131755902Y-97700000D02*
G75*
G03*
X131755902Y-97700000I-55902J0D01*
G01*
X171645711Y-97950000D02*
G75*
G03*
X171645711Y-97950000I-70711J0D01*
G01*
D11*
X140876857Y-101869142D02*
X140876857Y-102512000D01*
X140834000Y-102640571D01*
X140748285Y-102726285D01*
X140619714Y-102769142D01*
X140534000Y-102769142D01*
X141734000Y-102769142D02*
X141305428Y-102769142D01*
X141305428Y-101869142D01*
X142548285Y-102683428D02*
X142505428Y-102726285D01*
X142376857Y-102769142D01*
X142291142Y-102769142D01*
X142162571Y-102726285D01*
X142076857Y-102640571D01*
X142034000Y-102554857D01*
X141991142Y-102383428D01*
X141991142Y-102254857D01*
X142034000Y-102083428D01*
X142076857Y-101997714D01*
X142162571Y-101912000D01*
X142291142Y-101869142D01*
X142376857Y-101869142D01*
X142505428Y-101912000D01*
X142548285Y-101954857D01*
X143191142Y-101869142D02*
X143191142Y-102512000D01*
X143148285Y-102640571D01*
X143062571Y-102726285D01*
X142934000Y-102769142D01*
X142848285Y-102769142D01*
X144048285Y-102769142D02*
X143619714Y-102769142D01*
X143619714Y-101869142D01*
X144862571Y-102683428D02*
X144819714Y-102726285D01*
X144691142Y-102769142D01*
X144605428Y-102769142D01*
X144476857Y-102726285D01*
X144391142Y-102640571D01*
X144348285Y-102554857D01*
X144305428Y-102383428D01*
X144305428Y-102254857D01*
X144348285Y-102083428D01*
X144391142Y-101997714D01*
X144476857Y-101912000D01*
X144605428Y-101869142D01*
X144691142Y-101869142D01*
X144819714Y-101912000D01*
X144862571Y-101954857D01*
X145505428Y-101869142D02*
X145505428Y-102512000D01*
X145462571Y-102640571D01*
X145376857Y-102726285D01*
X145248285Y-102769142D01*
X145162571Y-102769142D01*
X146362571Y-102769142D02*
X145934000Y-102769142D01*
X145934000Y-101869142D01*
X147176857Y-102683428D02*
X147134000Y-102726285D01*
X147005428Y-102769142D01*
X146919714Y-102769142D01*
X146791142Y-102726285D01*
X146705428Y-102640571D01*
X146662571Y-102554857D01*
X146619714Y-102383428D01*
X146619714Y-102254857D01*
X146662571Y-102083428D01*
X146705428Y-101997714D01*
X146791142Y-101912000D01*
X146919714Y-101869142D01*
X147005428Y-101869142D01*
X147134000Y-101912000D01*
X147176857Y-101954857D01*
X147819714Y-101869142D02*
X147819714Y-102512000D01*
X147776857Y-102640571D01*
X147691142Y-102726285D01*
X147562571Y-102769142D01*
X147476857Y-102769142D01*
X148676857Y-102769142D02*
X148248285Y-102769142D01*
X148248285Y-101869142D01*
X149491142Y-102683428D02*
X149448285Y-102726285D01*
X149319714Y-102769142D01*
X149234000Y-102769142D01*
X149105428Y-102726285D01*
X149019714Y-102640571D01*
X148976857Y-102554857D01*
X148934000Y-102383428D01*
X148934000Y-102254857D01*
X148976857Y-102083428D01*
X149019714Y-101997714D01*
X149105428Y-101912000D01*
X149234000Y-101869142D01*
X149319714Y-101869142D01*
X149448285Y-101912000D01*
X149491142Y-101954857D01*
D12*
X178458761Y-123171967D02*
X178506380Y-123035062D01*
X178506380Y-122796967D01*
X178458761Y-122695776D01*
X178411142Y-122642205D01*
X178315904Y-122582681D01*
X178220666Y-122570776D01*
X178125428Y-122606491D01*
X178077809Y-122648157D01*
X178030190Y-122737443D01*
X177982571Y-122921967D01*
X177934952Y-123011252D01*
X177887333Y-123052919D01*
X177792095Y-123088633D01*
X177696857Y-123076729D01*
X177601619Y-123017205D01*
X177554000Y-122963633D01*
X177506380Y-122862443D01*
X177506380Y-122624348D01*
X177554000Y-122487443D01*
X177506380Y-122195776D02*
X177506380Y-121624348D01*
X178506380Y-122035062D02*
X177506380Y-121910062D01*
X178506380Y-121416014D02*
X177506380Y-121291014D01*
X178220666Y-121046967D01*
X177506380Y-120624348D01*
X178506380Y-120749348D01*
X177506380Y-120243395D02*
X177506380Y-119624348D01*
X177887333Y-120005300D01*
X177887333Y-119862443D01*
X177934952Y-119773157D01*
X177982571Y-119731491D01*
X178077809Y-119695776D01*
X178315904Y-119725538D01*
X178411142Y-119785062D01*
X178458761Y-119838633D01*
X178506380Y-119939824D01*
X178506380Y-120225538D01*
X178458761Y-120314824D01*
X178411142Y-120356491D01*
X177601619Y-119255300D02*
X177554000Y-119201729D01*
X177506380Y-119100538D01*
X177506380Y-118862443D01*
X177554000Y-118773157D01*
X177601619Y-118731491D01*
X177696857Y-118695776D01*
X177792095Y-118707681D01*
X177934952Y-118773157D01*
X178506380Y-119416014D01*
X178506380Y-118796967D01*
X177982571Y-117969586D02*
X177982571Y-118302919D01*
X178506380Y-118368395D02*
X177506380Y-118243395D01*
X177506380Y-117767205D01*
X177839714Y-116999348D02*
X178506380Y-117082681D01*
X177458761Y-117189824D02*
X178173047Y-117517205D01*
X178173047Y-116898157D01*
X178125428Y-115749348D02*
X178125428Y-114987443D01*
X178506380Y-115416014D02*
X177744476Y-115320776D01*
X177554000Y-113154110D02*
X177506380Y-113243395D01*
X177506380Y-113386252D01*
X177554000Y-113535062D01*
X177649238Y-113642205D01*
X177744476Y-113701729D01*
X177934952Y-113773157D01*
X178077809Y-113791014D01*
X178268285Y-113767205D01*
X178363523Y-113731491D01*
X178458761Y-113648157D01*
X178506380Y-113511252D01*
X178506380Y-113416014D01*
X178458761Y-113267205D01*
X178411142Y-113213633D01*
X178077809Y-113171967D01*
X178077809Y-113362443D01*
X178030190Y-112546967D02*
X178506380Y-112606491D01*
X177506380Y-112814824D02*
X178030190Y-112546967D01*
X177506380Y-112148157D01*
X178506380Y-111368395D02*
X178030190Y-111642205D01*
X178506380Y-111939824D02*
X177506380Y-111814824D01*
X177506380Y-111433872D01*
X177554000Y-111344586D01*
X177601619Y-111302919D01*
X177696857Y-111267205D01*
X177839714Y-111285062D01*
X177934952Y-111344586D01*
X177982571Y-111398157D01*
X178030190Y-111499348D01*
X178030190Y-111880300D01*
X177506380Y-110624348D02*
X177506380Y-110433872D01*
X177554000Y-110344586D01*
X177649238Y-110261252D01*
X177839714Y-110237443D01*
X178173047Y-110279110D01*
X178363523Y-110350538D01*
X178458761Y-110457681D01*
X178506380Y-110558872D01*
X178506380Y-110749348D01*
X178458761Y-110838633D01*
X178363523Y-110921967D01*
X178173047Y-110945776D01*
X177839714Y-110904110D01*
X177649238Y-110832681D01*
X177554000Y-110725538D01*
X177506380Y-110624348D01*
X178125428Y-109082681D02*
X178125428Y-108320776D01*
X178506380Y-108749348D02*
X177744476Y-108654110D01*
X178506380Y-107130300D02*
X177506380Y-107005300D01*
X177601619Y-106588633D02*
X177554000Y-106535062D01*
X177506380Y-106433872D01*
X177506380Y-106195776D01*
X177554000Y-106106491D01*
X177601619Y-106064824D01*
X177696857Y-106029110D01*
X177792095Y-106041014D01*
X177934952Y-106106491D01*
X178506380Y-106749348D01*
X178506380Y-106130300D01*
X178411142Y-105118395D02*
X178458761Y-105171967D01*
X178506380Y-105320776D01*
X178506380Y-105416014D01*
X178458761Y-105552919D01*
X178363523Y-105636252D01*
X178268285Y-105671967D01*
X178077809Y-105695776D01*
X177934952Y-105677919D01*
X177744476Y-105606491D01*
X177649238Y-105546967D01*
X177554000Y-105439824D01*
X177506380Y-105291014D01*
X177506380Y-105195776D01*
X177554000Y-105058872D01*
X177601619Y-105017205D01*
D11*
X171912857Y-125705714D02*
X172827142Y-125705714D01*
X158712857Y-125745714D02*
X159627142Y-125745714D01*
X159170000Y-126202857D02*
X159170000Y-125288571D01*
D10*
X148948310Y-82520000D02*
G75*
G03*
X148948310Y-82520000I-58310J0D01*
G01*
X139134721Y-87485000D02*
G75*
G03*
X139134721Y-87485000I-44721J0D01*
G01*
X138208102Y-98190000D02*
G75*
G03*
X138208102Y-98190000I-78102J0D01*
G01*
X149944536Y-126220000D02*
G75*
G03*
X149944536Y-126220000I-134536J0D01*
G01*
X170406569Y-113940000D02*
G75*
G03*
X170406569Y-113940000I-56569J0D01*
G01*
X160646569Y-108760000D02*
G75*
G03*
X160646569Y-108760000I-56569J0D01*
G01*
X167769443Y-108980000D02*
G75*
G03*
X167769443Y-108980000I-89443J0D01*
G01*
X162650000Y-80550000D02*
X162650000Y-80850000D01*
X163450000Y-80550000D02*
X162650000Y-80550000D01*
X163450000Y-80150000D02*
X163450000Y-80550000D01*
X163150000Y-80150000D02*
X163450000Y-80150000D01*
X162650000Y-80150000D02*
X163150000Y-80150000D01*
X162650000Y-79850000D02*
X162650000Y-80150000D01*
X162150000Y-80350000D02*
X162650000Y-79850000D01*
X162650000Y-80850000D02*
X162150000Y-80350000D01*
D13*
X145861904Y-113126190D02*
X145861904Y-112626190D01*
X146052380Y-112626190D01*
X146100000Y-112650000D01*
X146123809Y-112673809D01*
X146147619Y-112721428D01*
X146147619Y-112792857D01*
X146123809Y-112840476D01*
X146100000Y-112864285D01*
X146052380Y-112888095D01*
X145861904Y-112888095D01*
X146457142Y-112626190D02*
X146552380Y-112626190D01*
X146600000Y-112650000D01*
X146647619Y-112697619D01*
X146671428Y-112792857D01*
X146671428Y-112959523D01*
X146647619Y-113054761D01*
X146600000Y-113102380D01*
X146552380Y-113126190D01*
X146457142Y-113126190D01*
X146409523Y-113102380D01*
X146361904Y-113054761D01*
X146338095Y-112959523D01*
X146338095Y-112792857D01*
X146361904Y-112697619D01*
X146409523Y-112650000D01*
X146457142Y-112626190D01*
X146838095Y-112626190D02*
X146957142Y-113126190D01*
X147052380Y-112769047D01*
X147147619Y-113126190D01*
X147266666Y-112626190D01*
X147457142Y-112864285D02*
X147623809Y-112864285D01*
X147695238Y-113126190D02*
X147457142Y-113126190D01*
X147457142Y-112626190D01*
X147695238Y-112626190D01*
X148195238Y-113126190D02*
X148028571Y-112888095D01*
X147909523Y-113126190D02*
X147909523Y-112626190D01*
X148100000Y-112626190D01*
X148147619Y-112650000D01*
X148171428Y-112673809D01*
X148195238Y-112721428D01*
X148195238Y-112792857D01*
X148171428Y-112840476D01*
X148147619Y-112864285D01*
X148100000Y-112888095D01*
X147909523Y-112888095D01*
X149028571Y-113126190D02*
X148790476Y-113126190D01*
X148790476Y-112626190D01*
X149195238Y-112864285D02*
X149361904Y-112864285D01*
X149433333Y-113126190D02*
X149195238Y-113126190D01*
X149195238Y-112626190D01*
X149433333Y-112626190D01*
X149647619Y-113126190D02*
X149647619Y-112626190D01*
X149766666Y-112626190D01*
X149838095Y-112650000D01*
X149885714Y-112697619D01*
X149909523Y-112745238D01*
X149933333Y-112840476D01*
X149933333Y-112911904D01*
X149909523Y-113007142D01*
X149885714Y-113054761D01*
X149838095Y-113102380D01*
X149766666Y-113126190D01*
X149647619Y-113126190D01*
X150671428Y-113316666D02*
X150647619Y-113292857D01*
X150600000Y-113221428D01*
X150576190Y-113173809D01*
X150552380Y-113102380D01*
X150528571Y-112983333D01*
X150528571Y-112888095D01*
X150552380Y-112769047D01*
X150576190Y-112697619D01*
X150600000Y-112650000D01*
X150647619Y-112578571D01*
X150671428Y-112554761D01*
X150814285Y-112626190D02*
X151123809Y-112626190D01*
X150957142Y-112816666D01*
X151028571Y-112816666D01*
X151076190Y-112840476D01*
X151100000Y-112864285D01*
X151123809Y-112911904D01*
X151123809Y-113030952D01*
X151100000Y-113078571D01*
X151076190Y-113102380D01*
X151028571Y-113126190D01*
X150885714Y-113126190D01*
X150838095Y-113102380D01*
X150814285Y-113078571D01*
X151266666Y-112626190D02*
X151433333Y-113126190D01*
X151600000Y-112626190D01*
X151719047Y-112626190D02*
X152028571Y-112626190D01*
X151861904Y-112816666D01*
X151933333Y-112816666D01*
X151980952Y-112840476D01*
X152004761Y-112864285D01*
X152028571Y-112911904D01*
X152028571Y-113030952D01*
X152004761Y-113078571D01*
X151980952Y-113102380D01*
X151933333Y-113126190D01*
X151790476Y-113126190D01*
X151742857Y-113102380D01*
X151719047Y-113078571D01*
X152195238Y-113316666D02*
X152219047Y-113292857D01*
X152266666Y-113221428D01*
X152290476Y-113173809D01*
X152314285Y-113102380D01*
X152338095Y-112983333D01*
X152338095Y-112888095D01*
X152314285Y-112769047D01*
X152290476Y-112697619D01*
X152266666Y-112650000D01*
X152219047Y-112578571D01*
X152195238Y-112554761D01*
X147461904Y-88302380D02*
X147533333Y-88326190D01*
X147652380Y-88326190D01*
X147700000Y-88302380D01*
X147723809Y-88278571D01*
X147747619Y-88230952D01*
X147747619Y-88183333D01*
X147723809Y-88135714D01*
X147700000Y-88111904D01*
X147652380Y-88088095D01*
X147557142Y-88064285D01*
X147509523Y-88040476D01*
X147485714Y-88016666D01*
X147461904Y-87969047D01*
X147461904Y-87921428D01*
X147485714Y-87873809D01*
X147509523Y-87850000D01*
X147557142Y-87826190D01*
X147676190Y-87826190D01*
X147747619Y-87850000D01*
X147890476Y-87826190D02*
X148176190Y-87826190D01*
X148033333Y-88326190D02*
X148033333Y-87826190D01*
X148319047Y-88183333D02*
X148557142Y-88183333D01*
X148271428Y-88326190D02*
X148438095Y-87826190D01*
X148604761Y-88326190D01*
X148700000Y-87826190D02*
X148985714Y-87826190D01*
X148842857Y-88326190D02*
X148842857Y-87826190D01*
X149152380Y-87826190D02*
X149152380Y-88230952D01*
X149176190Y-88278571D01*
X149200000Y-88302380D01*
X149247619Y-88326190D01*
X149342857Y-88326190D01*
X149390476Y-88302380D01*
X149414285Y-88278571D01*
X149438095Y-88230952D01*
X149438095Y-87826190D01*
X149652380Y-88302380D02*
X149723809Y-88326190D01*
X149842857Y-88326190D01*
X149890476Y-88302380D01*
X149914285Y-88278571D01*
X149938095Y-88230952D01*
X149938095Y-88183333D01*
X149914285Y-88135714D01*
X149890476Y-88111904D01*
X149842857Y-88088095D01*
X149747619Y-88064285D01*
X149700000Y-88040476D01*
X149676190Y-88016666D01*
X149652380Y-87969047D01*
X149652380Y-87921428D01*
X149676190Y-87873809D01*
X149700000Y-87850000D01*
X149747619Y-87826190D01*
X149866666Y-87826190D01*
X149938095Y-87850000D01*
D11*
X164502380Y-120732380D02*
X163930952Y-120732380D01*
X164216666Y-120732380D02*
X164216666Y-119732380D01*
X164121428Y-119875238D01*
X164026190Y-119970476D01*
X163930952Y-120018095D01*
X164883333Y-119827619D02*
X164930952Y-119780000D01*
X165026190Y-119732380D01*
X165264285Y-119732380D01*
X165359523Y-119780000D01*
X165407142Y-119827619D01*
X165454761Y-119922857D01*
X165454761Y-120018095D01*
X165407142Y-120160952D01*
X164835714Y-120732380D01*
X165454761Y-120732380D01*
X165740476Y-119732380D02*
X166073809Y-120732380D01*
X166407142Y-119732380D01*
X167502380Y-120732380D02*
X167502380Y-119732380D01*
X167883333Y-119732380D01*
X167978571Y-119780000D01*
X168026190Y-119827619D01*
X168073809Y-119922857D01*
X168073809Y-120065714D01*
X168026190Y-120160952D01*
X167978571Y-120208571D01*
X167883333Y-120256190D01*
X167502380Y-120256190D01*
X168692857Y-119732380D02*
X168883333Y-119732380D01*
X168978571Y-119780000D01*
X169073809Y-119875238D01*
X169121428Y-120065714D01*
X169121428Y-120399047D01*
X169073809Y-120589523D01*
X168978571Y-120684761D01*
X168883333Y-120732380D01*
X168692857Y-120732380D01*
X168597619Y-120684761D01*
X168502380Y-120589523D01*
X168454761Y-120399047D01*
X168454761Y-120065714D01*
X168502380Y-119875238D01*
X168597619Y-119780000D01*
X168692857Y-119732380D01*
X169454761Y-119732380D02*
X169692857Y-120732380D01*
X169883333Y-120018095D01*
X170073809Y-120732380D01*
X170311904Y-119732380D01*
X170692857Y-120208571D02*
X171026190Y-120208571D01*
X171169047Y-120732380D02*
X170692857Y-120732380D01*
X170692857Y-119732380D01*
X171169047Y-119732380D01*
X172169047Y-120732380D02*
X171835714Y-120256190D01*
X171597619Y-120732380D02*
X171597619Y-119732380D01*
X171978571Y-119732380D01*
X172073809Y-119780000D01*
X172121428Y-119827619D01*
X172169047Y-119922857D01*
X172169047Y-120065714D01*
X172121428Y-120160952D01*
X172073809Y-120208571D01*
X171978571Y-120256190D01*
X171597619Y-120256190D01*
X175738095Y-101252380D02*
X175738095Y-102061904D01*
X175785714Y-102157142D01*
X175833333Y-102204761D01*
X175928571Y-102252380D01*
X176119047Y-102252380D01*
X176214285Y-102204761D01*
X176261904Y-102157142D01*
X176309523Y-102061904D01*
X176309523Y-101252380D01*
X176738095Y-102204761D02*
X176880952Y-102252380D01*
X177119047Y-102252380D01*
X177214285Y-102204761D01*
X177261904Y-102157142D01*
X177309523Y-102061904D01*
X177309523Y-101966666D01*
X177261904Y-101871428D01*
X177214285Y-101823809D01*
X177119047Y-101776190D01*
X176928571Y-101728571D01*
X176833333Y-101680952D01*
X176785714Y-101633333D01*
X176738095Y-101538095D01*
X176738095Y-101442857D01*
X176785714Y-101347619D01*
X176833333Y-101300000D01*
X176928571Y-101252380D01*
X177166666Y-101252380D01*
X177309523Y-101300000D01*
X178071428Y-101728571D02*
X178214285Y-101776190D01*
X178261904Y-101823809D01*
X178309523Y-101919047D01*
X178309523Y-102061904D01*
X178261904Y-102157142D01*
X178214285Y-102204761D01*
X178119047Y-102252380D01*
X177738095Y-102252380D01*
X177738095Y-101252380D01*
X178071428Y-101252380D01*
X178166666Y-101300000D01*
X178214285Y-101347619D01*
X178261904Y-101442857D01*
X178261904Y-101538095D01*
X178214285Y-101633333D01*
X178166666Y-101680952D01*
X178071428Y-101728571D01*
X177738095Y-101728571D01*
D13*
X162270476Y-84792380D02*
X162341904Y-84816190D01*
X162460952Y-84816190D01*
X162508571Y-84792380D01*
X162532380Y-84768571D01*
X162556190Y-84720952D01*
X162556190Y-84673333D01*
X162532380Y-84625714D01*
X162508571Y-84601904D01*
X162460952Y-84578095D01*
X162365714Y-84554285D01*
X162318095Y-84530476D01*
X162294285Y-84506666D01*
X162270476Y-84459047D01*
X162270476Y-84411428D01*
X162294285Y-84363809D01*
X162318095Y-84340000D01*
X162365714Y-84316190D01*
X162484761Y-84316190D01*
X162556190Y-84340000D01*
X162722857Y-84316190D02*
X162841904Y-84816190D01*
X162937142Y-84459047D01*
X163032380Y-84816190D01*
X163151428Y-84316190D01*
X163341904Y-84816190D02*
X163341904Y-84316190D01*
X163460952Y-84316190D01*
X163532380Y-84340000D01*
X163580000Y-84387619D01*
X163603809Y-84435238D01*
X163627619Y-84530476D01*
X163627619Y-84601904D01*
X163603809Y-84697142D01*
X163580000Y-84744761D01*
X163532380Y-84792380D01*
X163460952Y-84816190D01*
X163341904Y-84816190D01*
X163841904Y-84816190D02*
X163841904Y-84316190D01*
X164175238Y-84316190D02*
X164270476Y-84316190D01*
X164318095Y-84340000D01*
X164365714Y-84387619D01*
X164389523Y-84482857D01*
X164389523Y-84649523D01*
X164365714Y-84744761D01*
X164318095Y-84792380D01*
X164270476Y-84816190D01*
X164175238Y-84816190D01*
X164127619Y-84792380D01*
X164080000Y-84744761D01*
X164056190Y-84649523D01*
X164056190Y-84482857D01*
X164080000Y-84387619D01*
X164127619Y-84340000D01*
X164175238Y-84316190D01*
X152378571Y-84826190D02*
X152378571Y-84326190D01*
X152664285Y-84826190D01*
X152664285Y-84326190D01*
X153188095Y-84826190D02*
X153021428Y-84588095D01*
X152902380Y-84826190D02*
X152902380Y-84326190D01*
X153092857Y-84326190D01*
X153140476Y-84350000D01*
X153164285Y-84373809D01*
X153188095Y-84421428D01*
X153188095Y-84492857D01*
X153164285Y-84540476D01*
X153140476Y-84564285D01*
X153092857Y-84588095D01*
X152902380Y-84588095D01*
X153378571Y-84802380D02*
X153450000Y-84826190D01*
X153569047Y-84826190D01*
X153616666Y-84802380D01*
X153640476Y-84778571D01*
X153664285Y-84730952D01*
X153664285Y-84683333D01*
X153640476Y-84635714D01*
X153616666Y-84611904D01*
X153569047Y-84588095D01*
X153473809Y-84564285D01*
X153426190Y-84540476D01*
X153402380Y-84516666D01*
X153378571Y-84469047D01*
X153378571Y-84421428D01*
X153402380Y-84373809D01*
X153426190Y-84350000D01*
X153473809Y-84326190D01*
X153592857Y-84326190D01*
X153664285Y-84350000D01*
X153807142Y-84326190D02*
X154092857Y-84326190D01*
X153950000Y-84826190D02*
X153950000Y-84326190D01*
D14*
X163880952Y-79976190D02*
X164190476Y-79976190D01*
X164023809Y-80166666D01*
X164095238Y-80166666D01*
X164142857Y-80190476D01*
X164166666Y-80214285D01*
X164190476Y-80261904D01*
X164190476Y-80380952D01*
X164166666Y-80428571D01*
X164142857Y-80452380D01*
X164095238Y-80476190D01*
X163952380Y-80476190D01*
X163904761Y-80452380D01*
X163880952Y-80428571D01*
X164333333Y-79976190D02*
X164500000Y-80476190D01*
X164666666Y-79976190D01*
X164785714Y-79976190D02*
X165095238Y-79976190D01*
X164928571Y-80166666D01*
X165000000Y-80166666D01*
X165047619Y-80190476D01*
X165071428Y-80214285D01*
X165095238Y-80261904D01*
X165095238Y-80380952D01*
X165071428Y-80428571D01*
X165047619Y-80452380D01*
X165000000Y-80476190D01*
X164857142Y-80476190D01*
X164809523Y-80452380D01*
X164785714Y-80428571D01*
D13*
X153019047Y-80150000D02*
X152971428Y-80126190D01*
X152900000Y-80126190D01*
X152828571Y-80150000D01*
X152780952Y-80197619D01*
X152757142Y-80245238D01*
X152733333Y-80340476D01*
X152733333Y-80411904D01*
X152757142Y-80507142D01*
X152780952Y-80554761D01*
X152828571Y-80602380D01*
X152900000Y-80626190D01*
X152947619Y-80626190D01*
X153019047Y-80602380D01*
X153042857Y-80578571D01*
X153042857Y-80411904D01*
X152947619Y-80411904D01*
X153257142Y-80626190D02*
X153257142Y-80126190D01*
X153542857Y-80626190D01*
X153542857Y-80126190D01*
X153780952Y-80626190D02*
X153780952Y-80126190D01*
X153900000Y-80126190D01*
X153971428Y-80150000D01*
X154019047Y-80197619D01*
X154042857Y-80245238D01*
X154066666Y-80340476D01*
X154066666Y-80411904D01*
X154042857Y-80507142D01*
X154019047Y-80554761D01*
X153971428Y-80602380D01*
X153900000Y-80626190D01*
X153780952Y-80626190D01*
D11*
X162242857Y-82804761D02*
X162385714Y-82852380D01*
X162623809Y-82852380D01*
X162719047Y-82804761D01*
X162766666Y-82757142D01*
X162814285Y-82661904D01*
X162814285Y-82566666D01*
X162766666Y-82471428D01*
X162719047Y-82423809D01*
X162623809Y-82376190D01*
X162433333Y-82328571D01*
X162338095Y-82280952D01*
X162290476Y-82233333D01*
X162242857Y-82138095D01*
X162242857Y-82042857D01*
X162290476Y-81947619D01*
X162338095Y-81900000D01*
X162433333Y-81852380D01*
X162671428Y-81852380D01*
X162814285Y-81900000D01*
X163147619Y-81852380D02*
X163385714Y-82852380D01*
X163576190Y-82138095D01*
X163766666Y-82852380D01*
X164004761Y-81852380D01*
X164385714Y-82852380D02*
X164385714Y-81852380D01*
X164623809Y-81852380D01*
X164766666Y-81900000D01*
X164861904Y-81995238D01*
X164909523Y-82090476D01*
X164957142Y-82280952D01*
X164957142Y-82423809D01*
X164909523Y-82614285D01*
X164861904Y-82709523D01*
X164766666Y-82804761D01*
X164623809Y-82852380D01*
X164385714Y-82852380D01*
X150088571Y-121892380D02*
X150088571Y-122701904D01*
X150136190Y-122797142D01*
X150183809Y-122844761D01*
X150279047Y-122892380D01*
X150469523Y-122892380D01*
X150564761Y-122844761D01*
X150612380Y-122797142D01*
X150660000Y-122701904D01*
X150660000Y-121892380D01*
X151088571Y-122844761D02*
X151231428Y-122892380D01*
X151469523Y-122892380D01*
X151564761Y-122844761D01*
X151612380Y-122797142D01*
X151660000Y-122701904D01*
X151660000Y-122606666D01*
X151612380Y-122511428D01*
X151564761Y-122463809D01*
X151469523Y-122416190D01*
X151279047Y-122368571D01*
X151183809Y-122320952D01*
X151136190Y-122273333D01*
X151088571Y-122178095D01*
X151088571Y-122082857D01*
X151136190Y-121987619D01*
X151183809Y-121940000D01*
X151279047Y-121892380D01*
X151517142Y-121892380D01*
X151660000Y-121940000D01*
X152040952Y-122606666D02*
X152517142Y-122606666D01*
X151945714Y-122892380D02*
X152279047Y-121892380D01*
X152612380Y-122892380D01*
X153517142Y-122892380D02*
X153183809Y-122416190D01*
X152945714Y-122892380D02*
X152945714Y-121892380D01*
X153326666Y-121892380D01*
X153421904Y-121940000D01*
X153469523Y-121987619D01*
X153517142Y-122082857D01*
X153517142Y-122225714D01*
X153469523Y-122320952D01*
X153421904Y-122368571D01*
X153326666Y-122416190D01*
X152945714Y-122416190D01*
X153802857Y-121892380D02*
X154374285Y-121892380D01*
X154088571Y-122892380D02*
X154088571Y-121892380D01*
X140117619Y-79581904D02*
X140593809Y-79248571D01*
X140117619Y-79010476D02*
X141117619Y-79010476D01*
X141117619Y-79391428D01*
X141070000Y-79486666D01*
X141022380Y-79534285D01*
X140927142Y-79581904D01*
X140784285Y-79581904D01*
X140689047Y-79534285D01*
X140641428Y-79486666D01*
X140593809Y-79391428D01*
X140593809Y-79010476D01*
X141117619Y-80010476D02*
X140308095Y-80010476D01*
X140212857Y-80058095D01*
X140165238Y-80105714D01*
X140117619Y-80200952D01*
X140117619Y-80391428D01*
X140165238Y-80486666D01*
X140212857Y-80534285D01*
X140308095Y-80581904D01*
X141117619Y-80581904D01*
X140117619Y-81058095D02*
X141117619Y-81058095D01*
X140117619Y-81629523D01*
X141117619Y-81629523D01*
X151311428Y-78962857D02*
X151263809Y-79105714D01*
X151216190Y-79153333D01*
X151120952Y-79200952D01*
X150978095Y-79200952D01*
X150882857Y-79153333D01*
X150835238Y-79105714D01*
X150787619Y-79010476D01*
X150787619Y-78629523D01*
X151787619Y-78629523D01*
X151787619Y-78962857D01*
X151740000Y-79058095D01*
X151692380Y-79105714D01*
X151597142Y-79153333D01*
X151501904Y-79153333D01*
X151406666Y-79105714D01*
X151359047Y-79058095D01*
X151311428Y-78962857D01*
X151311428Y-78629523D01*
X151787619Y-79820000D02*
X151787619Y-80010476D01*
X151740000Y-80105714D01*
X151644761Y-80200952D01*
X151454285Y-80248571D01*
X151120952Y-80248571D01*
X150930476Y-80200952D01*
X150835238Y-80105714D01*
X150787619Y-80010476D01*
X150787619Y-79820000D01*
X150835238Y-79724761D01*
X150930476Y-79629523D01*
X151120952Y-79581904D01*
X151454285Y-79581904D01*
X151644761Y-79629523D01*
X151740000Y-79724761D01*
X151787619Y-79820000D01*
X151787619Y-80867619D02*
X151787619Y-81058095D01*
X151740000Y-81153333D01*
X151644761Y-81248571D01*
X151454285Y-81296190D01*
X151120952Y-81296190D01*
X150930476Y-81248571D01*
X150835238Y-81153333D01*
X150787619Y-81058095D01*
X150787619Y-80867619D01*
X150835238Y-80772380D01*
X150930476Y-80677142D01*
X151120952Y-80629523D01*
X151454285Y-80629523D01*
X151644761Y-80677142D01*
X151740000Y-80772380D01*
X151787619Y-80867619D01*
X151787619Y-81581904D02*
X151787619Y-82153333D01*
X150787619Y-81867619D02*
X151787619Y-81867619D01*
D14*
X145975238Y-87387142D02*
X146584761Y-87387142D01*
X146280000Y-87691904D02*
X146280000Y-87082380D01*
X150275238Y-116587142D02*
X150884761Y-116587142D01*
X150580000Y-116891904D02*
X150580000Y-116282380D01*
X136075238Y-112387142D02*
X136684761Y-112387142D01*
X136380000Y-112691904D02*
X136380000Y-112082380D01*
X131575238Y-109387142D02*
X132184761Y-109387142D01*
X131880000Y-109691904D02*
X131880000Y-109082380D01*
X131475238Y-112487142D02*
X132084761Y-112487142D01*
X131780000Y-112791904D02*
X131780000Y-112182380D01*
X132975238Y-113887142D02*
X133584761Y-113887142D01*
X133280000Y-114191904D02*
X133280000Y-113582380D01*
D10*
%TO.C,C21*%
X140910000Y-84659420D02*
X140910000Y-84940580D01*
X139890000Y-84659420D02*
X139890000Y-84940580D01*
%TO.C,C20*%
X165361252Y-101610000D02*
X163938748Y-101610000D01*
X165361252Y-99790000D02*
X163938748Y-99790000D01*
%TO.C,J3*%
X154870000Y-84305000D02*
X154805000Y-84305000D01*
X154870000Y-80775000D02*
X154805000Y-80775000D01*
X161275000Y-84305000D02*
X161210000Y-84305000D01*
X161275000Y-80775000D02*
X161210000Y-80775000D01*
X161210000Y-79450000D02*
X161210000Y-80775000D01*
X154805000Y-80775000D02*
X154805000Y-84305000D01*
X161275000Y-80775000D02*
X161275000Y-84305000D01*
%TO.C,U4*%
X149160000Y-107110000D02*
X150110000Y-107110000D01*
X150110000Y-107110000D02*
X150110000Y-106160000D01*
X140840000Y-107110000D02*
X139890000Y-107110000D01*
X139890000Y-107110000D02*
X139890000Y-106160000D01*
X149160000Y-96890000D02*
X150110000Y-96890000D01*
X150110000Y-96890000D02*
X150110000Y-97840000D01*
X140840000Y-96890000D02*
X139890000Y-96890000D01*
X139890000Y-96890000D02*
X139890000Y-97840000D01*
X139890000Y-97840000D02*
X138550000Y-97840000D01*
%TO.C,U3*%
X170400000Y-95015000D02*
X168600000Y-95015000D01*
X168600000Y-98235000D02*
X171050000Y-98235000D01*
%TO.C,J1*%
X174900000Y-100200000D02*
X174900000Y-99750000D01*
X176750000Y-100200000D02*
X174900000Y-100200000D01*
X179300000Y-92400000D02*
X179050000Y-92400000D01*
X179300000Y-100200000D02*
X179050000Y-100200000D01*
X176750000Y-92400000D02*
X174900000Y-92400000D01*
X174900000Y-92400000D02*
X174900000Y-92850000D01*
X174350000Y-98000000D02*
X174350000Y-97550000D01*
X174350000Y-98000000D02*
X174800000Y-98000000D01*
%TO.C,C8*%
X135140580Y-90110000D02*
X134859420Y-90110000D01*
X135140580Y-89090000D02*
X134859420Y-89090000D01*
%TO.C,C7*%
X136059420Y-81290000D02*
X136340580Y-81290000D01*
X136059420Y-82310000D02*
X136340580Y-82310000D01*
%TO.C,R20*%
X148370000Y-85816359D02*
X148370000Y-86123641D01*
X149130000Y-85816359D02*
X149130000Y-86123641D01*
%TO.C,R19*%
X134953641Y-114270000D02*
X134646359Y-114270000D01*
X134953641Y-115030000D02*
X134646359Y-115030000D01*
%TO.C,R18*%
X130346359Y-111880000D02*
X130653641Y-111880000D01*
X130346359Y-111120000D02*
X130653641Y-111120000D01*
%TO.C,R17*%
X137730000Y-114353641D02*
X137730000Y-114046359D01*
X136970000Y-114353641D02*
X136970000Y-114046359D01*
%TO.C,R16*%
X132462000Y-104348359D02*
X132462000Y-104655641D01*
X133222000Y-104348359D02*
X133222000Y-104655641D01*
%TO.C,R15*%
X140590000Y-89254359D02*
X140590000Y-89561641D01*
X141350000Y-89254359D02*
X141350000Y-89561641D01*
%TO.C,R14*%
X140590000Y-91540359D02*
X140590000Y-91847641D01*
X141350000Y-91540359D02*
X141350000Y-91847641D01*
%TO.C,Y1*%
X135250000Y-97600000D02*
X131950000Y-97600000D01*
X131950000Y-97600000D02*
X131950000Y-101600000D01*
D11*
%TO.C,U2*%
X134120000Y-87860000D02*
X134120000Y-87335000D01*
X138420000Y-83560000D02*
X138420000Y-84085000D01*
X134120000Y-83560000D02*
X134120000Y-84085000D01*
X138420000Y-87860000D02*
X137895000Y-87860000D01*
X138420000Y-83560000D02*
X137895000Y-83560000D01*
X134120000Y-83560000D02*
X134645000Y-83560000D01*
X134120000Y-87860000D02*
X134645000Y-87860000D01*
D10*
%TO.C,U1*%
X160610000Y-111400000D02*
X160610000Y-108950000D01*
X157390000Y-109600000D02*
X157390000Y-111400000D01*
%TO.C,SW1*%
X144580000Y-81370000D02*
X144380000Y-81370000D01*
X147380000Y-77230000D02*
X147180000Y-77020000D01*
X146080000Y-77230000D02*
X146280000Y-77020000D01*
X147380000Y-78520000D02*
X147380000Y-77230000D01*
X147180000Y-77020000D02*
X146280000Y-77020000D01*
X146080000Y-77230000D02*
X146080000Y-78520000D01*
X148830000Y-78520000D02*
X143130000Y-78520000D01*
X147580000Y-81370000D02*
X145880000Y-81370000D01*
X149430000Y-80320000D02*
X149430000Y-79530000D01*
X142530000Y-79530000D02*
X142530000Y-80320000D01*
%TO.C,R13*%
X136753641Y-101180000D02*
X136446359Y-101180000D01*
X136753641Y-100420000D02*
X136446359Y-100420000D01*
%TO.C,R11*%
X155120000Y-88183641D02*
X155120000Y-87876359D01*
X155880000Y-88183641D02*
X155880000Y-87876359D01*
%TO.C,R10*%
X157660000Y-88193641D02*
X157660000Y-87886359D01*
X158420000Y-88193641D02*
X158420000Y-87886359D01*
%TO.C,R9*%
X158920000Y-88193641D02*
X158920000Y-87886359D01*
X159680000Y-88193641D02*
X159680000Y-87886359D01*
%TO.C,R8*%
X160210000Y-88193641D02*
X160210000Y-87886359D01*
X160970000Y-88193641D02*
X160970000Y-87886359D01*
%TO.C,R7*%
X145610000Y-85796359D02*
X145610000Y-86103641D01*
X144850000Y-85796359D02*
X144850000Y-86103641D01*
%TO.C,R6*%
X160507258Y-106122500D02*
X160032742Y-106122500D01*
X160507258Y-105077500D02*
X160032742Y-105077500D01*
%TO.C,R5*%
X148860742Y-113777500D02*
X149335258Y-113777500D01*
X148860742Y-114822500D02*
X149335258Y-114822500D01*
%TO.C,R4*%
X160032742Y-106855500D02*
X160507258Y-106855500D01*
X160032742Y-107900500D02*
X160507258Y-107900500D01*
%TO.C,R3*%
X156728500Y-113998742D02*
X156728500Y-114473258D01*
X155683500Y-113998742D02*
X155683500Y-114473258D01*
%TO.C,R2*%
X156984742Y-106855500D02*
X157459258Y-106855500D01*
X156984742Y-107900500D02*
X157459258Y-107900500D01*
%TO.C,R1*%
X158729258Y-113996500D02*
X158254742Y-113996500D01*
X158729258Y-112951500D02*
X158254742Y-112951500D01*
%TO.C,Q1*%
X166920000Y-116510000D02*
X167850000Y-116510000D01*
X170080000Y-116510000D02*
X169150000Y-116510000D01*
X170080000Y-116510000D02*
X170080000Y-114350000D01*
X166920000Y-116510000D02*
X166920000Y-115050000D01*
%TO.C,L1*%
X163300000Y-109050000D02*
X163300000Y-103450000D01*
X168700000Y-109050000D02*
X168700000Y-103450000D01*
X163300000Y-109050000D02*
X164450000Y-109050000D01*
X168700000Y-109050000D02*
X167550000Y-109050000D01*
X163300000Y-103450000D02*
X164450000Y-103450000D01*
X168700000Y-103450000D02*
X167550000Y-103450000D01*
%TO.C,J4*%
X165430000Y-125500000D02*
G75*
G03*
X165430000Y-125500000I-2180000J0D01*
G01*
X170430000Y-125500000D02*
G75*
G03*
X170430000Y-125500000I-2180000J0D01*
G01*
X160690000Y-130100000D02*
X170810000Y-130100000D01*
X160690000Y-129000000D02*
X170810000Y-129000000D01*
X160690000Y-121440000D02*
X170810000Y-121440000D01*
X160690000Y-130560000D02*
X170810000Y-130560000D01*
X160690000Y-121440000D02*
X160690000Y-130560000D01*
X170810000Y-121440000D02*
X170810000Y-130560000D01*
X164904000Y-124112000D02*
X164797000Y-124219000D01*
X161968000Y-127047000D02*
X161862000Y-127154000D01*
X164638000Y-123846000D02*
X164531000Y-123953000D01*
X161702000Y-126781000D02*
X161596000Y-126888000D01*
X169904000Y-124112000D02*
X169509000Y-124508000D01*
X167243000Y-126774000D02*
X166863000Y-127154000D01*
X169638000Y-123846000D02*
X169258000Y-124226000D01*
X166992000Y-126492000D02*
X166597000Y-126888000D01*
X160450000Y-130160000D02*
X160450000Y-130800000D01*
X160450000Y-130800000D02*
X160850000Y-130800000D01*
%TO.C,J2*%
X155770000Y-129980000D02*
X152285000Y-129980000D01*
X155770000Y-124260000D02*
X155770000Y-129980000D01*
X154700000Y-124260000D02*
X155770000Y-124260000D01*
X154700000Y-124560000D02*
X154700000Y-124260000D01*
X152285000Y-124560000D02*
X154700000Y-124560000D01*
X148800000Y-129980000D02*
X152285000Y-129980000D01*
X148800000Y-124260000D02*
X148800000Y-129980000D01*
X149870000Y-124260000D02*
X148800000Y-124260000D01*
X149870000Y-124560000D02*
X149870000Y-124260000D01*
X152285000Y-124560000D02*
X149870000Y-124560000D01*
X150160000Y-123970000D02*
X149660000Y-123970000D01*
X150160000Y-124270000D02*
X150160000Y-123970000D01*
%TO.C,FB1*%
X158694000Y-116413622D02*
X158694000Y-115614378D01*
X159814000Y-116413622D02*
X159814000Y-115614378D01*
%TO.C,D8*%
X147805000Y-86710000D02*
X147805000Y-84425000D01*
X147805000Y-84425000D02*
X146335000Y-84425000D01*
X146335000Y-84425000D02*
X146335000Y-86710000D01*
%TO.C,D7*%
X131865000Y-114550000D02*
X131865000Y-116835000D01*
X131865000Y-116835000D02*
X133335000Y-116835000D01*
X133335000Y-116835000D02*
X133335000Y-114550000D01*
%TO.C,D6*%
X131100000Y-112465000D02*
X128815000Y-112465000D01*
X128815000Y-112465000D02*
X128815000Y-113935000D01*
X128815000Y-113935000D02*
X131100000Y-113935000D01*
%TO.C,D5*%
X135750000Y-112415000D02*
X133465000Y-112415000D01*
X133465000Y-112415000D02*
X133465000Y-113885000D01*
X133465000Y-113885000D02*
X135750000Y-113885000D01*
%TO.C,D4*%
X131865000Y-110100000D02*
X131865000Y-112385000D01*
X131865000Y-112385000D02*
X133335000Y-112385000D01*
X133335000Y-112385000D02*
X133335000Y-110100000D01*
%TO.C,D3*%
X149898000Y-115089000D02*
X147613000Y-115089000D01*
X147613000Y-115089000D02*
X147613000Y-116559000D01*
X147613000Y-116559000D02*
X149898000Y-116559000D01*
%TO.C,D2*%
X165500000Y-111000000D02*
X163500000Y-111000000D01*
X163500000Y-111000000D02*
X163500000Y-114900000D01*
X165500000Y-111000000D02*
X165500000Y-114900000D01*
%TO.C,D1*%
X169500000Y-107500000D02*
X169500000Y-103600000D01*
X171500000Y-107500000D02*
X171500000Y-103600000D01*
X169500000Y-107500000D02*
X171500000Y-107500000D01*
%TO.C,C19*%
X137054000Y-110636164D02*
X137054000Y-110851836D01*
X137774000Y-110636164D02*
X137774000Y-110851836D01*
%TO.C,C18*%
X137040000Y-103307836D02*
X137040000Y-103092164D01*
X137760000Y-103307836D02*
X137760000Y-103092164D01*
%TO.C,C17*%
X135740000Y-103307836D02*
X135740000Y-103092164D01*
X136460000Y-103307836D02*
X136460000Y-103092164D01*
%TO.C,C16*%
X151162164Y-107070000D02*
X151377836Y-107070000D01*
X151162164Y-107790000D02*
X151377836Y-107790000D01*
%TO.C,C15*%
X136907836Y-98560000D02*
X136692164Y-98560000D01*
X136907836Y-97840000D02*
X136692164Y-97840000D01*
%TO.C,C14*%
X151140000Y-96607836D02*
X151140000Y-96392164D01*
X151860000Y-96607836D02*
X151860000Y-96392164D01*
%TO.C,C13*%
X141292164Y-94040000D02*
X141507836Y-94040000D01*
X141292164Y-94760000D02*
X141507836Y-94760000D01*
%TO.C,C12*%
X142107836Y-109960000D02*
X141892164Y-109960000D01*
X142107836Y-109240000D02*
X141892164Y-109240000D01*
%TO.C,C11*%
X138740580Y-94910000D02*
X138459420Y-94910000D01*
X138740580Y-93890000D02*
X138459420Y-93890000D01*
%TO.C,C10*%
X152490000Y-97140580D02*
X152490000Y-96859420D01*
X153510000Y-97140580D02*
X153510000Y-96859420D01*
%TO.C,C9*%
X149459420Y-109290000D02*
X149740580Y-109290000D01*
X149459420Y-110310000D02*
X149740580Y-110310000D01*
%TO.C,C6*%
X132960000Y-85492164D02*
X132960000Y-85707836D01*
X132240000Y-85492164D02*
X132240000Y-85707836D01*
%TO.C,C5*%
X133707836Y-102760000D02*
X133492164Y-102760000D01*
X133707836Y-102040000D02*
X133492164Y-102040000D01*
%TO.C,C4*%
X133492164Y-96440000D02*
X133707836Y-96440000D01*
X133492164Y-97160000D02*
X133707836Y-97160000D01*
%TO.C,C3*%
X160711252Y-104410000D02*
X159288748Y-104410000D01*
X160711252Y-102590000D02*
X159288748Y-102590000D01*
%TO.C,C2*%
X162510000Y-110609420D02*
X162510000Y-110890580D01*
X161490000Y-110609420D02*
X161490000Y-110890580D01*
%TO.C,C1*%
X160376000Y-114286748D02*
X160376000Y-115709252D01*
X162196000Y-114286748D02*
X162196000Y-115709252D01*
%TO.C,F1*%
X160097936Y-118090000D02*
X161302064Y-118090000D01*
X160097936Y-119910000D02*
X161302064Y-119910000D01*
%TD*%
M02*
