%TF.GenerationSoftware,KiCad,Pcbnew,(5.1.10)-1*%
%TF.CreationDate,2021-09-20T20:27:13+02:00*%
%TF.ProjectId,STM32F405RG +  Gyro + I2C,53544d33-3246-4343-9035-5247202b2020,rev?*%
%TF.SameCoordinates,Original*%
%TF.FileFunction,Copper,L3,Inr*%
%TF.FilePolarity,Positive*%
%FSLAX46Y46*%
G04 Gerber Fmt 4.6, Leading zero omitted, Abs format (unit mm)*
G04 Created by KiCad (PCBNEW (5.1.10)-1) date 2021-09-20 20:27:13*
%MOMM*%
%LPD*%
G01*
G04 APERTURE LIST*
%TA.AperFunction,ComponentPad*%
%ADD10O,1.900000X1.200000*%
%TD*%
%TA.AperFunction,ComponentPad*%
%ADD11C,1.450000*%
%TD*%
%TA.AperFunction,ComponentPad*%
%ADD12C,2.600000*%
%TD*%
%TA.AperFunction,ComponentPad*%
%ADD13R,2.600000X2.600000*%
%TD*%
%TA.AperFunction,ComponentPad*%
%ADD14O,0.800000X1.300000*%
%TD*%
%TA.AperFunction,ViaPad*%
%ADD15C,0.800000*%
%TD*%
%TA.AperFunction,Conductor*%
%ADD16C,0.254000*%
%TD*%
%TA.AperFunction,Conductor*%
%ADD17C,0.100000*%
%TD*%
G04 APERTURE END LIST*
D10*
%TO.N,Net-(J1-Pad6)*%
%TO.C,J1*%
X177900000Y-92800000D03*
X177900000Y-99800000D03*
D11*
X175200000Y-93800000D03*
X175200000Y-98800000D03*
%TD*%
D12*
%TO.N,GND*%
%TO.C,J4*%
X168250000Y-125500000D03*
D13*
%TO.N,+12V*%
X163250000Y-125500000D03*
%TD*%
%TO.N,+3V3*%
%TO.C,J2*%
%TA.AperFunction,ComponentPad*%
G36*
G01*
X150010000Y-125870000D02*
X150010000Y-124970000D01*
G75*
G02*
X150210000Y-124770000I200000J0D01*
G01*
X150610000Y-124770000D01*
G75*
G02*
X150810000Y-124970000I0J-200000D01*
G01*
X150810000Y-125870000D01*
G75*
G02*
X150610000Y-126070000I-200000J0D01*
G01*
X150210000Y-126070000D01*
G75*
G02*
X150010000Y-125870000I0J200000D01*
G01*
G37*
%TD.AperFunction*%
D14*
%TO.N,USART_TX*%
X151660000Y-125420000D03*
%TO.N,USART_RX*%
X152910000Y-125420000D03*
%TO.N,GND*%
X154160000Y-125420000D03*
%TD*%
D15*
%TO.N,GND*%
X163175000Y-102050000D03*
X163175000Y-99350000D03*
X136110000Y-101960000D03*
X136660000Y-111230000D03*
X137420000Y-111930000D03*
X141450000Y-110500000D03*
X140810000Y-109580000D03*
X152450000Y-107410000D03*
X151740000Y-106690000D03*
X151260000Y-109810000D03*
X150400000Y-110700000D03*
X150770000Y-114300000D03*
X153900000Y-96150000D03*
X153000000Y-95350000D03*
X158520000Y-104830000D03*
X158530000Y-102160000D03*
X159000000Y-110350000D03*
X156190000Y-115900000D03*
X155290000Y-115060000D03*
X161290000Y-117470000D03*
X161290000Y-115450000D03*
X165530000Y-114920000D03*
X163450000Y-114900000D03*
X169480000Y-113820000D03*
X170310000Y-114760000D03*
X143710000Y-82880000D03*
X133330000Y-89600000D03*
X134220000Y-90520000D03*
X137010000Y-80890000D03*
X137860000Y-81810000D03*
X169550000Y-94360000D03*
X137400000Y-101980000D03*
X134280000Y-82150000D03*
X139350000Y-87010000D03*
X131850000Y-86100000D03*
X132600000Y-86790000D03*
X148750000Y-87190000D03*
X131680000Y-100700000D03*
X134980000Y-97040000D03*
X137810000Y-93480000D03*
X137830000Y-95320000D03*
X141850000Y-93400000D03*
X172950000Y-95000000D03*
X172950000Y-94150000D03*
X173800000Y-95000000D03*
X173800000Y-94150000D03*
X158030000Y-78950000D03*
X159300000Y-78950000D03*
X155490000Y-78940000D03*
%TO.N,+3V3*%
X160610000Y-78950000D03*
X141880000Y-91190000D03*
X132600000Y-84390000D03*
X150770000Y-97060000D03*
X150760000Y-115850000D03*
X148210000Y-82880000D03*
X138650000Y-82600000D03*
X140970000Y-88138000D03*
X167510000Y-105470000D03*
X164490000Y-105460000D03*
X164540000Y-102880000D03*
X167490000Y-102890000D03*
X160470000Y-102950000D03*
X160460000Y-103800000D03*
X156380000Y-108300000D03*
X156380000Y-106450000D03*
X142500000Y-110350000D03*
X137430000Y-109530000D03*
X137330000Y-115430000D03*
X129286000Y-111506000D03*
X134112000Y-104902000D03*
X132080000Y-103886000D03*
X137414000Y-97282000D03*
X139446000Y-95504000D03*
X139446000Y-93472000D03*
X150830000Y-108160000D03*
%TO.N,TIM2_CH3*%
X131000000Y-108750000D03*
X136000000Y-108750000D03*
%TO.N,BOOT0*%
X144800000Y-90000000D03*
X143400000Y-91600000D03*
%TO.N,NRST*%
X147000000Y-98500000D03*
X147000000Y-93500000D03*
%TD*%
D16*
%TO.N,+3V3*%
X154686063Y-78280226D02*
X154572795Y-78449744D01*
X154494774Y-78638102D01*
X154455000Y-78838061D01*
X154455000Y-79041939D01*
X154494774Y-79241898D01*
X154572795Y-79430256D01*
X154686063Y-79599774D01*
X154830226Y-79743937D01*
X154999744Y-79857205D01*
X155188102Y-79935226D01*
X155388061Y-79975000D01*
X155591939Y-79975000D01*
X155791898Y-79935226D01*
X155980256Y-79857205D01*
X156149774Y-79743937D01*
X156293937Y-79599774D01*
X156407205Y-79430256D01*
X156485226Y-79241898D01*
X156525000Y-79041939D01*
X156525000Y-78838061D01*
X156485226Y-78638102D01*
X156407205Y-78449744D01*
X156293937Y-78280226D01*
X156223711Y-78210000D01*
X157306289Y-78210000D01*
X157226063Y-78290226D01*
X157112795Y-78459744D01*
X157034774Y-78648102D01*
X156995000Y-78848061D01*
X156995000Y-79051939D01*
X157034774Y-79251898D01*
X157112795Y-79440256D01*
X157226063Y-79609774D01*
X157370226Y-79753937D01*
X157539744Y-79867205D01*
X157728102Y-79945226D01*
X157928061Y-79985000D01*
X158131939Y-79985000D01*
X158331898Y-79945226D01*
X158520256Y-79867205D01*
X158665000Y-79770490D01*
X158809744Y-79867205D01*
X158998102Y-79945226D01*
X159198061Y-79985000D01*
X159401939Y-79985000D01*
X159601898Y-79945226D01*
X159790256Y-79867205D01*
X159959774Y-79753937D01*
X160103937Y-79609774D01*
X160217205Y-79440256D01*
X160295226Y-79251898D01*
X160335000Y-79051939D01*
X160335000Y-78848061D01*
X160295226Y-78648102D01*
X160217205Y-78459744D01*
X160103937Y-78290226D01*
X160023711Y-78210000D01*
X169977687Y-78210000D01*
X171164170Y-78284647D01*
X172309981Y-78503222D01*
X173419362Y-78863682D01*
X174474813Y-79360339D01*
X175459703Y-79985370D01*
X176358480Y-80728903D01*
X177156987Y-81579228D01*
X177842621Y-82522922D01*
X178404575Y-83545110D01*
X178833979Y-84629662D01*
X179124071Y-85759494D01*
X179271669Y-86927864D01*
X179290000Y-87511165D01*
X179290000Y-92125831D01*
X179281833Y-92110551D01*
X179127502Y-91922498D01*
X178939449Y-91768167D01*
X178724901Y-91653489D01*
X178492102Y-91582870D01*
X178310665Y-91565000D01*
X177489335Y-91565000D01*
X177307898Y-91582870D01*
X177075099Y-91653489D01*
X176860551Y-91768167D01*
X176672498Y-91922498D01*
X176518167Y-92110551D01*
X176403489Y-92325099D01*
X176332870Y-92557898D01*
X176309025Y-92800000D01*
X176332870Y-93042102D01*
X176335883Y-93052035D01*
X176256381Y-92933051D01*
X176066949Y-92743619D01*
X175844201Y-92594784D01*
X175596697Y-92492264D01*
X175333948Y-92440000D01*
X175066052Y-92440000D01*
X174803303Y-92492264D01*
X174555799Y-92594784D01*
X174333051Y-92743619D01*
X174143619Y-92933051D01*
X174007955Y-93136088D01*
X173901939Y-93115000D01*
X173698061Y-93115000D01*
X173498102Y-93154774D01*
X173375000Y-93205765D01*
X173251898Y-93154774D01*
X173051939Y-93115000D01*
X172848061Y-93115000D01*
X172648102Y-93154774D01*
X172459744Y-93232795D01*
X172290226Y-93346063D01*
X172146063Y-93490226D01*
X172032795Y-93659744D01*
X171954774Y-93848102D01*
X171915000Y-94048061D01*
X171915000Y-94251939D01*
X171954774Y-94451898D01*
X172005765Y-94575000D01*
X171954774Y-94698102D01*
X171915000Y-94898061D01*
X171915000Y-95101939D01*
X171954774Y-95301898D01*
X172032795Y-95490256D01*
X172146063Y-95659774D01*
X172290226Y-95803937D01*
X172459744Y-95917205D01*
X172648102Y-95995226D01*
X172848061Y-96035000D01*
X173051939Y-96035000D01*
X173251898Y-95995226D01*
X173375000Y-95944235D01*
X173498102Y-95995226D01*
X173698061Y-96035000D01*
X173901939Y-96035000D01*
X174101898Y-95995226D01*
X174290256Y-95917205D01*
X174459774Y-95803937D01*
X174603937Y-95659774D01*
X174717205Y-95490256D01*
X174795226Y-95301898D01*
X174832684Y-95113580D01*
X175066052Y-95160000D01*
X175333948Y-95160000D01*
X175596697Y-95107736D01*
X175844201Y-95005216D01*
X176066949Y-94856381D01*
X176256381Y-94666949D01*
X176405216Y-94444201D01*
X176507736Y-94196697D01*
X176560000Y-93933948D01*
X176560000Y-93666052D01*
X176527016Y-93500232D01*
X176672498Y-93677502D01*
X176860551Y-93831833D01*
X177075099Y-93946511D01*
X177307898Y-94017130D01*
X177489335Y-94035000D01*
X178310665Y-94035000D01*
X178492102Y-94017130D01*
X178724901Y-93946511D01*
X178939449Y-93831833D01*
X179127502Y-93677502D01*
X179281833Y-93489449D01*
X179290000Y-93474169D01*
X179290000Y-99125831D01*
X179281833Y-99110551D01*
X179127502Y-98922498D01*
X178939449Y-98768167D01*
X178724901Y-98653489D01*
X178492102Y-98582870D01*
X178310665Y-98565000D01*
X177489335Y-98565000D01*
X177307898Y-98582870D01*
X177075099Y-98653489D01*
X176860551Y-98768167D01*
X176672498Y-98922498D01*
X176527016Y-99099768D01*
X176560000Y-98933948D01*
X176560000Y-98666052D01*
X176507736Y-98403303D01*
X176405216Y-98155799D01*
X176256381Y-97933051D01*
X176066949Y-97743619D01*
X175844201Y-97594784D01*
X175596697Y-97492264D01*
X175333948Y-97440000D01*
X175066052Y-97440000D01*
X174803303Y-97492264D01*
X174555799Y-97594784D01*
X174333051Y-97743619D01*
X174143619Y-97933051D01*
X173994784Y-98155799D01*
X173892264Y-98403303D01*
X173840000Y-98666052D01*
X173840000Y-98933948D01*
X173892264Y-99196697D01*
X173994784Y-99444201D01*
X174143619Y-99666949D01*
X174333051Y-99856381D01*
X174555799Y-100005216D01*
X174803303Y-100107736D01*
X175066052Y-100160000D01*
X175333948Y-100160000D01*
X175596697Y-100107736D01*
X175844201Y-100005216D01*
X176066949Y-99856381D01*
X176256381Y-99666949D01*
X176335883Y-99547965D01*
X176332870Y-99557898D01*
X176309025Y-99800000D01*
X176332870Y-100042102D01*
X176403489Y-100274901D01*
X176518167Y-100489449D01*
X176672498Y-100677502D01*
X176860551Y-100831833D01*
X177075099Y-100946511D01*
X177307898Y-101017130D01*
X177489335Y-101035000D01*
X178310665Y-101035000D01*
X178492102Y-101017130D01*
X178724901Y-100946511D01*
X178939449Y-100831833D01*
X179127502Y-100677502D01*
X179281833Y-100489449D01*
X179290000Y-100474169D01*
X179290001Y-121477671D01*
X179215353Y-122664169D01*
X178996778Y-123809981D01*
X178636318Y-124919362D01*
X178139661Y-125974813D01*
X177514630Y-126959703D01*
X176771096Y-127858480D01*
X175920773Y-128656987D01*
X174977078Y-129342621D01*
X173954888Y-129904576D01*
X172870338Y-130333979D01*
X171740505Y-130624071D01*
X170572146Y-130771668D01*
X169988835Y-130790000D01*
X135022313Y-130790000D01*
X133835831Y-130715353D01*
X132690019Y-130496778D01*
X131580638Y-130136318D01*
X130525187Y-129639661D01*
X129540297Y-129014630D01*
X128641520Y-128271096D01*
X127843013Y-127420773D01*
X127157379Y-126477078D01*
X126932362Y-126067774D01*
X149371932Y-126067774D01*
X149383758Y-126192298D01*
X149419650Y-126312122D01*
X149478229Y-126422641D01*
X149557244Y-126519608D01*
X149653658Y-126599298D01*
X149763766Y-126658646D01*
X149883336Y-126695374D01*
X150003250Y-126705000D01*
X150162000Y-126546250D01*
X150162000Y-125668000D01*
X149533750Y-125668000D01*
X149375000Y-125826750D01*
X149371932Y-126067774D01*
X126932362Y-126067774D01*
X126595424Y-125454888D01*
X126325140Y-124772226D01*
X149371932Y-124772226D01*
X149375000Y-125013250D01*
X149533750Y-125172000D01*
X150162000Y-125172000D01*
X150162000Y-125119163D01*
X150625000Y-125119163D01*
X150625000Y-125720838D01*
X150639976Y-125872895D01*
X150658000Y-125932311D01*
X150658000Y-126546250D01*
X150816750Y-126705000D01*
X150936664Y-126695374D01*
X151056234Y-126658646D01*
X151166342Y-126599298D01*
X151180736Y-126587401D01*
X151262008Y-126630841D01*
X151457106Y-126690024D01*
X151660000Y-126710007D01*
X151862895Y-126690024D01*
X152057993Y-126630841D01*
X152237797Y-126534734D01*
X152285001Y-126495995D01*
X152332204Y-126534734D01*
X152512008Y-126630841D01*
X152707106Y-126690024D01*
X152910000Y-126710007D01*
X153112895Y-126690024D01*
X153307993Y-126630841D01*
X153487797Y-126534734D01*
X153535001Y-126495995D01*
X153582204Y-126534734D01*
X153762008Y-126630841D01*
X153957106Y-126690024D01*
X154160000Y-126710007D01*
X154362895Y-126690024D01*
X154557993Y-126630841D01*
X154737797Y-126534734D01*
X154895396Y-126405396D01*
X155024734Y-126247797D01*
X155120841Y-126067992D01*
X155180024Y-125872894D01*
X155195000Y-125720837D01*
X155195000Y-125119162D01*
X155180024Y-124967105D01*
X155120841Y-124772007D01*
X155024734Y-124592203D01*
X154895396Y-124434604D01*
X154737797Y-124305266D01*
X154557992Y-124209159D01*
X154527800Y-124200000D01*
X161311928Y-124200000D01*
X161311928Y-126800000D01*
X161324188Y-126924482D01*
X161360498Y-127044180D01*
X161419463Y-127154494D01*
X161498815Y-127251185D01*
X161595506Y-127330537D01*
X161705820Y-127389502D01*
X161825518Y-127425812D01*
X161950000Y-127438072D01*
X164550000Y-127438072D01*
X164674482Y-127425812D01*
X164794180Y-127389502D01*
X164904494Y-127330537D01*
X165001185Y-127251185D01*
X165080537Y-127154494D01*
X165139502Y-127044180D01*
X165175812Y-126924482D01*
X165188072Y-126800000D01*
X165188072Y-125309419D01*
X166315000Y-125309419D01*
X166315000Y-125690581D01*
X166389361Y-126064419D01*
X166535225Y-126416566D01*
X166746987Y-126733491D01*
X167016509Y-127003013D01*
X167333434Y-127214775D01*
X167685581Y-127360639D01*
X168059419Y-127435000D01*
X168440581Y-127435000D01*
X168814419Y-127360639D01*
X169166566Y-127214775D01*
X169483491Y-127003013D01*
X169753013Y-126733491D01*
X169964775Y-126416566D01*
X170110639Y-126064419D01*
X170185000Y-125690581D01*
X170185000Y-125309419D01*
X170110639Y-124935581D01*
X169964775Y-124583434D01*
X169753013Y-124266509D01*
X169483491Y-123996987D01*
X169166566Y-123785225D01*
X168814419Y-123639361D01*
X168440581Y-123565000D01*
X168059419Y-123565000D01*
X167685581Y-123639361D01*
X167333434Y-123785225D01*
X167016509Y-123996987D01*
X166746987Y-124266509D01*
X166535225Y-124583434D01*
X166389361Y-124935581D01*
X166315000Y-125309419D01*
X165188072Y-125309419D01*
X165188072Y-124200000D01*
X165175812Y-124075518D01*
X165139502Y-123955820D01*
X165080537Y-123845506D01*
X165001185Y-123748815D01*
X164904494Y-123669463D01*
X164794180Y-123610498D01*
X164674482Y-123574188D01*
X164550000Y-123561928D01*
X161950000Y-123561928D01*
X161825518Y-123574188D01*
X161705820Y-123610498D01*
X161595506Y-123669463D01*
X161498815Y-123748815D01*
X161419463Y-123845506D01*
X161360498Y-123955820D01*
X161324188Y-124075518D01*
X161311928Y-124200000D01*
X154527800Y-124200000D01*
X154362894Y-124149976D01*
X154160000Y-124129993D01*
X153957105Y-124149976D01*
X153762007Y-124209159D01*
X153582203Y-124305266D01*
X153535000Y-124344004D01*
X153487797Y-124305266D01*
X153307992Y-124209159D01*
X153112894Y-124149976D01*
X152910000Y-124129993D01*
X152707105Y-124149976D01*
X152512007Y-124209159D01*
X152332203Y-124305266D01*
X152285000Y-124344004D01*
X152237797Y-124305266D01*
X152057992Y-124209159D01*
X151862894Y-124149976D01*
X151660000Y-124129993D01*
X151457105Y-124149976D01*
X151262007Y-124209159D01*
X151180736Y-124252599D01*
X151166342Y-124240702D01*
X151056234Y-124181354D01*
X150936664Y-124144626D01*
X150816750Y-124135000D01*
X150658000Y-124293750D01*
X150658000Y-124907690D01*
X150639976Y-124967106D01*
X150625000Y-125119163D01*
X150162000Y-125119163D01*
X150162000Y-124293750D01*
X150003250Y-124135000D01*
X149883336Y-124144626D01*
X149763766Y-124181354D01*
X149653658Y-124240702D01*
X149557244Y-124320392D01*
X149478229Y-124417359D01*
X149419650Y-124527878D01*
X149383758Y-124647702D01*
X149371932Y-124772226D01*
X126325140Y-124772226D01*
X126166021Y-124370338D01*
X125875929Y-123240505D01*
X125728332Y-122072146D01*
X125710000Y-121488835D01*
X125710000Y-114198061D01*
X149735000Y-114198061D01*
X149735000Y-114401939D01*
X149774774Y-114601898D01*
X149852795Y-114790256D01*
X149966063Y-114959774D01*
X150110226Y-115103937D01*
X150279744Y-115217205D01*
X150468102Y-115295226D01*
X150668061Y-115335000D01*
X150871939Y-115335000D01*
X151071898Y-115295226D01*
X151260256Y-115217205D01*
X151429774Y-115103937D01*
X151573937Y-114959774D01*
X151575081Y-114958061D01*
X154255000Y-114958061D01*
X154255000Y-115161939D01*
X154294774Y-115361898D01*
X154372795Y-115550256D01*
X154486063Y-115719774D01*
X154630226Y-115863937D01*
X154799744Y-115977205D01*
X154988102Y-116055226D01*
X155172911Y-116091987D01*
X155194774Y-116201898D01*
X155272795Y-116390256D01*
X155386063Y-116559774D01*
X155530226Y-116703937D01*
X155699744Y-116817205D01*
X155888102Y-116895226D01*
X156088061Y-116935000D01*
X156291939Y-116935000D01*
X156491898Y-116895226D01*
X156680256Y-116817205D01*
X156849774Y-116703937D01*
X156993937Y-116559774D01*
X157107205Y-116390256D01*
X157185226Y-116201898D01*
X157225000Y-116001939D01*
X157225000Y-115798061D01*
X157185226Y-115598102D01*
X157107205Y-115409744D01*
X157065990Y-115348061D01*
X160255000Y-115348061D01*
X160255000Y-115551939D01*
X160294774Y-115751898D01*
X160372795Y-115940256D01*
X160486063Y-116109774D01*
X160630226Y-116253937D01*
X160799744Y-116367205D01*
X160988102Y-116445226D01*
X161062377Y-116460000D01*
X160988102Y-116474774D01*
X160799744Y-116552795D01*
X160630226Y-116666063D01*
X160486063Y-116810226D01*
X160372795Y-116979744D01*
X160294774Y-117168102D01*
X160255000Y-117368061D01*
X160255000Y-117571939D01*
X160294774Y-117771898D01*
X160372795Y-117960256D01*
X160486063Y-118129774D01*
X160630226Y-118273937D01*
X160799744Y-118387205D01*
X160988102Y-118465226D01*
X161188061Y-118505000D01*
X161391939Y-118505000D01*
X161591898Y-118465226D01*
X161780256Y-118387205D01*
X161949774Y-118273937D01*
X162093937Y-118129774D01*
X162207205Y-117960256D01*
X162285226Y-117771898D01*
X162325000Y-117571939D01*
X162325000Y-117368061D01*
X162285226Y-117168102D01*
X162207205Y-116979744D01*
X162093937Y-116810226D01*
X161949774Y-116666063D01*
X161780256Y-116552795D01*
X161591898Y-116474774D01*
X161517623Y-116460000D01*
X161591898Y-116445226D01*
X161780256Y-116367205D01*
X161949774Y-116253937D01*
X162093937Y-116109774D01*
X162207205Y-115940256D01*
X162285226Y-115751898D01*
X162325000Y-115551939D01*
X162325000Y-115348061D01*
X162285226Y-115148102D01*
X162207205Y-114959744D01*
X162099173Y-114798061D01*
X162415000Y-114798061D01*
X162415000Y-115001939D01*
X162454774Y-115201898D01*
X162532795Y-115390256D01*
X162646063Y-115559774D01*
X162790226Y-115703937D01*
X162959744Y-115817205D01*
X163148102Y-115895226D01*
X163348061Y-115935000D01*
X163551939Y-115935000D01*
X163751898Y-115895226D01*
X163940256Y-115817205D01*
X164109774Y-115703937D01*
X164253937Y-115559774D01*
X164367205Y-115390256D01*
X164445226Y-115201898D01*
X164485000Y-115001939D01*
X164485000Y-114818061D01*
X164495000Y-114818061D01*
X164495000Y-115021939D01*
X164534774Y-115221898D01*
X164612795Y-115410256D01*
X164726063Y-115579774D01*
X164870226Y-115723937D01*
X165039744Y-115837205D01*
X165228102Y-115915226D01*
X165428061Y-115955000D01*
X165631939Y-115955000D01*
X165831898Y-115915226D01*
X166020256Y-115837205D01*
X166189774Y-115723937D01*
X166333937Y-115579774D01*
X166447205Y-115410256D01*
X166525226Y-115221898D01*
X166565000Y-115021939D01*
X166565000Y-114818061D01*
X166525226Y-114618102D01*
X166447205Y-114429744D01*
X166333937Y-114260226D01*
X166189774Y-114116063D01*
X166020256Y-114002795D01*
X165831898Y-113924774D01*
X165631939Y-113885000D01*
X165428061Y-113885000D01*
X165228102Y-113924774D01*
X165039744Y-114002795D01*
X164870226Y-114116063D01*
X164726063Y-114260226D01*
X164612795Y-114429744D01*
X164534774Y-114618102D01*
X164495000Y-114818061D01*
X164485000Y-114818061D01*
X164485000Y-114798061D01*
X164445226Y-114598102D01*
X164367205Y-114409744D01*
X164253937Y-114240226D01*
X164109774Y-114096063D01*
X163940256Y-113982795D01*
X163751898Y-113904774D01*
X163551939Y-113865000D01*
X163348061Y-113865000D01*
X163148102Y-113904774D01*
X162959744Y-113982795D01*
X162790226Y-114096063D01*
X162646063Y-114240226D01*
X162532795Y-114409744D01*
X162454774Y-114598102D01*
X162415000Y-114798061D01*
X162099173Y-114798061D01*
X162093937Y-114790226D01*
X161949774Y-114646063D01*
X161780256Y-114532795D01*
X161591898Y-114454774D01*
X161391939Y-114415000D01*
X161188061Y-114415000D01*
X160988102Y-114454774D01*
X160799744Y-114532795D01*
X160630226Y-114646063D01*
X160486063Y-114790226D01*
X160372795Y-114959744D01*
X160294774Y-115148102D01*
X160255000Y-115348061D01*
X157065990Y-115348061D01*
X156993937Y-115240226D01*
X156849774Y-115096063D01*
X156680256Y-114982795D01*
X156491898Y-114904774D01*
X156307089Y-114868013D01*
X156285226Y-114758102D01*
X156207205Y-114569744D01*
X156093937Y-114400226D01*
X155949774Y-114256063D01*
X155780256Y-114142795D01*
X155591898Y-114064774D01*
X155391939Y-114025000D01*
X155188061Y-114025000D01*
X154988102Y-114064774D01*
X154799744Y-114142795D01*
X154630226Y-114256063D01*
X154486063Y-114400226D01*
X154372795Y-114569744D01*
X154294774Y-114758102D01*
X154255000Y-114958061D01*
X151575081Y-114958061D01*
X151687205Y-114790256D01*
X151765226Y-114601898D01*
X151805000Y-114401939D01*
X151805000Y-114198061D01*
X151765226Y-113998102D01*
X151687205Y-113809744D01*
X151625945Y-113718061D01*
X168445000Y-113718061D01*
X168445000Y-113921939D01*
X168484774Y-114121898D01*
X168562795Y-114310256D01*
X168676063Y-114479774D01*
X168820226Y-114623937D01*
X168989744Y-114737205D01*
X169178102Y-114815226D01*
X169275000Y-114834500D01*
X169275000Y-114861939D01*
X169314774Y-115061898D01*
X169392795Y-115250256D01*
X169506063Y-115419774D01*
X169650226Y-115563937D01*
X169819744Y-115677205D01*
X170008102Y-115755226D01*
X170208061Y-115795000D01*
X170411939Y-115795000D01*
X170611898Y-115755226D01*
X170800256Y-115677205D01*
X170969774Y-115563937D01*
X171113937Y-115419774D01*
X171227205Y-115250256D01*
X171305226Y-115061898D01*
X171345000Y-114861939D01*
X171345000Y-114658061D01*
X171305226Y-114458102D01*
X171227205Y-114269744D01*
X171113937Y-114100226D01*
X170969774Y-113956063D01*
X170800256Y-113842795D01*
X170611898Y-113764774D01*
X170515000Y-113745500D01*
X170515000Y-113718061D01*
X170475226Y-113518102D01*
X170397205Y-113329744D01*
X170283937Y-113160226D01*
X170139774Y-113016063D01*
X169970256Y-112902795D01*
X169781898Y-112824774D01*
X169581939Y-112785000D01*
X169378061Y-112785000D01*
X169178102Y-112824774D01*
X168989744Y-112902795D01*
X168820226Y-113016063D01*
X168676063Y-113160226D01*
X168562795Y-113329744D01*
X168484774Y-113518102D01*
X168445000Y-113718061D01*
X151625945Y-113718061D01*
X151573937Y-113640226D01*
X151429774Y-113496063D01*
X151260256Y-113382795D01*
X151071898Y-113304774D01*
X150871939Y-113265000D01*
X150668061Y-113265000D01*
X150468102Y-113304774D01*
X150279744Y-113382795D01*
X150110226Y-113496063D01*
X149966063Y-113640226D01*
X149852795Y-113809744D01*
X149774774Y-113998102D01*
X149735000Y-114198061D01*
X125710000Y-114198061D01*
X125710000Y-111128061D01*
X135625000Y-111128061D01*
X135625000Y-111331939D01*
X135664774Y-111531898D01*
X135742795Y-111720256D01*
X135856063Y-111889774D01*
X136000226Y-112033937D01*
X136169744Y-112147205D01*
X136358102Y-112225226D01*
X136427749Y-112239079D01*
X136502795Y-112420256D01*
X136616063Y-112589774D01*
X136760226Y-112733937D01*
X136929744Y-112847205D01*
X137118102Y-112925226D01*
X137318061Y-112965000D01*
X137521939Y-112965000D01*
X137721898Y-112925226D01*
X137910256Y-112847205D01*
X138079774Y-112733937D01*
X138223937Y-112589774D01*
X138337205Y-112420256D01*
X138415226Y-112231898D01*
X138455000Y-112031939D01*
X138455000Y-111828061D01*
X138415226Y-111628102D01*
X138337205Y-111439744D01*
X138223937Y-111270226D01*
X138079774Y-111126063D01*
X137910256Y-111012795D01*
X137721898Y-110934774D01*
X137652251Y-110920921D01*
X137577205Y-110739744D01*
X137463937Y-110570226D01*
X137319774Y-110426063D01*
X137150256Y-110312795D01*
X136961898Y-110234774D01*
X136761939Y-110195000D01*
X136558061Y-110195000D01*
X136358102Y-110234774D01*
X136169744Y-110312795D01*
X136000226Y-110426063D01*
X135856063Y-110570226D01*
X135742795Y-110739744D01*
X135664774Y-110928102D01*
X135625000Y-111128061D01*
X125710000Y-111128061D01*
X125710000Y-108648061D01*
X129965000Y-108648061D01*
X129965000Y-108851939D01*
X130004774Y-109051898D01*
X130082795Y-109240256D01*
X130196063Y-109409774D01*
X130340226Y-109553937D01*
X130509744Y-109667205D01*
X130698102Y-109745226D01*
X130898061Y-109785000D01*
X131101939Y-109785000D01*
X131301898Y-109745226D01*
X131490256Y-109667205D01*
X131659774Y-109553937D01*
X131803937Y-109409774D01*
X131917205Y-109240256D01*
X131995226Y-109051898D01*
X132035000Y-108851939D01*
X132035000Y-108648061D01*
X134965000Y-108648061D01*
X134965000Y-108851939D01*
X135004774Y-109051898D01*
X135082795Y-109240256D01*
X135196063Y-109409774D01*
X135340226Y-109553937D01*
X135509744Y-109667205D01*
X135698102Y-109745226D01*
X135898061Y-109785000D01*
X136101939Y-109785000D01*
X136301898Y-109745226D01*
X136490256Y-109667205D01*
X136659774Y-109553937D01*
X136735650Y-109478061D01*
X139775000Y-109478061D01*
X139775000Y-109681939D01*
X139814774Y-109881898D01*
X139892795Y-110070256D01*
X140006063Y-110239774D01*
X140150226Y-110383937D01*
X140319744Y-110497205D01*
X140415000Y-110536662D01*
X140415000Y-110601939D01*
X140454774Y-110801898D01*
X140532795Y-110990256D01*
X140646063Y-111159774D01*
X140790226Y-111303937D01*
X140959744Y-111417205D01*
X141148102Y-111495226D01*
X141348061Y-111535000D01*
X141551939Y-111535000D01*
X141751898Y-111495226D01*
X141940256Y-111417205D01*
X142109774Y-111303937D01*
X142253937Y-111159774D01*
X142367205Y-110990256D01*
X142445226Y-110801898D01*
X142485000Y-110601939D01*
X142485000Y-110598061D01*
X149365000Y-110598061D01*
X149365000Y-110801939D01*
X149404774Y-111001898D01*
X149482795Y-111190256D01*
X149596063Y-111359774D01*
X149740226Y-111503937D01*
X149909744Y-111617205D01*
X150098102Y-111695226D01*
X150298061Y-111735000D01*
X150501939Y-111735000D01*
X150701898Y-111695226D01*
X150890256Y-111617205D01*
X151059774Y-111503937D01*
X151203937Y-111359774D01*
X151317205Y-111190256D01*
X151395226Y-111001898D01*
X151429092Y-110831643D01*
X151561898Y-110805226D01*
X151750256Y-110727205D01*
X151919774Y-110613937D01*
X152063937Y-110469774D01*
X152177205Y-110300256D01*
X152198825Y-110248061D01*
X157965000Y-110248061D01*
X157965000Y-110451939D01*
X158004774Y-110651898D01*
X158082795Y-110840256D01*
X158196063Y-111009774D01*
X158340226Y-111153937D01*
X158509744Y-111267205D01*
X158698102Y-111345226D01*
X158898061Y-111385000D01*
X159101939Y-111385000D01*
X159301898Y-111345226D01*
X159490256Y-111267205D01*
X159659774Y-111153937D01*
X159803937Y-111009774D01*
X159917205Y-110840256D01*
X159995226Y-110651898D01*
X160035000Y-110451939D01*
X160035000Y-110248061D01*
X159995226Y-110048102D01*
X159917205Y-109859744D01*
X159803937Y-109690226D01*
X159659774Y-109546063D01*
X159490256Y-109432795D01*
X159301898Y-109354774D01*
X159101939Y-109315000D01*
X158898061Y-109315000D01*
X158698102Y-109354774D01*
X158509744Y-109432795D01*
X158340226Y-109546063D01*
X158196063Y-109690226D01*
X158082795Y-109859744D01*
X158004774Y-110048102D01*
X157965000Y-110248061D01*
X152198825Y-110248061D01*
X152255226Y-110111898D01*
X152295000Y-109911939D01*
X152295000Y-109708061D01*
X152255226Y-109508102D01*
X152177205Y-109319744D01*
X152063937Y-109150226D01*
X151919774Y-109006063D01*
X151750256Y-108892795D01*
X151561898Y-108814774D01*
X151361939Y-108775000D01*
X151158061Y-108775000D01*
X150958102Y-108814774D01*
X150769744Y-108892795D01*
X150600226Y-109006063D01*
X150456063Y-109150226D01*
X150342795Y-109319744D01*
X150264774Y-109508102D01*
X150230908Y-109678357D01*
X150098102Y-109704774D01*
X149909744Y-109782795D01*
X149740226Y-109896063D01*
X149596063Y-110040226D01*
X149482795Y-110209744D01*
X149404774Y-110398102D01*
X149365000Y-110598061D01*
X142485000Y-110598061D01*
X142485000Y-110398061D01*
X142445226Y-110198102D01*
X142367205Y-110009744D01*
X142253937Y-109840226D01*
X142109774Y-109696063D01*
X141940256Y-109582795D01*
X141845000Y-109543338D01*
X141845000Y-109478061D01*
X141805226Y-109278102D01*
X141727205Y-109089744D01*
X141613937Y-108920226D01*
X141469774Y-108776063D01*
X141300256Y-108662795D01*
X141111898Y-108584774D01*
X140911939Y-108545000D01*
X140708061Y-108545000D01*
X140508102Y-108584774D01*
X140319744Y-108662795D01*
X140150226Y-108776063D01*
X140006063Y-108920226D01*
X139892795Y-109089744D01*
X139814774Y-109278102D01*
X139775000Y-109478061D01*
X136735650Y-109478061D01*
X136803937Y-109409774D01*
X136917205Y-109240256D01*
X136995226Y-109051898D01*
X137035000Y-108851939D01*
X137035000Y-108648061D01*
X136995226Y-108448102D01*
X136917205Y-108259744D01*
X136803937Y-108090226D01*
X136659774Y-107946063D01*
X136490256Y-107832795D01*
X136301898Y-107754774D01*
X136101939Y-107715000D01*
X135898061Y-107715000D01*
X135698102Y-107754774D01*
X135509744Y-107832795D01*
X135340226Y-107946063D01*
X135196063Y-108090226D01*
X135082795Y-108259744D01*
X135004774Y-108448102D01*
X134965000Y-108648061D01*
X132035000Y-108648061D01*
X131995226Y-108448102D01*
X131917205Y-108259744D01*
X131803937Y-108090226D01*
X131659774Y-107946063D01*
X131490256Y-107832795D01*
X131301898Y-107754774D01*
X131101939Y-107715000D01*
X130898061Y-107715000D01*
X130698102Y-107754774D01*
X130509744Y-107832795D01*
X130340226Y-107946063D01*
X130196063Y-108090226D01*
X130082795Y-108259744D01*
X130004774Y-108448102D01*
X129965000Y-108648061D01*
X125710000Y-108648061D01*
X125710000Y-106588061D01*
X150705000Y-106588061D01*
X150705000Y-106791939D01*
X150744774Y-106991898D01*
X150822795Y-107180256D01*
X150936063Y-107349774D01*
X151080226Y-107493937D01*
X151249744Y-107607205D01*
X151438102Y-107685226D01*
X151449937Y-107687580D01*
X151454774Y-107711898D01*
X151532795Y-107900256D01*
X151646063Y-108069774D01*
X151790226Y-108213937D01*
X151959744Y-108327205D01*
X152148102Y-108405226D01*
X152348061Y-108445000D01*
X152551939Y-108445000D01*
X152751898Y-108405226D01*
X152940256Y-108327205D01*
X153109774Y-108213937D01*
X153253937Y-108069774D01*
X153367205Y-107900256D01*
X153445226Y-107711898D01*
X153485000Y-107511939D01*
X153485000Y-107308061D01*
X153445226Y-107108102D01*
X153367205Y-106919744D01*
X153253937Y-106750226D01*
X153109774Y-106606063D01*
X152940256Y-106492795D01*
X152751898Y-106414774D01*
X152740063Y-106412420D01*
X152735226Y-106388102D01*
X152657205Y-106199744D01*
X152543937Y-106030226D01*
X152399774Y-105886063D01*
X152230256Y-105772795D01*
X152041898Y-105694774D01*
X151841939Y-105655000D01*
X151638061Y-105655000D01*
X151438102Y-105694774D01*
X151249744Y-105772795D01*
X151080226Y-105886063D01*
X150936063Y-106030226D01*
X150822795Y-106199744D01*
X150744774Y-106388102D01*
X150705000Y-106588061D01*
X125710000Y-106588061D01*
X125710000Y-104728061D01*
X157485000Y-104728061D01*
X157485000Y-104931939D01*
X157524774Y-105131898D01*
X157602795Y-105320256D01*
X157716063Y-105489774D01*
X157860226Y-105633937D01*
X158029744Y-105747205D01*
X158218102Y-105825226D01*
X158418061Y-105865000D01*
X158621939Y-105865000D01*
X158821898Y-105825226D01*
X159010256Y-105747205D01*
X159179774Y-105633937D01*
X159323937Y-105489774D01*
X159437205Y-105320256D01*
X159515226Y-105131898D01*
X159555000Y-104931939D01*
X159555000Y-104728061D01*
X159515226Y-104528102D01*
X159437205Y-104339744D01*
X159323937Y-104170226D01*
X159179774Y-104026063D01*
X159010256Y-103912795D01*
X158821898Y-103834774D01*
X158621939Y-103795000D01*
X158418061Y-103795000D01*
X158218102Y-103834774D01*
X158029744Y-103912795D01*
X157860226Y-104026063D01*
X157716063Y-104170226D01*
X157602795Y-104339744D01*
X157524774Y-104528102D01*
X157485000Y-104728061D01*
X125710000Y-104728061D01*
X125710000Y-101858061D01*
X135075000Y-101858061D01*
X135075000Y-102061939D01*
X135114774Y-102261898D01*
X135192795Y-102450256D01*
X135306063Y-102619774D01*
X135450226Y-102763937D01*
X135619744Y-102877205D01*
X135808102Y-102955226D01*
X136008061Y-102995000D01*
X136211939Y-102995000D01*
X136411898Y-102955226D01*
X136600256Y-102877205D01*
X136740072Y-102783783D01*
X136740226Y-102783937D01*
X136909744Y-102897205D01*
X137098102Y-102975226D01*
X137298061Y-103015000D01*
X137501939Y-103015000D01*
X137701898Y-102975226D01*
X137890256Y-102897205D01*
X138059774Y-102783937D01*
X138203937Y-102639774D01*
X138317205Y-102470256D01*
X138395226Y-102281898D01*
X138435000Y-102081939D01*
X138435000Y-102058061D01*
X157495000Y-102058061D01*
X157495000Y-102261939D01*
X157534774Y-102461898D01*
X157612795Y-102650256D01*
X157726063Y-102819774D01*
X157870226Y-102963937D01*
X158039744Y-103077205D01*
X158228102Y-103155226D01*
X158428061Y-103195000D01*
X158631939Y-103195000D01*
X158831898Y-103155226D01*
X159020256Y-103077205D01*
X159189774Y-102963937D01*
X159333937Y-102819774D01*
X159447205Y-102650256D01*
X159525226Y-102461898D01*
X159565000Y-102261939D01*
X159565000Y-102058061D01*
X159543120Y-101948061D01*
X162140000Y-101948061D01*
X162140000Y-102151939D01*
X162179774Y-102351898D01*
X162257795Y-102540256D01*
X162371063Y-102709774D01*
X162515226Y-102853937D01*
X162684744Y-102967205D01*
X162873102Y-103045226D01*
X163073061Y-103085000D01*
X163276939Y-103085000D01*
X163476898Y-103045226D01*
X163665256Y-102967205D01*
X163834774Y-102853937D01*
X163978937Y-102709774D01*
X164092205Y-102540256D01*
X164170226Y-102351898D01*
X164210000Y-102151939D01*
X164210000Y-101948061D01*
X164170226Y-101748102D01*
X164092205Y-101559744D01*
X163978937Y-101390226D01*
X163834774Y-101246063D01*
X163665256Y-101132795D01*
X163476898Y-101054774D01*
X163276939Y-101015000D01*
X163073061Y-101015000D01*
X162873102Y-101054774D01*
X162684744Y-101132795D01*
X162515226Y-101246063D01*
X162371063Y-101390226D01*
X162257795Y-101559744D01*
X162179774Y-101748102D01*
X162140000Y-101948061D01*
X159543120Y-101948061D01*
X159525226Y-101858102D01*
X159447205Y-101669744D01*
X159333937Y-101500226D01*
X159189774Y-101356063D01*
X159020256Y-101242795D01*
X158831898Y-101164774D01*
X158631939Y-101125000D01*
X158428061Y-101125000D01*
X158228102Y-101164774D01*
X158039744Y-101242795D01*
X157870226Y-101356063D01*
X157726063Y-101500226D01*
X157612795Y-101669744D01*
X157534774Y-101858102D01*
X157495000Y-102058061D01*
X138435000Y-102058061D01*
X138435000Y-101878061D01*
X138395226Y-101678102D01*
X138317205Y-101489744D01*
X138203937Y-101320226D01*
X138059774Y-101176063D01*
X137890256Y-101062795D01*
X137701898Y-100984774D01*
X137501939Y-100945000D01*
X137298061Y-100945000D01*
X137098102Y-100984774D01*
X136909744Y-101062795D01*
X136769928Y-101156217D01*
X136769774Y-101156063D01*
X136600256Y-101042795D01*
X136411898Y-100964774D01*
X136211939Y-100925000D01*
X136008061Y-100925000D01*
X135808102Y-100964774D01*
X135619744Y-101042795D01*
X135450226Y-101156063D01*
X135306063Y-101300226D01*
X135192795Y-101469744D01*
X135114774Y-101658102D01*
X135075000Y-101858061D01*
X125710000Y-101858061D01*
X125710000Y-100598061D01*
X130645000Y-100598061D01*
X130645000Y-100801939D01*
X130684774Y-101001898D01*
X130762795Y-101190256D01*
X130876063Y-101359774D01*
X131020226Y-101503937D01*
X131189744Y-101617205D01*
X131378102Y-101695226D01*
X131578061Y-101735000D01*
X131781939Y-101735000D01*
X131981898Y-101695226D01*
X132170256Y-101617205D01*
X132339774Y-101503937D01*
X132483937Y-101359774D01*
X132597205Y-101190256D01*
X132675226Y-101001898D01*
X132715000Y-100801939D01*
X132715000Y-100598061D01*
X132675226Y-100398102D01*
X132597205Y-100209744D01*
X132483937Y-100040226D01*
X132339774Y-99896063D01*
X132170256Y-99782795D01*
X131981898Y-99704774D01*
X131781939Y-99665000D01*
X131578061Y-99665000D01*
X131378102Y-99704774D01*
X131189744Y-99782795D01*
X131020226Y-99896063D01*
X130876063Y-100040226D01*
X130762795Y-100209744D01*
X130684774Y-100398102D01*
X130645000Y-100598061D01*
X125710000Y-100598061D01*
X125710000Y-98398061D01*
X145965000Y-98398061D01*
X145965000Y-98601939D01*
X146004774Y-98801898D01*
X146082795Y-98990256D01*
X146196063Y-99159774D01*
X146340226Y-99303937D01*
X146509744Y-99417205D01*
X146698102Y-99495226D01*
X146898061Y-99535000D01*
X147101939Y-99535000D01*
X147301898Y-99495226D01*
X147490256Y-99417205D01*
X147659774Y-99303937D01*
X147715650Y-99248061D01*
X162140000Y-99248061D01*
X162140000Y-99451939D01*
X162179774Y-99651898D01*
X162257795Y-99840256D01*
X162371063Y-100009774D01*
X162515226Y-100153937D01*
X162684744Y-100267205D01*
X162873102Y-100345226D01*
X163073061Y-100385000D01*
X163276939Y-100385000D01*
X163476898Y-100345226D01*
X163665256Y-100267205D01*
X163834774Y-100153937D01*
X163978937Y-100009774D01*
X164092205Y-99840256D01*
X164170226Y-99651898D01*
X164210000Y-99451939D01*
X164210000Y-99248061D01*
X164170226Y-99048102D01*
X164092205Y-98859744D01*
X163978937Y-98690226D01*
X163834774Y-98546063D01*
X163665256Y-98432795D01*
X163476898Y-98354774D01*
X163276939Y-98315000D01*
X163073061Y-98315000D01*
X162873102Y-98354774D01*
X162684744Y-98432795D01*
X162515226Y-98546063D01*
X162371063Y-98690226D01*
X162257795Y-98859744D01*
X162179774Y-99048102D01*
X162140000Y-99248061D01*
X147715650Y-99248061D01*
X147803937Y-99159774D01*
X147917205Y-98990256D01*
X147995226Y-98801898D01*
X148035000Y-98601939D01*
X148035000Y-98398061D01*
X147995226Y-98198102D01*
X147917205Y-98009744D01*
X147803937Y-97840226D01*
X147659774Y-97696063D01*
X147490256Y-97582795D01*
X147301898Y-97504774D01*
X147101939Y-97465000D01*
X146898061Y-97465000D01*
X146698102Y-97504774D01*
X146509744Y-97582795D01*
X146340226Y-97696063D01*
X146196063Y-97840226D01*
X146082795Y-98009744D01*
X146004774Y-98198102D01*
X145965000Y-98398061D01*
X125710000Y-98398061D01*
X125710000Y-96938061D01*
X133945000Y-96938061D01*
X133945000Y-97141939D01*
X133984774Y-97341898D01*
X134062795Y-97530256D01*
X134176063Y-97699774D01*
X134320226Y-97843937D01*
X134489744Y-97957205D01*
X134678102Y-98035226D01*
X134878061Y-98075000D01*
X135081939Y-98075000D01*
X135281898Y-98035226D01*
X135470256Y-97957205D01*
X135639774Y-97843937D01*
X135783937Y-97699774D01*
X135897205Y-97530256D01*
X135975226Y-97341898D01*
X136015000Y-97141939D01*
X136015000Y-96938061D01*
X135975226Y-96738102D01*
X135897205Y-96549744D01*
X135783937Y-96380226D01*
X135639774Y-96236063D01*
X135470256Y-96122795D01*
X135281898Y-96044774D01*
X135081939Y-96005000D01*
X134878061Y-96005000D01*
X134678102Y-96044774D01*
X134489744Y-96122795D01*
X134320226Y-96236063D01*
X134176063Y-96380226D01*
X134062795Y-96549744D01*
X133984774Y-96738102D01*
X133945000Y-96938061D01*
X125710000Y-96938061D01*
X125710000Y-93378061D01*
X136775000Y-93378061D01*
X136775000Y-93581939D01*
X136814774Y-93781898D01*
X136892795Y-93970256D01*
X137006063Y-94139774D01*
X137150226Y-94283937D01*
X137319744Y-94397205D01*
X137337255Y-94404458D01*
X137170226Y-94516063D01*
X137026063Y-94660226D01*
X136912795Y-94829744D01*
X136834774Y-95018102D01*
X136795000Y-95218061D01*
X136795000Y-95421939D01*
X136834774Y-95621898D01*
X136912795Y-95810256D01*
X137026063Y-95979774D01*
X137170226Y-96123937D01*
X137339744Y-96237205D01*
X137528102Y-96315226D01*
X137728061Y-96355000D01*
X137931939Y-96355000D01*
X138131898Y-96315226D01*
X138320256Y-96237205D01*
X138489774Y-96123937D01*
X138633937Y-95979774D01*
X138747205Y-95810256D01*
X138825226Y-95621898D01*
X138865000Y-95421939D01*
X138865000Y-95248061D01*
X151965000Y-95248061D01*
X151965000Y-95451939D01*
X152004774Y-95651898D01*
X152082795Y-95840256D01*
X152196063Y-96009774D01*
X152340226Y-96153937D01*
X152509744Y-96267205D01*
X152698102Y-96345226D01*
X152891196Y-96383634D01*
X152904774Y-96451898D01*
X152982795Y-96640256D01*
X153096063Y-96809774D01*
X153240226Y-96953937D01*
X153409744Y-97067205D01*
X153598102Y-97145226D01*
X153798061Y-97185000D01*
X154001939Y-97185000D01*
X154201898Y-97145226D01*
X154390256Y-97067205D01*
X154559774Y-96953937D01*
X154703937Y-96809774D01*
X154817205Y-96640256D01*
X154895226Y-96451898D01*
X154935000Y-96251939D01*
X154935000Y-96048061D01*
X154895226Y-95848102D01*
X154817205Y-95659744D01*
X154703937Y-95490226D01*
X154559774Y-95346063D01*
X154390256Y-95232795D01*
X154201898Y-95154774D01*
X154008804Y-95116366D01*
X153995226Y-95048102D01*
X153917205Y-94859744D01*
X153803937Y-94690226D01*
X153659774Y-94546063D01*
X153490256Y-94432795D01*
X153301898Y-94354774D01*
X153101939Y-94315000D01*
X152898061Y-94315000D01*
X152698102Y-94354774D01*
X152509744Y-94432795D01*
X152340226Y-94546063D01*
X152196063Y-94690226D01*
X152082795Y-94859744D01*
X152004774Y-95048102D01*
X151965000Y-95248061D01*
X138865000Y-95248061D01*
X138865000Y-95218061D01*
X138825226Y-95018102D01*
X138747205Y-94829744D01*
X138633937Y-94660226D01*
X138489774Y-94516063D01*
X138320256Y-94402795D01*
X138302745Y-94395542D01*
X138469774Y-94283937D01*
X138613937Y-94139774D01*
X138727205Y-93970256D01*
X138805226Y-93781898D01*
X138845000Y-93581939D01*
X138845000Y-93378061D01*
X138829088Y-93298061D01*
X140815000Y-93298061D01*
X140815000Y-93501939D01*
X140854774Y-93701898D01*
X140932795Y-93890256D01*
X141046063Y-94059774D01*
X141190226Y-94203937D01*
X141359744Y-94317205D01*
X141548102Y-94395226D01*
X141748061Y-94435000D01*
X141951939Y-94435000D01*
X142151898Y-94395226D01*
X142340256Y-94317205D01*
X142509774Y-94203937D01*
X142653937Y-94059774D01*
X142767205Y-93890256D01*
X142845226Y-93701898D01*
X142885000Y-93501939D01*
X142885000Y-93398061D01*
X145965000Y-93398061D01*
X145965000Y-93601939D01*
X146004774Y-93801898D01*
X146082795Y-93990256D01*
X146196063Y-94159774D01*
X146340226Y-94303937D01*
X146509744Y-94417205D01*
X146698102Y-94495226D01*
X146898061Y-94535000D01*
X147101939Y-94535000D01*
X147301898Y-94495226D01*
X147490256Y-94417205D01*
X147659774Y-94303937D01*
X147705650Y-94258061D01*
X168515000Y-94258061D01*
X168515000Y-94461939D01*
X168554774Y-94661898D01*
X168632795Y-94850256D01*
X168746063Y-95019774D01*
X168890226Y-95163937D01*
X169059744Y-95277205D01*
X169248102Y-95355226D01*
X169448061Y-95395000D01*
X169651939Y-95395000D01*
X169851898Y-95355226D01*
X170040256Y-95277205D01*
X170209774Y-95163937D01*
X170353937Y-95019774D01*
X170467205Y-94850256D01*
X170545226Y-94661898D01*
X170585000Y-94461939D01*
X170585000Y-94258061D01*
X170545226Y-94058102D01*
X170467205Y-93869744D01*
X170353937Y-93700226D01*
X170209774Y-93556063D01*
X170040256Y-93442795D01*
X169851898Y-93364774D01*
X169651939Y-93325000D01*
X169448061Y-93325000D01*
X169248102Y-93364774D01*
X169059744Y-93442795D01*
X168890226Y-93556063D01*
X168746063Y-93700226D01*
X168632795Y-93869744D01*
X168554774Y-94058102D01*
X168515000Y-94258061D01*
X147705650Y-94258061D01*
X147803937Y-94159774D01*
X147917205Y-93990256D01*
X147995226Y-93801898D01*
X148035000Y-93601939D01*
X148035000Y-93398061D01*
X147995226Y-93198102D01*
X147917205Y-93009744D01*
X147803937Y-92840226D01*
X147659774Y-92696063D01*
X147490256Y-92582795D01*
X147301898Y-92504774D01*
X147101939Y-92465000D01*
X146898061Y-92465000D01*
X146698102Y-92504774D01*
X146509744Y-92582795D01*
X146340226Y-92696063D01*
X146196063Y-92840226D01*
X146082795Y-93009744D01*
X146004774Y-93198102D01*
X145965000Y-93398061D01*
X142885000Y-93398061D01*
X142885000Y-93298061D01*
X142845226Y-93098102D01*
X142767205Y-92909744D01*
X142653937Y-92740226D01*
X142509774Y-92596063D01*
X142340256Y-92482795D01*
X142151898Y-92404774D01*
X141951939Y-92365000D01*
X141748061Y-92365000D01*
X141548102Y-92404774D01*
X141359744Y-92482795D01*
X141190226Y-92596063D01*
X141046063Y-92740226D01*
X140932795Y-92909744D01*
X140854774Y-93098102D01*
X140815000Y-93298061D01*
X138829088Y-93298061D01*
X138805226Y-93178102D01*
X138727205Y-92989744D01*
X138613937Y-92820226D01*
X138469774Y-92676063D01*
X138300256Y-92562795D01*
X138111898Y-92484774D01*
X137911939Y-92445000D01*
X137708061Y-92445000D01*
X137508102Y-92484774D01*
X137319744Y-92562795D01*
X137150226Y-92676063D01*
X137006063Y-92820226D01*
X136892795Y-92989744D01*
X136814774Y-93178102D01*
X136775000Y-93378061D01*
X125710000Y-93378061D01*
X125710000Y-89498061D01*
X132295000Y-89498061D01*
X132295000Y-89701939D01*
X132334774Y-89901898D01*
X132412795Y-90090256D01*
X132526063Y-90259774D01*
X132670226Y-90403937D01*
X132839744Y-90517205D01*
X133028102Y-90595226D01*
X133185931Y-90626620D01*
X133224774Y-90821898D01*
X133302795Y-91010256D01*
X133416063Y-91179774D01*
X133560226Y-91323937D01*
X133729744Y-91437205D01*
X133918102Y-91515226D01*
X134118061Y-91555000D01*
X134321939Y-91555000D01*
X134521898Y-91515226D01*
X134563337Y-91498061D01*
X142365000Y-91498061D01*
X142365000Y-91701939D01*
X142404774Y-91901898D01*
X142482795Y-92090256D01*
X142596063Y-92259774D01*
X142740226Y-92403937D01*
X142909744Y-92517205D01*
X143098102Y-92595226D01*
X143298061Y-92635000D01*
X143501939Y-92635000D01*
X143701898Y-92595226D01*
X143890256Y-92517205D01*
X144059774Y-92403937D01*
X144203937Y-92259774D01*
X144317205Y-92090256D01*
X144395226Y-91901898D01*
X144435000Y-91701939D01*
X144435000Y-91498061D01*
X144395226Y-91298102D01*
X144317205Y-91109744D01*
X144203937Y-90940226D01*
X144059774Y-90796063D01*
X143890256Y-90682795D01*
X143701898Y-90604774D01*
X143501939Y-90565000D01*
X143298061Y-90565000D01*
X143098102Y-90604774D01*
X142909744Y-90682795D01*
X142740226Y-90796063D01*
X142596063Y-90940226D01*
X142482795Y-91109744D01*
X142404774Y-91298102D01*
X142365000Y-91498061D01*
X134563337Y-91498061D01*
X134710256Y-91437205D01*
X134879774Y-91323937D01*
X135023937Y-91179774D01*
X135137205Y-91010256D01*
X135215226Y-90821898D01*
X135255000Y-90621939D01*
X135255000Y-90418061D01*
X135215226Y-90218102D01*
X135137205Y-90029744D01*
X135049218Y-89898061D01*
X143765000Y-89898061D01*
X143765000Y-90101939D01*
X143804774Y-90301898D01*
X143882795Y-90490256D01*
X143996063Y-90659774D01*
X144140226Y-90803937D01*
X144309744Y-90917205D01*
X144498102Y-90995226D01*
X144698061Y-91035000D01*
X144901939Y-91035000D01*
X145101898Y-90995226D01*
X145290256Y-90917205D01*
X145459774Y-90803937D01*
X145603937Y-90659774D01*
X145717205Y-90490256D01*
X145795226Y-90301898D01*
X145835000Y-90101939D01*
X145835000Y-89898061D01*
X145795226Y-89698102D01*
X145717205Y-89509744D01*
X145603937Y-89340226D01*
X145459774Y-89196063D01*
X145290256Y-89082795D01*
X145101898Y-89004774D01*
X144901939Y-88965000D01*
X144698061Y-88965000D01*
X144498102Y-89004774D01*
X144309744Y-89082795D01*
X144140226Y-89196063D01*
X143996063Y-89340226D01*
X143882795Y-89509744D01*
X143804774Y-89698102D01*
X143765000Y-89898061D01*
X135049218Y-89898061D01*
X135023937Y-89860226D01*
X134879774Y-89716063D01*
X134710256Y-89602795D01*
X134521898Y-89524774D01*
X134364069Y-89493380D01*
X134325226Y-89298102D01*
X134247205Y-89109744D01*
X134133937Y-88940226D01*
X133989774Y-88796063D01*
X133820256Y-88682795D01*
X133631898Y-88604774D01*
X133431939Y-88565000D01*
X133228061Y-88565000D01*
X133028102Y-88604774D01*
X132839744Y-88682795D01*
X132670226Y-88796063D01*
X132526063Y-88940226D01*
X132412795Y-89109744D01*
X132334774Y-89298102D01*
X132295000Y-89498061D01*
X125710000Y-89498061D01*
X125710000Y-87522313D01*
X125784647Y-86335830D01*
X125849079Y-85998061D01*
X130815000Y-85998061D01*
X130815000Y-86201939D01*
X130854774Y-86401898D01*
X130932795Y-86590256D01*
X131046063Y-86759774D01*
X131190226Y-86903937D01*
X131359744Y-87017205D01*
X131548102Y-87095226D01*
X131611365Y-87107810D01*
X131682795Y-87280256D01*
X131796063Y-87449774D01*
X131940226Y-87593937D01*
X132109744Y-87707205D01*
X132298102Y-87785226D01*
X132498061Y-87825000D01*
X132701939Y-87825000D01*
X132901898Y-87785226D01*
X133090256Y-87707205D01*
X133259774Y-87593937D01*
X133403937Y-87449774D01*
X133517205Y-87280256D01*
X133595226Y-87091898D01*
X133631793Y-86908061D01*
X138315000Y-86908061D01*
X138315000Y-87111939D01*
X138354774Y-87311898D01*
X138432795Y-87500256D01*
X138546063Y-87669774D01*
X138690226Y-87813937D01*
X138859744Y-87927205D01*
X139048102Y-88005226D01*
X139248061Y-88045000D01*
X139451939Y-88045000D01*
X139651898Y-88005226D01*
X139840256Y-87927205D01*
X140009774Y-87813937D01*
X140153937Y-87669774D01*
X140267205Y-87500256D01*
X140345226Y-87311898D01*
X140385000Y-87111939D01*
X140385000Y-87088061D01*
X147715000Y-87088061D01*
X147715000Y-87291939D01*
X147754774Y-87491898D01*
X147832795Y-87680256D01*
X147946063Y-87849774D01*
X148090226Y-87993937D01*
X148259744Y-88107205D01*
X148448102Y-88185226D01*
X148648061Y-88225000D01*
X148851939Y-88225000D01*
X149051898Y-88185226D01*
X149240256Y-88107205D01*
X149409774Y-87993937D01*
X149553937Y-87849774D01*
X149667205Y-87680256D01*
X149745226Y-87491898D01*
X149785000Y-87291939D01*
X149785000Y-87088061D01*
X149745226Y-86888102D01*
X149667205Y-86699744D01*
X149553937Y-86530226D01*
X149409774Y-86386063D01*
X149240256Y-86272795D01*
X149051898Y-86194774D01*
X148851939Y-86155000D01*
X148648061Y-86155000D01*
X148448102Y-86194774D01*
X148259744Y-86272795D01*
X148090226Y-86386063D01*
X147946063Y-86530226D01*
X147832795Y-86699744D01*
X147754774Y-86888102D01*
X147715000Y-87088061D01*
X140385000Y-87088061D01*
X140385000Y-86908061D01*
X140345226Y-86708102D01*
X140267205Y-86519744D01*
X140153937Y-86350226D01*
X140009774Y-86206063D01*
X139840256Y-86092795D01*
X139651898Y-86014774D01*
X139451939Y-85975000D01*
X139248061Y-85975000D01*
X139048102Y-86014774D01*
X138859744Y-86092795D01*
X138690226Y-86206063D01*
X138546063Y-86350226D01*
X138432795Y-86519744D01*
X138354774Y-86708102D01*
X138315000Y-86908061D01*
X133631793Y-86908061D01*
X133635000Y-86891939D01*
X133635000Y-86688061D01*
X133595226Y-86488102D01*
X133517205Y-86299744D01*
X133403937Y-86130226D01*
X133259774Y-85986063D01*
X133090256Y-85872795D01*
X132901898Y-85794774D01*
X132838635Y-85782190D01*
X132767205Y-85609744D01*
X132653937Y-85440226D01*
X132509774Y-85296063D01*
X132340256Y-85182795D01*
X132151898Y-85104774D01*
X131951939Y-85065000D01*
X131748061Y-85065000D01*
X131548102Y-85104774D01*
X131359744Y-85182795D01*
X131190226Y-85296063D01*
X131046063Y-85440226D01*
X130932795Y-85609744D01*
X130854774Y-85798102D01*
X130815000Y-85998061D01*
X125849079Y-85998061D01*
X126003222Y-85190019D01*
X126363682Y-84080638D01*
X126860339Y-83025187D01*
X127480442Y-82048061D01*
X133245000Y-82048061D01*
X133245000Y-82251939D01*
X133284774Y-82451898D01*
X133362795Y-82640256D01*
X133476063Y-82809774D01*
X133620226Y-82953937D01*
X133789744Y-83067205D01*
X133978102Y-83145226D01*
X134178061Y-83185000D01*
X134381939Y-83185000D01*
X134581898Y-83145226D01*
X134770256Y-83067205D01*
X134939774Y-82953937D01*
X135083937Y-82809774D01*
X135197205Y-82640256D01*
X135275226Y-82451898D01*
X135315000Y-82251939D01*
X135315000Y-82048061D01*
X135275226Y-81848102D01*
X135197205Y-81659744D01*
X135083937Y-81490226D01*
X134939774Y-81346063D01*
X134770256Y-81232795D01*
X134581898Y-81154774D01*
X134381939Y-81115000D01*
X134178061Y-81115000D01*
X133978102Y-81154774D01*
X133789744Y-81232795D01*
X133620226Y-81346063D01*
X133476063Y-81490226D01*
X133362795Y-81659744D01*
X133284774Y-81848102D01*
X133245000Y-82048061D01*
X127480442Y-82048061D01*
X127485370Y-82040297D01*
X128228903Y-81141520D01*
X128605299Y-80788061D01*
X135975000Y-80788061D01*
X135975000Y-80991939D01*
X136014774Y-81191898D01*
X136092795Y-81380256D01*
X136206063Y-81549774D01*
X136350226Y-81693937D01*
X136519744Y-81807205D01*
X136708102Y-81885226D01*
X136825000Y-81908478D01*
X136825000Y-81911939D01*
X136864774Y-82111898D01*
X136942795Y-82300256D01*
X137056063Y-82469774D01*
X137200226Y-82613937D01*
X137369744Y-82727205D01*
X137558102Y-82805226D01*
X137758061Y-82845000D01*
X137961939Y-82845000D01*
X138161898Y-82805226D01*
X138227479Y-82778061D01*
X142675000Y-82778061D01*
X142675000Y-82981939D01*
X142714774Y-83181898D01*
X142792795Y-83370256D01*
X142906063Y-83539774D01*
X143050226Y-83683937D01*
X143219744Y-83797205D01*
X143408102Y-83875226D01*
X143608061Y-83915000D01*
X143811939Y-83915000D01*
X144011898Y-83875226D01*
X144200256Y-83797205D01*
X144369774Y-83683937D01*
X144513937Y-83539774D01*
X144627205Y-83370256D01*
X144705226Y-83181898D01*
X144745000Y-82981939D01*
X144745000Y-82778061D01*
X144705226Y-82578102D01*
X144627205Y-82389744D01*
X144513937Y-82220226D01*
X144369774Y-82076063D01*
X144200256Y-81962795D01*
X144011898Y-81884774D01*
X143811939Y-81845000D01*
X143608061Y-81845000D01*
X143408102Y-81884774D01*
X143219744Y-81962795D01*
X143050226Y-82076063D01*
X142906063Y-82220226D01*
X142792795Y-82389744D01*
X142714774Y-82578102D01*
X142675000Y-82778061D01*
X138227479Y-82778061D01*
X138350256Y-82727205D01*
X138519774Y-82613937D01*
X138663937Y-82469774D01*
X138777205Y-82300256D01*
X138855226Y-82111898D01*
X138895000Y-81911939D01*
X138895000Y-81708061D01*
X138855226Y-81508102D01*
X138777205Y-81319744D01*
X138663937Y-81150226D01*
X138519774Y-81006063D01*
X138350256Y-80892795D01*
X138161898Y-80814774D01*
X138045000Y-80791522D01*
X138045000Y-80788061D01*
X138005226Y-80588102D01*
X137927205Y-80399744D01*
X137813937Y-80230226D01*
X137669774Y-80086063D01*
X137500256Y-79972795D01*
X137311898Y-79894774D01*
X137111939Y-79855000D01*
X136908061Y-79855000D01*
X136708102Y-79894774D01*
X136519744Y-79972795D01*
X136350226Y-80086063D01*
X136206063Y-80230226D01*
X136092795Y-80399744D01*
X136014774Y-80588102D01*
X135975000Y-80788061D01*
X128605299Y-80788061D01*
X129079228Y-80343013D01*
X129808539Y-79813137D01*
X143395000Y-79813137D01*
X143395000Y-80026863D01*
X143436696Y-80236483D01*
X143518485Y-80433940D01*
X143637225Y-80611647D01*
X143788353Y-80762775D01*
X143966060Y-80881515D01*
X144163517Y-80963304D01*
X144373137Y-81005000D01*
X144586863Y-81005000D01*
X144796483Y-80963304D01*
X144993940Y-80881515D01*
X145171647Y-80762775D01*
X145322775Y-80611647D01*
X145441515Y-80433940D01*
X145523304Y-80236483D01*
X145565000Y-80026863D01*
X145565000Y-79813137D01*
X146395000Y-79813137D01*
X146395000Y-80026863D01*
X146436696Y-80236483D01*
X146518485Y-80433940D01*
X146637225Y-80611647D01*
X146788353Y-80762775D01*
X146966060Y-80881515D01*
X147163517Y-80963304D01*
X147373137Y-81005000D01*
X147586863Y-81005000D01*
X147796483Y-80963304D01*
X147993940Y-80881515D01*
X148171647Y-80762775D01*
X148322775Y-80611647D01*
X148441515Y-80433940D01*
X148523304Y-80236483D01*
X148565000Y-80026863D01*
X148565000Y-79813137D01*
X148523304Y-79603517D01*
X148441515Y-79406060D01*
X148322775Y-79228353D01*
X148171647Y-79077225D01*
X147993940Y-78958485D01*
X147796483Y-78876696D01*
X147586863Y-78835000D01*
X147373137Y-78835000D01*
X147163517Y-78876696D01*
X146966060Y-78958485D01*
X146788353Y-79077225D01*
X146637225Y-79228353D01*
X146518485Y-79406060D01*
X146436696Y-79603517D01*
X146395000Y-79813137D01*
X145565000Y-79813137D01*
X145523304Y-79603517D01*
X145441515Y-79406060D01*
X145322775Y-79228353D01*
X145171647Y-79077225D01*
X144993940Y-78958485D01*
X144796483Y-78876696D01*
X144586863Y-78835000D01*
X144373137Y-78835000D01*
X144163517Y-78876696D01*
X143966060Y-78958485D01*
X143788353Y-79077225D01*
X143637225Y-79228353D01*
X143518485Y-79406060D01*
X143436696Y-79603517D01*
X143395000Y-79813137D01*
X129808539Y-79813137D01*
X130022922Y-79657379D01*
X131045110Y-79095425D01*
X132129662Y-78666021D01*
X133259494Y-78375929D01*
X134427864Y-78228331D01*
X135011165Y-78210000D01*
X154756289Y-78210000D01*
X154686063Y-78280226D01*
%TA.AperFunction,Conductor*%
D17*
G36*
X154686063Y-78280226D02*
G01*
X154572795Y-78449744D01*
X154494774Y-78638102D01*
X154455000Y-78838061D01*
X154455000Y-79041939D01*
X154494774Y-79241898D01*
X154572795Y-79430256D01*
X154686063Y-79599774D01*
X154830226Y-79743937D01*
X154999744Y-79857205D01*
X155188102Y-79935226D01*
X155388061Y-79975000D01*
X155591939Y-79975000D01*
X155791898Y-79935226D01*
X155980256Y-79857205D01*
X156149774Y-79743937D01*
X156293937Y-79599774D01*
X156407205Y-79430256D01*
X156485226Y-79241898D01*
X156525000Y-79041939D01*
X156525000Y-78838061D01*
X156485226Y-78638102D01*
X156407205Y-78449744D01*
X156293937Y-78280226D01*
X156223711Y-78210000D01*
X157306289Y-78210000D01*
X157226063Y-78290226D01*
X157112795Y-78459744D01*
X157034774Y-78648102D01*
X156995000Y-78848061D01*
X156995000Y-79051939D01*
X157034774Y-79251898D01*
X157112795Y-79440256D01*
X157226063Y-79609774D01*
X157370226Y-79753937D01*
X157539744Y-79867205D01*
X157728102Y-79945226D01*
X157928061Y-79985000D01*
X158131939Y-79985000D01*
X158331898Y-79945226D01*
X158520256Y-79867205D01*
X158665000Y-79770490D01*
X158809744Y-79867205D01*
X158998102Y-79945226D01*
X159198061Y-79985000D01*
X159401939Y-79985000D01*
X159601898Y-79945226D01*
X159790256Y-79867205D01*
X159959774Y-79753937D01*
X160103937Y-79609774D01*
X160217205Y-79440256D01*
X160295226Y-79251898D01*
X160335000Y-79051939D01*
X160335000Y-78848061D01*
X160295226Y-78648102D01*
X160217205Y-78459744D01*
X160103937Y-78290226D01*
X160023711Y-78210000D01*
X169977687Y-78210000D01*
X171164170Y-78284647D01*
X172309981Y-78503222D01*
X173419362Y-78863682D01*
X174474813Y-79360339D01*
X175459703Y-79985370D01*
X176358480Y-80728903D01*
X177156987Y-81579228D01*
X177842621Y-82522922D01*
X178404575Y-83545110D01*
X178833979Y-84629662D01*
X179124071Y-85759494D01*
X179271669Y-86927864D01*
X179290000Y-87511165D01*
X179290000Y-92125831D01*
X179281833Y-92110551D01*
X179127502Y-91922498D01*
X178939449Y-91768167D01*
X178724901Y-91653489D01*
X178492102Y-91582870D01*
X178310665Y-91565000D01*
X177489335Y-91565000D01*
X177307898Y-91582870D01*
X177075099Y-91653489D01*
X176860551Y-91768167D01*
X176672498Y-91922498D01*
X176518167Y-92110551D01*
X176403489Y-92325099D01*
X176332870Y-92557898D01*
X176309025Y-92800000D01*
X176332870Y-93042102D01*
X176335883Y-93052035D01*
X176256381Y-92933051D01*
X176066949Y-92743619D01*
X175844201Y-92594784D01*
X175596697Y-92492264D01*
X175333948Y-92440000D01*
X175066052Y-92440000D01*
X174803303Y-92492264D01*
X174555799Y-92594784D01*
X174333051Y-92743619D01*
X174143619Y-92933051D01*
X174007955Y-93136088D01*
X173901939Y-93115000D01*
X173698061Y-93115000D01*
X173498102Y-93154774D01*
X173375000Y-93205765D01*
X173251898Y-93154774D01*
X173051939Y-93115000D01*
X172848061Y-93115000D01*
X172648102Y-93154774D01*
X172459744Y-93232795D01*
X172290226Y-93346063D01*
X172146063Y-93490226D01*
X172032795Y-93659744D01*
X171954774Y-93848102D01*
X171915000Y-94048061D01*
X171915000Y-94251939D01*
X171954774Y-94451898D01*
X172005765Y-94575000D01*
X171954774Y-94698102D01*
X171915000Y-94898061D01*
X171915000Y-95101939D01*
X171954774Y-95301898D01*
X172032795Y-95490256D01*
X172146063Y-95659774D01*
X172290226Y-95803937D01*
X172459744Y-95917205D01*
X172648102Y-95995226D01*
X172848061Y-96035000D01*
X173051939Y-96035000D01*
X173251898Y-95995226D01*
X173375000Y-95944235D01*
X173498102Y-95995226D01*
X173698061Y-96035000D01*
X173901939Y-96035000D01*
X174101898Y-95995226D01*
X174290256Y-95917205D01*
X174459774Y-95803937D01*
X174603937Y-95659774D01*
X174717205Y-95490256D01*
X174795226Y-95301898D01*
X174832684Y-95113580D01*
X175066052Y-95160000D01*
X175333948Y-95160000D01*
X175596697Y-95107736D01*
X175844201Y-95005216D01*
X176066949Y-94856381D01*
X176256381Y-94666949D01*
X176405216Y-94444201D01*
X176507736Y-94196697D01*
X176560000Y-93933948D01*
X176560000Y-93666052D01*
X176527016Y-93500232D01*
X176672498Y-93677502D01*
X176860551Y-93831833D01*
X177075099Y-93946511D01*
X177307898Y-94017130D01*
X177489335Y-94035000D01*
X178310665Y-94035000D01*
X178492102Y-94017130D01*
X178724901Y-93946511D01*
X178939449Y-93831833D01*
X179127502Y-93677502D01*
X179281833Y-93489449D01*
X179290000Y-93474169D01*
X179290000Y-99125831D01*
X179281833Y-99110551D01*
X179127502Y-98922498D01*
X178939449Y-98768167D01*
X178724901Y-98653489D01*
X178492102Y-98582870D01*
X178310665Y-98565000D01*
X177489335Y-98565000D01*
X177307898Y-98582870D01*
X177075099Y-98653489D01*
X176860551Y-98768167D01*
X176672498Y-98922498D01*
X176527016Y-99099768D01*
X176560000Y-98933948D01*
X176560000Y-98666052D01*
X176507736Y-98403303D01*
X176405216Y-98155799D01*
X176256381Y-97933051D01*
X176066949Y-97743619D01*
X175844201Y-97594784D01*
X175596697Y-97492264D01*
X175333948Y-97440000D01*
X175066052Y-97440000D01*
X174803303Y-97492264D01*
X174555799Y-97594784D01*
X174333051Y-97743619D01*
X174143619Y-97933051D01*
X173994784Y-98155799D01*
X173892264Y-98403303D01*
X173840000Y-98666052D01*
X173840000Y-98933948D01*
X173892264Y-99196697D01*
X173994784Y-99444201D01*
X174143619Y-99666949D01*
X174333051Y-99856381D01*
X174555799Y-100005216D01*
X174803303Y-100107736D01*
X175066052Y-100160000D01*
X175333948Y-100160000D01*
X175596697Y-100107736D01*
X175844201Y-100005216D01*
X176066949Y-99856381D01*
X176256381Y-99666949D01*
X176335883Y-99547965D01*
X176332870Y-99557898D01*
X176309025Y-99800000D01*
X176332870Y-100042102D01*
X176403489Y-100274901D01*
X176518167Y-100489449D01*
X176672498Y-100677502D01*
X176860551Y-100831833D01*
X177075099Y-100946511D01*
X177307898Y-101017130D01*
X177489335Y-101035000D01*
X178310665Y-101035000D01*
X178492102Y-101017130D01*
X178724901Y-100946511D01*
X178939449Y-100831833D01*
X179127502Y-100677502D01*
X179281833Y-100489449D01*
X179290000Y-100474169D01*
X179290001Y-121477671D01*
X179215353Y-122664169D01*
X178996778Y-123809981D01*
X178636318Y-124919362D01*
X178139661Y-125974813D01*
X177514630Y-126959703D01*
X176771096Y-127858480D01*
X175920773Y-128656987D01*
X174977078Y-129342621D01*
X173954888Y-129904576D01*
X172870338Y-130333979D01*
X171740505Y-130624071D01*
X170572146Y-130771668D01*
X169988835Y-130790000D01*
X135022313Y-130790000D01*
X133835831Y-130715353D01*
X132690019Y-130496778D01*
X131580638Y-130136318D01*
X130525187Y-129639661D01*
X129540297Y-129014630D01*
X128641520Y-128271096D01*
X127843013Y-127420773D01*
X127157379Y-126477078D01*
X126932362Y-126067774D01*
X149371932Y-126067774D01*
X149383758Y-126192298D01*
X149419650Y-126312122D01*
X149478229Y-126422641D01*
X149557244Y-126519608D01*
X149653658Y-126599298D01*
X149763766Y-126658646D01*
X149883336Y-126695374D01*
X150003250Y-126705000D01*
X150162000Y-126546250D01*
X150162000Y-125668000D01*
X149533750Y-125668000D01*
X149375000Y-125826750D01*
X149371932Y-126067774D01*
X126932362Y-126067774D01*
X126595424Y-125454888D01*
X126325140Y-124772226D01*
X149371932Y-124772226D01*
X149375000Y-125013250D01*
X149533750Y-125172000D01*
X150162000Y-125172000D01*
X150162000Y-125119163D01*
X150625000Y-125119163D01*
X150625000Y-125720838D01*
X150639976Y-125872895D01*
X150658000Y-125932311D01*
X150658000Y-126546250D01*
X150816750Y-126705000D01*
X150936664Y-126695374D01*
X151056234Y-126658646D01*
X151166342Y-126599298D01*
X151180736Y-126587401D01*
X151262008Y-126630841D01*
X151457106Y-126690024D01*
X151660000Y-126710007D01*
X151862895Y-126690024D01*
X152057993Y-126630841D01*
X152237797Y-126534734D01*
X152285001Y-126495995D01*
X152332204Y-126534734D01*
X152512008Y-126630841D01*
X152707106Y-126690024D01*
X152910000Y-126710007D01*
X153112895Y-126690024D01*
X153307993Y-126630841D01*
X153487797Y-126534734D01*
X153535001Y-126495995D01*
X153582204Y-126534734D01*
X153762008Y-126630841D01*
X153957106Y-126690024D01*
X154160000Y-126710007D01*
X154362895Y-126690024D01*
X154557993Y-126630841D01*
X154737797Y-126534734D01*
X154895396Y-126405396D01*
X155024734Y-126247797D01*
X155120841Y-126067992D01*
X155180024Y-125872894D01*
X155195000Y-125720837D01*
X155195000Y-125119162D01*
X155180024Y-124967105D01*
X155120841Y-124772007D01*
X155024734Y-124592203D01*
X154895396Y-124434604D01*
X154737797Y-124305266D01*
X154557992Y-124209159D01*
X154527800Y-124200000D01*
X161311928Y-124200000D01*
X161311928Y-126800000D01*
X161324188Y-126924482D01*
X161360498Y-127044180D01*
X161419463Y-127154494D01*
X161498815Y-127251185D01*
X161595506Y-127330537D01*
X161705820Y-127389502D01*
X161825518Y-127425812D01*
X161950000Y-127438072D01*
X164550000Y-127438072D01*
X164674482Y-127425812D01*
X164794180Y-127389502D01*
X164904494Y-127330537D01*
X165001185Y-127251185D01*
X165080537Y-127154494D01*
X165139502Y-127044180D01*
X165175812Y-126924482D01*
X165188072Y-126800000D01*
X165188072Y-125309419D01*
X166315000Y-125309419D01*
X166315000Y-125690581D01*
X166389361Y-126064419D01*
X166535225Y-126416566D01*
X166746987Y-126733491D01*
X167016509Y-127003013D01*
X167333434Y-127214775D01*
X167685581Y-127360639D01*
X168059419Y-127435000D01*
X168440581Y-127435000D01*
X168814419Y-127360639D01*
X169166566Y-127214775D01*
X169483491Y-127003013D01*
X169753013Y-126733491D01*
X169964775Y-126416566D01*
X170110639Y-126064419D01*
X170185000Y-125690581D01*
X170185000Y-125309419D01*
X170110639Y-124935581D01*
X169964775Y-124583434D01*
X169753013Y-124266509D01*
X169483491Y-123996987D01*
X169166566Y-123785225D01*
X168814419Y-123639361D01*
X168440581Y-123565000D01*
X168059419Y-123565000D01*
X167685581Y-123639361D01*
X167333434Y-123785225D01*
X167016509Y-123996987D01*
X166746987Y-124266509D01*
X166535225Y-124583434D01*
X166389361Y-124935581D01*
X166315000Y-125309419D01*
X165188072Y-125309419D01*
X165188072Y-124200000D01*
X165175812Y-124075518D01*
X165139502Y-123955820D01*
X165080537Y-123845506D01*
X165001185Y-123748815D01*
X164904494Y-123669463D01*
X164794180Y-123610498D01*
X164674482Y-123574188D01*
X164550000Y-123561928D01*
X161950000Y-123561928D01*
X161825518Y-123574188D01*
X161705820Y-123610498D01*
X161595506Y-123669463D01*
X161498815Y-123748815D01*
X161419463Y-123845506D01*
X161360498Y-123955820D01*
X161324188Y-124075518D01*
X161311928Y-124200000D01*
X154527800Y-124200000D01*
X154362894Y-124149976D01*
X154160000Y-124129993D01*
X153957105Y-124149976D01*
X153762007Y-124209159D01*
X153582203Y-124305266D01*
X153535000Y-124344004D01*
X153487797Y-124305266D01*
X153307992Y-124209159D01*
X153112894Y-124149976D01*
X152910000Y-124129993D01*
X152707105Y-124149976D01*
X152512007Y-124209159D01*
X152332203Y-124305266D01*
X152285000Y-124344004D01*
X152237797Y-124305266D01*
X152057992Y-124209159D01*
X151862894Y-124149976D01*
X151660000Y-124129993D01*
X151457105Y-124149976D01*
X151262007Y-124209159D01*
X151180736Y-124252599D01*
X151166342Y-124240702D01*
X151056234Y-124181354D01*
X150936664Y-124144626D01*
X150816750Y-124135000D01*
X150658000Y-124293750D01*
X150658000Y-124907690D01*
X150639976Y-124967106D01*
X150625000Y-125119163D01*
X150162000Y-125119163D01*
X150162000Y-124293750D01*
X150003250Y-124135000D01*
X149883336Y-124144626D01*
X149763766Y-124181354D01*
X149653658Y-124240702D01*
X149557244Y-124320392D01*
X149478229Y-124417359D01*
X149419650Y-124527878D01*
X149383758Y-124647702D01*
X149371932Y-124772226D01*
X126325140Y-124772226D01*
X126166021Y-124370338D01*
X125875929Y-123240505D01*
X125728332Y-122072146D01*
X125710000Y-121488835D01*
X125710000Y-114198061D01*
X149735000Y-114198061D01*
X149735000Y-114401939D01*
X149774774Y-114601898D01*
X149852795Y-114790256D01*
X149966063Y-114959774D01*
X150110226Y-115103937D01*
X150279744Y-115217205D01*
X150468102Y-115295226D01*
X150668061Y-115335000D01*
X150871939Y-115335000D01*
X151071898Y-115295226D01*
X151260256Y-115217205D01*
X151429774Y-115103937D01*
X151573937Y-114959774D01*
X151575081Y-114958061D01*
X154255000Y-114958061D01*
X154255000Y-115161939D01*
X154294774Y-115361898D01*
X154372795Y-115550256D01*
X154486063Y-115719774D01*
X154630226Y-115863937D01*
X154799744Y-115977205D01*
X154988102Y-116055226D01*
X155172911Y-116091987D01*
X155194774Y-116201898D01*
X155272795Y-116390256D01*
X155386063Y-116559774D01*
X155530226Y-116703937D01*
X155699744Y-116817205D01*
X155888102Y-116895226D01*
X156088061Y-116935000D01*
X156291939Y-116935000D01*
X156491898Y-116895226D01*
X156680256Y-116817205D01*
X156849774Y-116703937D01*
X156993937Y-116559774D01*
X157107205Y-116390256D01*
X157185226Y-116201898D01*
X157225000Y-116001939D01*
X157225000Y-115798061D01*
X157185226Y-115598102D01*
X157107205Y-115409744D01*
X157065990Y-115348061D01*
X160255000Y-115348061D01*
X160255000Y-115551939D01*
X160294774Y-115751898D01*
X160372795Y-115940256D01*
X160486063Y-116109774D01*
X160630226Y-116253937D01*
X160799744Y-116367205D01*
X160988102Y-116445226D01*
X161062377Y-116460000D01*
X160988102Y-116474774D01*
X160799744Y-116552795D01*
X160630226Y-116666063D01*
X160486063Y-116810226D01*
X160372795Y-116979744D01*
X160294774Y-117168102D01*
X160255000Y-117368061D01*
X160255000Y-117571939D01*
X160294774Y-117771898D01*
X160372795Y-117960256D01*
X160486063Y-118129774D01*
X160630226Y-118273937D01*
X160799744Y-118387205D01*
X160988102Y-118465226D01*
X161188061Y-118505000D01*
X161391939Y-118505000D01*
X161591898Y-118465226D01*
X161780256Y-118387205D01*
X161949774Y-118273937D01*
X162093937Y-118129774D01*
X162207205Y-117960256D01*
X162285226Y-117771898D01*
X162325000Y-117571939D01*
X162325000Y-117368061D01*
X162285226Y-117168102D01*
X162207205Y-116979744D01*
X162093937Y-116810226D01*
X161949774Y-116666063D01*
X161780256Y-116552795D01*
X161591898Y-116474774D01*
X161517623Y-116460000D01*
X161591898Y-116445226D01*
X161780256Y-116367205D01*
X161949774Y-116253937D01*
X162093937Y-116109774D01*
X162207205Y-115940256D01*
X162285226Y-115751898D01*
X162325000Y-115551939D01*
X162325000Y-115348061D01*
X162285226Y-115148102D01*
X162207205Y-114959744D01*
X162099173Y-114798061D01*
X162415000Y-114798061D01*
X162415000Y-115001939D01*
X162454774Y-115201898D01*
X162532795Y-115390256D01*
X162646063Y-115559774D01*
X162790226Y-115703937D01*
X162959744Y-115817205D01*
X163148102Y-115895226D01*
X163348061Y-115935000D01*
X163551939Y-115935000D01*
X163751898Y-115895226D01*
X163940256Y-115817205D01*
X164109774Y-115703937D01*
X164253937Y-115559774D01*
X164367205Y-115390256D01*
X164445226Y-115201898D01*
X164485000Y-115001939D01*
X164485000Y-114818061D01*
X164495000Y-114818061D01*
X164495000Y-115021939D01*
X164534774Y-115221898D01*
X164612795Y-115410256D01*
X164726063Y-115579774D01*
X164870226Y-115723937D01*
X165039744Y-115837205D01*
X165228102Y-115915226D01*
X165428061Y-115955000D01*
X165631939Y-115955000D01*
X165831898Y-115915226D01*
X166020256Y-115837205D01*
X166189774Y-115723937D01*
X166333937Y-115579774D01*
X166447205Y-115410256D01*
X166525226Y-115221898D01*
X166565000Y-115021939D01*
X166565000Y-114818061D01*
X166525226Y-114618102D01*
X166447205Y-114429744D01*
X166333937Y-114260226D01*
X166189774Y-114116063D01*
X166020256Y-114002795D01*
X165831898Y-113924774D01*
X165631939Y-113885000D01*
X165428061Y-113885000D01*
X165228102Y-113924774D01*
X165039744Y-114002795D01*
X164870226Y-114116063D01*
X164726063Y-114260226D01*
X164612795Y-114429744D01*
X164534774Y-114618102D01*
X164495000Y-114818061D01*
X164485000Y-114818061D01*
X164485000Y-114798061D01*
X164445226Y-114598102D01*
X164367205Y-114409744D01*
X164253937Y-114240226D01*
X164109774Y-114096063D01*
X163940256Y-113982795D01*
X163751898Y-113904774D01*
X163551939Y-113865000D01*
X163348061Y-113865000D01*
X163148102Y-113904774D01*
X162959744Y-113982795D01*
X162790226Y-114096063D01*
X162646063Y-114240226D01*
X162532795Y-114409744D01*
X162454774Y-114598102D01*
X162415000Y-114798061D01*
X162099173Y-114798061D01*
X162093937Y-114790226D01*
X161949774Y-114646063D01*
X161780256Y-114532795D01*
X161591898Y-114454774D01*
X161391939Y-114415000D01*
X161188061Y-114415000D01*
X160988102Y-114454774D01*
X160799744Y-114532795D01*
X160630226Y-114646063D01*
X160486063Y-114790226D01*
X160372795Y-114959744D01*
X160294774Y-115148102D01*
X160255000Y-115348061D01*
X157065990Y-115348061D01*
X156993937Y-115240226D01*
X156849774Y-115096063D01*
X156680256Y-114982795D01*
X156491898Y-114904774D01*
X156307089Y-114868013D01*
X156285226Y-114758102D01*
X156207205Y-114569744D01*
X156093937Y-114400226D01*
X155949774Y-114256063D01*
X155780256Y-114142795D01*
X155591898Y-114064774D01*
X155391939Y-114025000D01*
X155188061Y-114025000D01*
X154988102Y-114064774D01*
X154799744Y-114142795D01*
X154630226Y-114256063D01*
X154486063Y-114400226D01*
X154372795Y-114569744D01*
X154294774Y-114758102D01*
X154255000Y-114958061D01*
X151575081Y-114958061D01*
X151687205Y-114790256D01*
X151765226Y-114601898D01*
X151805000Y-114401939D01*
X151805000Y-114198061D01*
X151765226Y-113998102D01*
X151687205Y-113809744D01*
X151625945Y-113718061D01*
X168445000Y-113718061D01*
X168445000Y-113921939D01*
X168484774Y-114121898D01*
X168562795Y-114310256D01*
X168676063Y-114479774D01*
X168820226Y-114623937D01*
X168989744Y-114737205D01*
X169178102Y-114815226D01*
X169275000Y-114834500D01*
X169275000Y-114861939D01*
X169314774Y-115061898D01*
X169392795Y-115250256D01*
X169506063Y-115419774D01*
X169650226Y-115563937D01*
X169819744Y-115677205D01*
X170008102Y-115755226D01*
X170208061Y-115795000D01*
X170411939Y-115795000D01*
X170611898Y-115755226D01*
X170800256Y-115677205D01*
X170969774Y-115563937D01*
X171113937Y-115419774D01*
X171227205Y-115250256D01*
X171305226Y-115061898D01*
X171345000Y-114861939D01*
X171345000Y-114658061D01*
X171305226Y-114458102D01*
X171227205Y-114269744D01*
X171113937Y-114100226D01*
X170969774Y-113956063D01*
X170800256Y-113842795D01*
X170611898Y-113764774D01*
X170515000Y-113745500D01*
X170515000Y-113718061D01*
X170475226Y-113518102D01*
X170397205Y-113329744D01*
X170283937Y-113160226D01*
X170139774Y-113016063D01*
X169970256Y-112902795D01*
X169781898Y-112824774D01*
X169581939Y-112785000D01*
X169378061Y-112785000D01*
X169178102Y-112824774D01*
X168989744Y-112902795D01*
X168820226Y-113016063D01*
X168676063Y-113160226D01*
X168562795Y-113329744D01*
X168484774Y-113518102D01*
X168445000Y-113718061D01*
X151625945Y-113718061D01*
X151573937Y-113640226D01*
X151429774Y-113496063D01*
X151260256Y-113382795D01*
X151071898Y-113304774D01*
X150871939Y-113265000D01*
X150668061Y-113265000D01*
X150468102Y-113304774D01*
X150279744Y-113382795D01*
X150110226Y-113496063D01*
X149966063Y-113640226D01*
X149852795Y-113809744D01*
X149774774Y-113998102D01*
X149735000Y-114198061D01*
X125710000Y-114198061D01*
X125710000Y-111128061D01*
X135625000Y-111128061D01*
X135625000Y-111331939D01*
X135664774Y-111531898D01*
X135742795Y-111720256D01*
X135856063Y-111889774D01*
X136000226Y-112033937D01*
X136169744Y-112147205D01*
X136358102Y-112225226D01*
X136427749Y-112239079D01*
X136502795Y-112420256D01*
X136616063Y-112589774D01*
X136760226Y-112733937D01*
X136929744Y-112847205D01*
X137118102Y-112925226D01*
X137318061Y-112965000D01*
X137521939Y-112965000D01*
X137721898Y-112925226D01*
X137910256Y-112847205D01*
X138079774Y-112733937D01*
X138223937Y-112589774D01*
X138337205Y-112420256D01*
X138415226Y-112231898D01*
X138455000Y-112031939D01*
X138455000Y-111828061D01*
X138415226Y-111628102D01*
X138337205Y-111439744D01*
X138223937Y-111270226D01*
X138079774Y-111126063D01*
X137910256Y-111012795D01*
X137721898Y-110934774D01*
X137652251Y-110920921D01*
X137577205Y-110739744D01*
X137463937Y-110570226D01*
X137319774Y-110426063D01*
X137150256Y-110312795D01*
X136961898Y-110234774D01*
X136761939Y-110195000D01*
X136558061Y-110195000D01*
X136358102Y-110234774D01*
X136169744Y-110312795D01*
X136000226Y-110426063D01*
X135856063Y-110570226D01*
X135742795Y-110739744D01*
X135664774Y-110928102D01*
X135625000Y-111128061D01*
X125710000Y-111128061D01*
X125710000Y-108648061D01*
X129965000Y-108648061D01*
X129965000Y-108851939D01*
X130004774Y-109051898D01*
X130082795Y-109240256D01*
X130196063Y-109409774D01*
X130340226Y-109553937D01*
X130509744Y-109667205D01*
X130698102Y-109745226D01*
X130898061Y-109785000D01*
X131101939Y-109785000D01*
X131301898Y-109745226D01*
X131490256Y-109667205D01*
X131659774Y-109553937D01*
X131803937Y-109409774D01*
X131917205Y-109240256D01*
X131995226Y-109051898D01*
X132035000Y-108851939D01*
X132035000Y-108648061D01*
X134965000Y-108648061D01*
X134965000Y-108851939D01*
X135004774Y-109051898D01*
X135082795Y-109240256D01*
X135196063Y-109409774D01*
X135340226Y-109553937D01*
X135509744Y-109667205D01*
X135698102Y-109745226D01*
X135898061Y-109785000D01*
X136101939Y-109785000D01*
X136301898Y-109745226D01*
X136490256Y-109667205D01*
X136659774Y-109553937D01*
X136735650Y-109478061D01*
X139775000Y-109478061D01*
X139775000Y-109681939D01*
X139814774Y-109881898D01*
X139892795Y-110070256D01*
X140006063Y-110239774D01*
X140150226Y-110383937D01*
X140319744Y-110497205D01*
X140415000Y-110536662D01*
X140415000Y-110601939D01*
X140454774Y-110801898D01*
X140532795Y-110990256D01*
X140646063Y-111159774D01*
X140790226Y-111303937D01*
X140959744Y-111417205D01*
X141148102Y-111495226D01*
X141348061Y-111535000D01*
X141551939Y-111535000D01*
X141751898Y-111495226D01*
X141940256Y-111417205D01*
X142109774Y-111303937D01*
X142253937Y-111159774D01*
X142367205Y-110990256D01*
X142445226Y-110801898D01*
X142485000Y-110601939D01*
X142485000Y-110598061D01*
X149365000Y-110598061D01*
X149365000Y-110801939D01*
X149404774Y-111001898D01*
X149482795Y-111190256D01*
X149596063Y-111359774D01*
X149740226Y-111503937D01*
X149909744Y-111617205D01*
X150098102Y-111695226D01*
X150298061Y-111735000D01*
X150501939Y-111735000D01*
X150701898Y-111695226D01*
X150890256Y-111617205D01*
X151059774Y-111503937D01*
X151203937Y-111359774D01*
X151317205Y-111190256D01*
X151395226Y-111001898D01*
X151429092Y-110831643D01*
X151561898Y-110805226D01*
X151750256Y-110727205D01*
X151919774Y-110613937D01*
X152063937Y-110469774D01*
X152177205Y-110300256D01*
X152198825Y-110248061D01*
X157965000Y-110248061D01*
X157965000Y-110451939D01*
X158004774Y-110651898D01*
X158082795Y-110840256D01*
X158196063Y-111009774D01*
X158340226Y-111153937D01*
X158509744Y-111267205D01*
X158698102Y-111345226D01*
X158898061Y-111385000D01*
X159101939Y-111385000D01*
X159301898Y-111345226D01*
X159490256Y-111267205D01*
X159659774Y-111153937D01*
X159803937Y-111009774D01*
X159917205Y-110840256D01*
X159995226Y-110651898D01*
X160035000Y-110451939D01*
X160035000Y-110248061D01*
X159995226Y-110048102D01*
X159917205Y-109859744D01*
X159803937Y-109690226D01*
X159659774Y-109546063D01*
X159490256Y-109432795D01*
X159301898Y-109354774D01*
X159101939Y-109315000D01*
X158898061Y-109315000D01*
X158698102Y-109354774D01*
X158509744Y-109432795D01*
X158340226Y-109546063D01*
X158196063Y-109690226D01*
X158082795Y-109859744D01*
X158004774Y-110048102D01*
X157965000Y-110248061D01*
X152198825Y-110248061D01*
X152255226Y-110111898D01*
X152295000Y-109911939D01*
X152295000Y-109708061D01*
X152255226Y-109508102D01*
X152177205Y-109319744D01*
X152063937Y-109150226D01*
X151919774Y-109006063D01*
X151750256Y-108892795D01*
X151561898Y-108814774D01*
X151361939Y-108775000D01*
X151158061Y-108775000D01*
X150958102Y-108814774D01*
X150769744Y-108892795D01*
X150600226Y-109006063D01*
X150456063Y-109150226D01*
X150342795Y-109319744D01*
X150264774Y-109508102D01*
X150230908Y-109678357D01*
X150098102Y-109704774D01*
X149909744Y-109782795D01*
X149740226Y-109896063D01*
X149596063Y-110040226D01*
X149482795Y-110209744D01*
X149404774Y-110398102D01*
X149365000Y-110598061D01*
X142485000Y-110598061D01*
X142485000Y-110398061D01*
X142445226Y-110198102D01*
X142367205Y-110009744D01*
X142253937Y-109840226D01*
X142109774Y-109696063D01*
X141940256Y-109582795D01*
X141845000Y-109543338D01*
X141845000Y-109478061D01*
X141805226Y-109278102D01*
X141727205Y-109089744D01*
X141613937Y-108920226D01*
X141469774Y-108776063D01*
X141300256Y-108662795D01*
X141111898Y-108584774D01*
X140911939Y-108545000D01*
X140708061Y-108545000D01*
X140508102Y-108584774D01*
X140319744Y-108662795D01*
X140150226Y-108776063D01*
X140006063Y-108920226D01*
X139892795Y-109089744D01*
X139814774Y-109278102D01*
X139775000Y-109478061D01*
X136735650Y-109478061D01*
X136803937Y-109409774D01*
X136917205Y-109240256D01*
X136995226Y-109051898D01*
X137035000Y-108851939D01*
X137035000Y-108648061D01*
X136995226Y-108448102D01*
X136917205Y-108259744D01*
X136803937Y-108090226D01*
X136659774Y-107946063D01*
X136490256Y-107832795D01*
X136301898Y-107754774D01*
X136101939Y-107715000D01*
X135898061Y-107715000D01*
X135698102Y-107754774D01*
X135509744Y-107832795D01*
X135340226Y-107946063D01*
X135196063Y-108090226D01*
X135082795Y-108259744D01*
X135004774Y-108448102D01*
X134965000Y-108648061D01*
X132035000Y-108648061D01*
X131995226Y-108448102D01*
X131917205Y-108259744D01*
X131803937Y-108090226D01*
X131659774Y-107946063D01*
X131490256Y-107832795D01*
X131301898Y-107754774D01*
X131101939Y-107715000D01*
X130898061Y-107715000D01*
X130698102Y-107754774D01*
X130509744Y-107832795D01*
X130340226Y-107946063D01*
X130196063Y-108090226D01*
X130082795Y-108259744D01*
X130004774Y-108448102D01*
X129965000Y-108648061D01*
X125710000Y-108648061D01*
X125710000Y-106588061D01*
X150705000Y-106588061D01*
X150705000Y-106791939D01*
X150744774Y-106991898D01*
X150822795Y-107180256D01*
X150936063Y-107349774D01*
X151080226Y-107493937D01*
X151249744Y-107607205D01*
X151438102Y-107685226D01*
X151449937Y-107687580D01*
X151454774Y-107711898D01*
X151532795Y-107900256D01*
X151646063Y-108069774D01*
X151790226Y-108213937D01*
X151959744Y-108327205D01*
X152148102Y-108405226D01*
X152348061Y-108445000D01*
X152551939Y-108445000D01*
X152751898Y-108405226D01*
X152940256Y-108327205D01*
X153109774Y-108213937D01*
X153253937Y-108069774D01*
X153367205Y-107900256D01*
X153445226Y-107711898D01*
X153485000Y-107511939D01*
X153485000Y-107308061D01*
X153445226Y-107108102D01*
X153367205Y-106919744D01*
X153253937Y-106750226D01*
X153109774Y-106606063D01*
X152940256Y-106492795D01*
X152751898Y-106414774D01*
X152740063Y-106412420D01*
X152735226Y-106388102D01*
X152657205Y-106199744D01*
X152543937Y-106030226D01*
X152399774Y-105886063D01*
X152230256Y-105772795D01*
X152041898Y-105694774D01*
X151841939Y-105655000D01*
X151638061Y-105655000D01*
X151438102Y-105694774D01*
X151249744Y-105772795D01*
X151080226Y-105886063D01*
X150936063Y-106030226D01*
X150822795Y-106199744D01*
X150744774Y-106388102D01*
X150705000Y-106588061D01*
X125710000Y-106588061D01*
X125710000Y-104728061D01*
X157485000Y-104728061D01*
X157485000Y-104931939D01*
X157524774Y-105131898D01*
X157602795Y-105320256D01*
X157716063Y-105489774D01*
X157860226Y-105633937D01*
X158029744Y-105747205D01*
X158218102Y-105825226D01*
X158418061Y-105865000D01*
X158621939Y-105865000D01*
X158821898Y-105825226D01*
X159010256Y-105747205D01*
X159179774Y-105633937D01*
X159323937Y-105489774D01*
X159437205Y-105320256D01*
X159515226Y-105131898D01*
X159555000Y-104931939D01*
X159555000Y-104728061D01*
X159515226Y-104528102D01*
X159437205Y-104339744D01*
X159323937Y-104170226D01*
X159179774Y-104026063D01*
X159010256Y-103912795D01*
X158821898Y-103834774D01*
X158621939Y-103795000D01*
X158418061Y-103795000D01*
X158218102Y-103834774D01*
X158029744Y-103912795D01*
X157860226Y-104026063D01*
X157716063Y-104170226D01*
X157602795Y-104339744D01*
X157524774Y-104528102D01*
X157485000Y-104728061D01*
X125710000Y-104728061D01*
X125710000Y-101858061D01*
X135075000Y-101858061D01*
X135075000Y-102061939D01*
X135114774Y-102261898D01*
X135192795Y-102450256D01*
X135306063Y-102619774D01*
X135450226Y-102763937D01*
X135619744Y-102877205D01*
X135808102Y-102955226D01*
X136008061Y-102995000D01*
X136211939Y-102995000D01*
X136411898Y-102955226D01*
X136600256Y-102877205D01*
X136740072Y-102783783D01*
X136740226Y-102783937D01*
X136909744Y-102897205D01*
X137098102Y-102975226D01*
X137298061Y-103015000D01*
X137501939Y-103015000D01*
X137701898Y-102975226D01*
X137890256Y-102897205D01*
X138059774Y-102783937D01*
X138203937Y-102639774D01*
X138317205Y-102470256D01*
X138395226Y-102281898D01*
X138435000Y-102081939D01*
X138435000Y-102058061D01*
X157495000Y-102058061D01*
X157495000Y-102261939D01*
X157534774Y-102461898D01*
X157612795Y-102650256D01*
X157726063Y-102819774D01*
X157870226Y-102963937D01*
X158039744Y-103077205D01*
X158228102Y-103155226D01*
X158428061Y-103195000D01*
X158631939Y-103195000D01*
X158831898Y-103155226D01*
X159020256Y-103077205D01*
X159189774Y-102963937D01*
X159333937Y-102819774D01*
X159447205Y-102650256D01*
X159525226Y-102461898D01*
X159565000Y-102261939D01*
X159565000Y-102058061D01*
X159543120Y-101948061D01*
X162140000Y-101948061D01*
X162140000Y-102151939D01*
X162179774Y-102351898D01*
X162257795Y-102540256D01*
X162371063Y-102709774D01*
X162515226Y-102853937D01*
X162684744Y-102967205D01*
X162873102Y-103045226D01*
X163073061Y-103085000D01*
X163276939Y-103085000D01*
X163476898Y-103045226D01*
X163665256Y-102967205D01*
X163834774Y-102853937D01*
X163978937Y-102709774D01*
X164092205Y-102540256D01*
X164170226Y-102351898D01*
X164210000Y-102151939D01*
X164210000Y-101948061D01*
X164170226Y-101748102D01*
X164092205Y-101559744D01*
X163978937Y-101390226D01*
X163834774Y-101246063D01*
X163665256Y-101132795D01*
X163476898Y-101054774D01*
X163276939Y-101015000D01*
X163073061Y-101015000D01*
X162873102Y-101054774D01*
X162684744Y-101132795D01*
X162515226Y-101246063D01*
X162371063Y-101390226D01*
X162257795Y-101559744D01*
X162179774Y-101748102D01*
X162140000Y-101948061D01*
X159543120Y-101948061D01*
X159525226Y-101858102D01*
X159447205Y-101669744D01*
X159333937Y-101500226D01*
X159189774Y-101356063D01*
X159020256Y-101242795D01*
X158831898Y-101164774D01*
X158631939Y-101125000D01*
X158428061Y-101125000D01*
X158228102Y-101164774D01*
X158039744Y-101242795D01*
X157870226Y-101356063D01*
X157726063Y-101500226D01*
X157612795Y-101669744D01*
X157534774Y-101858102D01*
X157495000Y-102058061D01*
X138435000Y-102058061D01*
X138435000Y-101878061D01*
X138395226Y-101678102D01*
X138317205Y-101489744D01*
X138203937Y-101320226D01*
X138059774Y-101176063D01*
X137890256Y-101062795D01*
X137701898Y-100984774D01*
X137501939Y-100945000D01*
X137298061Y-100945000D01*
X137098102Y-100984774D01*
X136909744Y-101062795D01*
X136769928Y-101156217D01*
X136769774Y-101156063D01*
X136600256Y-101042795D01*
X136411898Y-100964774D01*
X136211939Y-100925000D01*
X136008061Y-100925000D01*
X135808102Y-100964774D01*
X135619744Y-101042795D01*
X135450226Y-101156063D01*
X135306063Y-101300226D01*
X135192795Y-101469744D01*
X135114774Y-101658102D01*
X135075000Y-101858061D01*
X125710000Y-101858061D01*
X125710000Y-100598061D01*
X130645000Y-100598061D01*
X130645000Y-100801939D01*
X130684774Y-101001898D01*
X130762795Y-101190256D01*
X130876063Y-101359774D01*
X131020226Y-101503937D01*
X131189744Y-101617205D01*
X131378102Y-101695226D01*
X131578061Y-101735000D01*
X131781939Y-101735000D01*
X131981898Y-101695226D01*
X132170256Y-101617205D01*
X132339774Y-101503937D01*
X132483937Y-101359774D01*
X132597205Y-101190256D01*
X132675226Y-101001898D01*
X132715000Y-100801939D01*
X132715000Y-100598061D01*
X132675226Y-100398102D01*
X132597205Y-100209744D01*
X132483937Y-100040226D01*
X132339774Y-99896063D01*
X132170256Y-99782795D01*
X131981898Y-99704774D01*
X131781939Y-99665000D01*
X131578061Y-99665000D01*
X131378102Y-99704774D01*
X131189744Y-99782795D01*
X131020226Y-99896063D01*
X130876063Y-100040226D01*
X130762795Y-100209744D01*
X130684774Y-100398102D01*
X130645000Y-100598061D01*
X125710000Y-100598061D01*
X125710000Y-98398061D01*
X145965000Y-98398061D01*
X145965000Y-98601939D01*
X146004774Y-98801898D01*
X146082795Y-98990256D01*
X146196063Y-99159774D01*
X146340226Y-99303937D01*
X146509744Y-99417205D01*
X146698102Y-99495226D01*
X146898061Y-99535000D01*
X147101939Y-99535000D01*
X147301898Y-99495226D01*
X147490256Y-99417205D01*
X147659774Y-99303937D01*
X147715650Y-99248061D01*
X162140000Y-99248061D01*
X162140000Y-99451939D01*
X162179774Y-99651898D01*
X162257795Y-99840256D01*
X162371063Y-100009774D01*
X162515226Y-100153937D01*
X162684744Y-100267205D01*
X162873102Y-100345226D01*
X163073061Y-100385000D01*
X163276939Y-100385000D01*
X163476898Y-100345226D01*
X163665256Y-100267205D01*
X163834774Y-100153937D01*
X163978937Y-100009774D01*
X164092205Y-99840256D01*
X164170226Y-99651898D01*
X164210000Y-99451939D01*
X164210000Y-99248061D01*
X164170226Y-99048102D01*
X164092205Y-98859744D01*
X163978937Y-98690226D01*
X163834774Y-98546063D01*
X163665256Y-98432795D01*
X163476898Y-98354774D01*
X163276939Y-98315000D01*
X163073061Y-98315000D01*
X162873102Y-98354774D01*
X162684744Y-98432795D01*
X162515226Y-98546063D01*
X162371063Y-98690226D01*
X162257795Y-98859744D01*
X162179774Y-99048102D01*
X162140000Y-99248061D01*
X147715650Y-99248061D01*
X147803937Y-99159774D01*
X147917205Y-98990256D01*
X147995226Y-98801898D01*
X148035000Y-98601939D01*
X148035000Y-98398061D01*
X147995226Y-98198102D01*
X147917205Y-98009744D01*
X147803937Y-97840226D01*
X147659774Y-97696063D01*
X147490256Y-97582795D01*
X147301898Y-97504774D01*
X147101939Y-97465000D01*
X146898061Y-97465000D01*
X146698102Y-97504774D01*
X146509744Y-97582795D01*
X146340226Y-97696063D01*
X146196063Y-97840226D01*
X146082795Y-98009744D01*
X146004774Y-98198102D01*
X145965000Y-98398061D01*
X125710000Y-98398061D01*
X125710000Y-96938061D01*
X133945000Y-96938061D01*
X133945000Y-97141939D01*
X133984774Y-97341898D01*
X134062795Y-97530256D01*
X134176063Y-97699774D01*
X134320226Y-97843937D01*
X134489744Y-97957205D01*
X134678102Y-98035226D01*
X134878061Y-98075000D01*
X135081939Y-98075000D01*
X135281898Y-98035226D01*
X135470256Y-97957205D01*
X135639774Y-97843937D01*
X135783937Y-97699774D01*
X135897205Y-97530256D01*
X135975226Y-97341898D01*
X136015000Y-97141939D01*
X136015000Y-96938061D01*
X135975226Y-96738102D01*
X135897205Y-96549744D01*
X135783937Y-96380226D01*
X135639774Y-96236063D01*
X135470256Y-96122795D01*
X135281898Y-96044774D01*
X135081939Y-96005000D01*
X134878061Y-96005000D01*
X134678102Y-96044774D01*
X134489744Y-96122795D01*
X134320226Y-96236063D01*
X134176063Y-96380226D01*
X134062795Y-96549744D01*
X133984774Y-96738102D01*
X133945000Y-96938061D01*
X125710000Y-96938061D01*
X125710000Y-93378061D01*
X136775000Y-93378061D01*
X136775000Y-93581939D01*
X136814774Y-93781898D01*
X136892795Y-93970256D01*
X137006063Y-94139774D01*
X137150226Y-94283937D01*
X137319744Y-94397205D01*
X137337255Y-94404458D01*
X137170226Y-94516063D01*
X137026063Y-94660226D01*
X136912795Y-94829744D01*
X136834774Y-95018102D01*
X136795000Y-95218061D01*
X136795000Y-95421939D01*
X136834774Y-95621898D01*
X136912795Y-95810256D01*
X137026063Y-95979774D01*
X137170226Y-96123937D01*
X137339744Y-96237205D01*
X137528102Y-96315226D01*
X137728061Y-96355000D01*
X137931939Y-96355000D01*
X138131898Y-96315226D01*
X138320256Y-96237205D01*
X138489774Y-96123937D01*
X138633937Y-95979774D01*
X138747205Y-95810256D01*
X138825226Y-95621898D01*
X138865000Y-95421939D01*
X138865000Y-95248061D01*
X151965000Y-95248061D01*
X151965000Y-95451939D01*
X152004774Y-95651898D01*
X152082795Y-95840256D01*
X152196063Y-96009774D01*
X152340226Y-96153937D01*
X152509744Y-96267205D01*
X152698102Y-96345226D01*
X152891196Y-96383634D01*
X152904774Y-96451898D01*
X152982795Y-96640256D01*
X153096063Y-96809774D01*
X153240226Y-96953937D01*
X153409744Y-97067205D01*
X153598102Y-97145226D01*
X153798061Y-97185000D01*
X154001939Y-97185000D01*
X154201898Y-97145226D01*
X154390256Y-97067205D01*
X154559774Y-96953937D01*
X154703937Y-96809774D01*
X154817205Y-96640256D01*
X154895226Y-96451898D01*
X154935000Y-96251939D01*
X154935000Y-96048061D01*
X154895226Y-95848102D01*
X154817205Y-95659744D01*
X154703937Y-95490226D01*
X154559774Y-95346063D01*
X154390256Y-95232795D01*
X154201898Y-95154774D01*
X154008804Y-95116366D01*
X153995226Y-95048102D01*
X153917205Y-94859744D01*
X153803937Y-94690226D01*
X153659774Y-94546063D01*
X153490256Y-94432795D01*
X153301898Y-94354774D01*
X153101939Y-94315000D01*
X152898061Y-94315000D01*
X152698102Y-94354774D01*
X152509744Y-94432795D01*
X152340226Y-94546063D01*
X152196063Y-94690226D01*
X152082795Y-94859744D01*
X152004774Y-95048102D01*
X151965000Y-95248061D01*
X138865000Y-95248061D01*
X138865000Y-95218061D01*
X138825226Y-95018102D01*
X138747205Y-94829744D01*
X138633937Y-94660226D01*
X138489774Y-94516063D01*
X138320256Y-94402795D01*
X138302745Y-94395542D01*
X138469774Y-94283937D01*
X138613937Y-94139774D01*
X138727205Y-93970256D01*
X138805226Y-93781898D01*
X138845000Y-93581939D01*
X138845000Y-93378061D01*
X138829088Y-93298061D01*
X140815000Y-93298061D01*
X140815000Y-93501939D01*
X140854774Y-93701898D01*
X140932795Y-93890256D01*
X141046063Y-94059774D01*
X141190226Y-94203937D01*
X141359744Y-94317205D01*
X141548102Y-94395226D01*
X141748061Y-94435000D01*
X141951939Y-94435000D01*
X142151898Y-94395226D01*
X142340256Y-94317205D01*
X142509774Y-94203937D01*
X142653937Y-94059774D01*
X142767205Y-93890256D01*
X142845226Y-93701898D01*
X142885000Y-93501939D01*
X142885000Y-93398061D01*
X145965000Y-93398061D01*
X145965000Y-93601939D01*
X146004774Y-93801898D01*
X146082795Y-93990256D01*
X146196063Y-94159774D01*
X146340226Y-94303937D01*
X146509744Y-94417205D01*
X146698102Y-94495226D01*
X146898061Y-94535000D01*
X147101939Y-94535000D01*
X147301898Y-94495226D01*
X147490256Y-94417205D01*
X147659774Y-94303937D01*
X147705650Y-94258061D01*
X168515000Y-94258061D01*
X168515000Y-94461939D01*
X168554774Y-94661898D01*
X168632795Y-94850256D01*
X168746063Y-95019774D01*
X168890226Y-95163937D01*
X169059744Y-95277205D01*
X169248102Y-95355226D01*
X169448061Y-95395000D01*
X169651939Y-95395000D01*
X169851898Y-95355226D01*
X170040256Y-95277205D01*
X170209774Y-95163937D01*
X170353937Y-95019774D01*
X170467205Y-94850256D01*
X170545226Y-94661898D01*
X170585000Y-94461939D01*
X170585000Y-94258061D01*
X170545226Y-94058102D01*
X170467205Y-93869744D01*
X170353937Y-93700226D01*
X170209774Y-93556063D01*
X170040256Y-93442795D01*
X169851898Y-93364774D01*
X169651939Y-93325000D01*
X169448061Y-93325000D01*
X169248102Y-93364774D01*
X169059744Y-93442795D01*
X168890226Y-93556063D01*
X168746063Y-93700226D01*
X168632795Y-93869744D01*
X168554774Y-94058102D01*
X168515000Y-94258061D01*
X147705650Y-94258061D01*
X147803937Y-94159774D01*
X147917205Y-93990256D01*
X147995226Y-93801898D01*
X148035000Y-93601939D01*
X148035000Y-93398061D01*
X147995226Y-93198102D01*
X147917205Y-93009744D01*
X147803937Y-92840226D01*
X147659774Y-92696063D01*
X147490256Y-92582795D01*
X147301898Y-92504774D01*
X147101939Y-92465000D01*
X146898061Y-92465000D01*
X146698102Y-92504774D01*
X146509744Y-92582795D01*
X146340226Y-92696063D01*
X146196063Y-92840226D01*
X146082795Y-93009744D01*
X146004774Y-93198102D01*
X145965000Y-93398061D01*
X142885000Y-93398061D01*
X142885000Y-93298061D01*
X142845226Y-93098102D01*
X142767205Y-92909744D01*
X142653937Y-92740226D01*
X142509774Y-92596063D01*
X142340256Y-92482795D01*
X142151898Y-92404774D01*
X141951939Y-92365000D01*
X141748061Y-92365000D01*
X141548102Y-92404774D01*
X141359744Y-92482795D01*
X141190226Y-92596063D01*
X141046063Y-92740226D01*
X140932795Y-92909744D01*
X140854774Y-93098102D01*
X140815000Y-93298061D01*
X138829088Y-93298061D01*
X138805226Y-93178102D01*
X138727205Y-92989744D01*
X138613937Y-92820226D01*
X138469774Y-92676063D01*
X138300256Y-92562795D01*
X138111898Y-92484774D01*
X137911939Y-92445000D01*
X137708061Y-92445000D01*
X137508102Y-92484774D01*
X137319744Y-92562795D01*
X137150226Y-92676063D01*
X137006063Y-92820226D01*
X136892795Y-92989744D01*
X136814774Y-93178102D01*
X136775000Y-93378061D01*
X125710000Y-93378061D01*
X125710000Y-89498061D01*
X132295000Y-89498061D01*
X132295000Y-89701939D01*
X132334774Y-89901898D01*
X132412795Y-90090256D01*
X132526063Y-90259774D01*
X132670226Y-90403937D01*
X132839744Y-90517205D01*
X133028102Y-90595226D01*
X133185931Y-90626620D01*
X133224774Y-90821898D01*
X133302795Y-91010256D01*
X133416063Y-91179774D01*
X133560226Y-91323937D01*
X133729744Y-91437205D01*
X133918102Y-91515226D01*
X134118061Y-91555000D01*
X134321939Y-91555000D01*
X134521898Y-91515226D01*
X134563337Y-91498061D01*
X142365000Y-91498061D01*
X142365000Y-91701939D01*
X142404774Y-91901898D01*
X142482795Y-92090256D01*
X142596063Y-92259774D01*
X142740226Y-92403937D01*
X142909744Y-92517205D01*
X143098102Y-92595226D01*
X143298061Y-92635000D01*
X143501939Y-92635000D01*
X143701898Y-92595226D01*
X143890256Y-92517205D01*
X144059774Y-92403937D01*
X144203937Y-92259774D01*
X144317205Y-92090256D01*
X144395226Y-91901898D01*
X144435000Y-91701939D01*
X144435000Y-91498061D01*
X144395226Y-91298102D01*
X144317205Y-91109744D01*
X144203937Y-90940226D01*
X144059774Y-90796063D01*
X143890256Y-90682795D01*
X143701898Y-90604774D01*
X143501939Y-90565000D01*
X143298061Y-90565000D01*
X143098102Y-90604774D01*
X142909744Y-90682795D01*
X142740226Y-90796063D01*
X142596063Y-90940226D01*
X142482795Y-91109744D01*
X142404774Y-91298102D01*
X142365000Y-91498061D01*
X134563337Y-91498061D01*
X134710256Y-91437205D01*
X134879774Y-91323937D01*
X135023937Y-91179774D01*
X135137205Y-91010256D01*
X135215226Y-90821898D01*
X135255000Y-90621939D01*
X135255000Y-90418061D01*
X135215226Y-90218102D01*
X135137205Y-90029744D01*
X135049218Y-89898061D01*
X143765000Y-89898061D01*
X143765000Y-90101939D01*
X143804774Y-90301898D01*
X143882795Y-90490256D01*
X143996063Y-90659774D01*
X144140226Y-90803937D01*
X144309744Y-90917205D01*
X144498102Y-90995226D01*
X144698061Y-91035000D01*
X144901939Y-91035000D01*
X145101898Y-90995226D01*
X145290256Y-90917205D01*
X145459774Y-90803937D01*
X145603937Y-90659774D01*
X145717205Y-90490256D01*
X145795226Y-90301898D01*
X145835000Y-90101939D01*
X145835000Y-89898061D01*
X145795226Y-89698102D01*
X145717205Y-89509744D01*
X145603937Y-89340226D01*
X145459774Y-89196063D01*
X145290256Y-89082795D01*
X145101898Y-89004774D01*
X144901939Y-88965000D01*
X144698061Y-88965000D01*
X144498102Y-89004774D01*
X144309744Y-89082795D01*
X144140226Y-89196063D01*
X143996063Y-89340226D01*
X143882795Y-89509744D01*
X143804774Y-89698102D01*
X143765000Y-89898061D01*
X135049218Y-89898061D01*
X135023937Y-89860226D01*
X134879774Y-89716063D01*
X134710256Y-89602795D01*
X134521898Y-89524774D01*
X134364069Y-89493380D01*
X134325226Y-89298102D01*
X134247205Y-89109744D01*
X134133937Y-88940226D01*
X133989774Y-88796063D01*
X133820256Y-88682795D01*
X133631898Y-88604774D01*
X133431939Y-88565000D01*
X133228061Y-88565000D01*
X133028102Y-88604774D01*
X132839744Y-88682795D01*
X132670226Y-88796063D01*
X132526063Y-88940226D01*
X132412795Y-89109744D01*
X132334774Y-89298102D01*
X132295000Y-89498061D01*
X125710000Y-89498061D01*
X125710000Y-87522313D01*
X125784647Y-86335830D01*
X125849079Y-85998061D01*
X130815000Y-85998061D01*
X130815000Y-86201939D01*
X130854774Y-86401898D01*
X130932795Y-86590256D01*
X131046063Y-86759774D01*
X131190226Y-86903937D01*
X131359744Y-87017205D01*
X131548102Y-87095226D01*
X131611365Y-87107810D01*
X131682795Y-87280256D01*
X131796063Y-87449774D01*
X131940226Y-87593937D01*
X132109744Y-87707205D01*
X132298102Y-87785226D01*
X132498061Y-87825000D01*
X132701939Y-87825000D01*
X132901898Y-87785226D01*
X133090256Y-87707205D01*
X133259774Y-87593937D01*
X133403937Y-87449774D01*
X133517205Y-87280256D01*
X133595226Y-87091898D01*
X133631793Y-86908061D01*
X138315000Y-86908061D01*
X138315000Y-87111939D01*
X138354774Y-87311898D01*
X138432795Y-87500256D01*
X138546063Y-87669774D01*
X138690226Y-87813937D01*
X138859744Y-87927205D01*
X139048102Y-88005226D01*
X139248061Y-88045000D01*
X139451939Y-88045000D01*
X139651898Y-88005226D01*
X139840256Y-87927205D01*
X140009774Y-87813937D01*
X140153937Y-87669774D01*
X140267205Y-87500256D01*
X140345226Y-87311898D01*
X140385000Y-87111939D01*
X140385000Y-87088061D01*
X147715000Y-87088061D01*
X147715000Y-87291939D01*
X147754774Y-87491898D01*
X147832795Y-87680256D01*
X147946063Y-87849774D01*
X148090226Y-87993937D01*
X148259744Y-88107205D01*
X148448102Y-88185226D01*
X148648061Y-88225000D01*
X148851939Y-88225000D01*
X149051898Y-88185226D01*
X149240256Y-88107205D01*
X149409774Y-87993937D01*
X149553937Y-87849774D01*
X149667205Y-87680256D01*
X149745226Y-87491898D01*
X149785000Y-87291939D01*
X149785000Y-87088061D01*
X149745226Y-86888102D01*
X149667205Y-86699744D01*
X149553937Y-86530226D01*
X149409774Y-86386063D01*
X149240256Y-86272795D01*
X149051898Y-86194774D01*
X148851939Y-86155000D01*
X148648061Y-86155000D01*
X148448102Y-86194774D01*
X148259744Y-86272795D01*
X148090226Y-86386063D01*
X147946063Y-86530226D01*
X147832795Y-86699744D01*
X147754774Y-86888102D01*
X147715000Y-87088061D01*
X140385000Y-87088061D01*
X140385000Y-86908061D01*
X140345226Y-86708102D01*
X140267205Y-86519744D01*
X140153937Y-86350226D01*
X140009774Y-86206063D01*
X139840256Y-86092795D01*
X139651898Y-86014774D01*
X139451939Y-85975000D01*
X139248061Y-85975000D01*
X139048102Y-86014774D01*
X138859744Y-86092795D01*
X138690226Y-86206063D01*
X138546063Y-86350226D01*
X138432795Y-86519744D01*
X138354774Y-86708102D01*
X138315000Y-86908061D01*
X133631793Y-86908061D01*
X133635000Y-86891939D01*
X133635000Y-86688061D01*
X133595226Y-86488102D01*
X133517205Y-86299744D01*
X133403937Y-86130226D01*
X133259774Y-85986063D01*
X133090256Y-85872795D01*
X132901898Y-85794774D01*
X132838635Y-85782190D01*
X132767205Y-85609744D01*
X132653937Y-85440226D01*
X132509774Y-85296063D01*
X132340256Y-85182795D01*
X132151898Y-85104774D01*
X131951939Y-85065000D01*
X131748061Y-85065000D01*
X131548102Y-85104774D01*
X131359744Y-85182795D01*
X131190226Y-85296063D01*
X131046063Y-85440226D01*
X130932795Y-85609744D01*
X130854774Y-85798102D01*
X130815000Y-85998061D01*
X125849079Y-85998061D01*
X126003222Y-85190019D01*
X126363682Y-84080638D01*
X126860339Y-83025187D01*
X127480442Y-82048061D01*
X133245000Y-82048061D01*
X133245000Y-82251939D01*
X133284774Y-82451898D01*
X133362795Y-82640256D01*
X133476063Y-82809774D01*
X133620226Y-82953937D01*
X133789744Y-83067205D01*
X133978102Y-83145226D01*
X134178061Y-83185000D01*
X134381939Y-83185000D01*
X134581898Y-83145226D01*
X134770256Y-83067205D01*
X134939774Y-82953937D01*
X135083937Y-82809774D01*
X135197205Y-82640256D01*
X135275226Y-82451898D01*
X135315000Y-82251939D01*
X135315000Y-82048061D01*
X135275226Y-81848102D01*
X135197205Y-81659744D01*
X135083937Y-81490226D01*
X134939774Y-81346063D01*
X134770256Y-81232795D01*
X134581898Y-81154774D01*
X134381939Y-81115000D01*
X134178061Y-81115000D01*
X133978102Y-81154774D01*
X133789744Y-81232795D01*
X133620226Y-81346063D01*
X133476063Y-81490226D01*
X133362795Y-81659744D01*
X133284774Y-81848102D01*
X133245000Y-82048061D01*
X127480442Y-82048061D01*
X127485370Y-82040297D01*
X128228903Y-81141520D01*
X128605299Y-80788061D01*
X135975000Y-80788061D01*
X135975000Y-80991939D01*
X136014774Y-81191898D01*
X136092795Y-81380256D01*
X136206063Y-81549774D01*
X136350226Y-81693937D01*
X136519744Y-81807205D01*
X136708102Y-81885226D01*
X136825000Y-81908478D01*
X136825000Y-81911939D01*
X136864774Y-82111898D01*
X136942795Y-82300256D01*
X137056063Y-82469774D01*
X137200226Y-82613937D01*
X137369744Y-82727205D01*
X137558102Y-82805226D01*
X137758061Y-82845000D01*
X137961939Y-82845000D01*
X138161898Y-82805226D01*
X138227479Y-82778061D01*
X142675000Y-82778061D01*
X142675000Y-82981939D01*
X142714774Y-83181898D01*
X142792795Y-83370256D01*
X142906063Y-83539774D01*
X143050226Y-83683937D01*
X143219744Y-83797205D01*
X143408102Y-83875226D01*
X143608061Y-83915000D01*
X143811939Y-83915000D01*
X144011898Y-83875226D01*
X144200256Y-83797205D01*
X144369774Y-83683937D01*
X144513937Y-83539774D01*
X144627205Y-83370256D01*
X144705226Y-83181898D01*
X144745000Y-82981939D01*
X144745000Y-82778061D01*
X144705226Y-82578102D01*
X144627205Y-82389744D01*
X144513937Y-82220226D01*
X144369774Y-82076063D01*
X144200256Y-81962795D01*
X144011898Y-81884774D01*
X143811939Y-81845000D01*
X143608061Y-81845000D01*
X143408102Y-81884774D01*
X143219744Y-81962795D01*
X143050226Y-82076063D01*
X142906063Y-82220226D01*
X142792795Y-82389744D01*
X142714774Y-82578102D01*
X142675000Y-82778061D01*
X138227479Y-82778061D01*
X138350256Y-82727205D01*
X138519774Y-82613937D01*
X138663937Y-82469774D01*
X138777205Y-82300256D01*
X138855226Y-82111898D01*
X138895000Y-81911939D01*
X138895000Y-81708061D01*
X138855226Y-81508102D01*
X138777205Y-81319744D01*
X138663937Y-81150226D01*
X138519774Y-81006063D01*
X138350256Y-80892795D01*
X138161898Y-80814774D01*
X138045000Y-80791522D01*
X138045000Y-80788061D01*
X138005226Y-80588102D01*
X137927205Y-80399744D01*
X137813937Y-80230226D01*
X137669774Y-80086063D01*
X137500256Y-79972795D01*
X137311898Y-79894774D01*
X137111939Y-79855000D01*
X136908061Y-79855000D01*
X136708102Y-79894774D01*
X136519744Y-79972795D01*
X136350226Y-80086063D01*
X136206063Y-80230226D01*
X136092795Y-80399744D01*
X136014774Y-80588102D01*
X135975000Y-80788061D01*
X128605299Y-80788061D01*
X129079228Y-80343013D01*
X129808539Y-79813137D01*
X143395000Y-79813137D01*
X143395000Y-80026863D01*
X143436696Y-80236483D01*
X143518485Y-80433940D01*
X143637225Y-80611647D01*
X143788353Y-80762775D01*
X143966060Y-80881515D01*
X144163517Y-80963304D01*
X144373137Y-81005000D01*
X144586863Y-81005000D01*
X144796483Y-80963304D01*
X144993940Y-80881515D01*
X145171647Y-80762775D01*
X145322775Y-80611647D01*
X145441515Y-80433940D01*
X145523304Y-80236483D01*
X145565000Y-80026863D01*
X145565000Y-79813137D01*
X146395000Y-79813137D01*
X146395000Y-80026863D01*
X146436696Y-80236483D01*
X146518485Y-80433940D01*
X146637225Y-80611647D01*
X146788353Y-80762775D01*
X146966060Y-80881515D01*
X147163517Y-80963304D01*
X147373137Y-81005000D01*
X147586863Y-81005000D01*
X147796483Y-80963304D01*
X147993940Y-80881515D01*
X148171647Y-80762775D01*
X148322775Y-80611647D01*
X148441515Y-80433940D01*
X148523304Y-80236483D01*
X148565000Y-80026863D01*
X148565000Y-79813137D01*
X148523304Y-79603517D01*
X148441515Y-79406060D01*
X148322775Y-79228353D01*
X148171647Y-79077225D01*
X147993940Y-78958485D01*
X147796483Y-78876696D01*
X147586863Y-78835000D01*
X147373137Y-78835000D01*
X147163517Y-78876696D01*
X146966060Y-78958485D01*
X146788353Y-79077225D01*
X146637225Y-79228353D01*
X146518485Y-79406060D01*
X146436696Y-79603517D01*
X146395000Y-79813137D01*
X145565000Y-79813137D01*
X145523304Y-79603517D01*
X145441515Y-79406060D01*
X145322775Y-79228353D01*
X145171647Y-79077225D01*
X144993940Y-78958485D01*
X144796483Y-78876696D01*
X144586863Y-78835000D01*
X144373137Y-78835000D01*
X144163517Y-78876696D01*
X143966060Y-78958485D01*
X143788353Y-79077225D01*
X143637225Y-79228353D01*
X143518485Y-79406060D01*
X143436696Y-79603517D01*
X143395000Y-79813137D01*
X129808539Y-79813137D01*
X130022922Y-79657379D01*
X131045110Y-79095425D01*
X132129662Y-78666021D01*
X133259494Y-78375929D01*
X134427864Y-78228331D01*
X135011165Y-78210000D01*
X154756289Y-78210000D01*
X154686063Y-78280226D01*
G37*
%TD.AperFunction*%
%TD*%
M02*
