M48
; DRILL file {KiCad (5.1.10)-1} date 09/20/21 20:27:06
; FORMAT={3:3/ absolute / metric / suppress leading zeros}
; #@! TF.CreationDate,2021-09-20T20:27:06+02:00
; #@! TF.GenerationSoftware,Kicad,Pcbnew,(5.1.10)-1
FMAT,2
METRIC,TZ
T1C0.400
T2C0.500
T3C0.600
T4C0.850
T5C1.300
T6C0.900
%
G90
G05
T1
X129286Y-111506
X131000Y-108750
X131680Y-100700
X131850Y-86100
X132080Y-103886
X132600Y-84390
X132600Y-86790
X133330Y-89600
X134112Y-104902
X134220Y-90520
X134280Y-82150
X134980Y-97040
X136000Y-108750
X136110Y-101960
X136660Y-111230
X137010Y-80890
X137330Y-115430
X137400Y-101980
X137414Y-97282
X137420Y-111930
X137430Y-109530
X137810Y-93480
X137830Y-95320
X137860Y-81810
X138650Y-82600
X139350Y-87010
X139446Y-93472
X139446Y-95504
X140810Y-109580
X140970Y-88138
X141450Y-110500
X141850Y-93400
X141880Y-91190
X142500Y-110350
X143400Y-91600
X143710Y-82880
X144800Y-90000
X147000Y-93500
X147000Y-98500
X148210Y-82880
X148750Y-87190
X150400Y-110700
X150760Y-115850
X150770Y-97060
X150770Y-114300
X150830Y-108160
X151260Y-109810
X151740Y-106690
X152450Y-107410
X153000Y-95350
X153900Y-96150
X155290Y-115060
X155490Y-78940
X156190Y-115900
X156380Y-106450
X156380Y-108300
X158030Y-78950
X158520Y-104830
X158530Y-102160
X159000Y-110350
X159300Y-78950
X160460Y-103800
X160470Y-102950
X160610Y-78950
X161290Y-115450
X161290Y-117470
X163175Y-99350
X163175Y-102050
X163450Y-114900
X164490Y-105460
X164540Y-102880
X165530Y-114920
X167490Y-102890
X167510Y-105470
X169480Y-113820
X169550Y-94360
X170310Y-114760
X172950Y-94150
X172950Y-95000
X173800Y-94150
X173800Y-95000
T2
X150410Y-125420
X151660Y-125420
X152910Y-125420
X154160Y-125420
T4
X175200Y-93800
X175200Y-98800
T5
X163250Y-125500
X168250Y-125500
T6
X144480Y-79920
X147480Y-79920
T3
G00X177550Y-92800
M15
G01X178250Y-92800
M16
G05
G00X178250Y-99800
M15
G01X177550Y-99800
M16
G05
T0
M30
