%TF.GenerationSoftware,KiCad,Pcbnew,(5.1.10)-1*%
%TF.CreationDate,2021-09-20T20:27:13+02:00*%
%TF.ProjectId,STM32F405RG +  Gyro + I2C,53544d33-3246-4343-9035-5247202b2020,rev?*%
%TF.SameCoordinates,Original*%
%TF.FileFunction,Copper,L4,Bot*%
%TF.FilePolarity,Positive*%
%FSLAX46Y46*%
G04 Gerber Fmt 4.6, Leading zero omitted, Abs format (unit mm)*
G04 Created by KiCad (PCBNEW (5.1.10)-1) date 2021-09-20 20:27:13*
%MOMM*%
%LPD*%
G01*
G04 APERTURE LIST*
%TA.AperFunction,ComponentPad*%
%ADD10O,1.900000X1.200000*%
%TD*%
%TA.AperFunction,ComponentPad*%
%ADD11C,1.450000*%
%TD*%
%TA.AperFunction,ComponentPad*%
%ADD12C,2.600000*%
%TD*%
%TA.AperFunction,ComponentPad*%
%ADD13R,2.600000X2.600000*%
%TD*%
%TA.AperFunction,ComponentPad*%
%ADD14O,0.800000X1.300000*%
%TD*%
%TA.AperFunction,ViaPad*%
%ADD15C,0.800000*%
%TD*%
%TA.AperFunction,Conductor*%
%ADD16C,0.300000*%
%TD*%
G04 APERTURE END LIST*
D10*
%TO.P,J1,6*%
%TO.N,Net-(J1-Pad6)*%
X177900000Y-92800000D03*
X177900000Y-99800000D03*
D11*
X175200000Y-93800000D03*
X175200000Y-98800000D03*
%TD*%
D12*
%TO.P,J4,2*%
%TO.N,GND*%
X168250000Y-125500000D03*
D13*
%TO.P,J4,1*%
%TO.N,+12V*%
X163250000Y-125500000D03*
%TD*%
%TO.P,J2,1*%
%TO.N,+3V3*%
%TA.AperFunction,ComponentPad*%
G36*
G01*
X150010000Y-125870000D02*
X150010000Y-124970000D01*
G75*
G02*
X150210000Y-124770000I200000J0D01*
G01*
X150610000Y-124770000D01*
G75*
G02*
X150810000Y-124970000I0J-200000D01*
G01*
X150810000Y-125870000D01*
G75*
G02*
X150610000Y-126070000I-200000J0D01*
G01*
X150210000Y-126070000D01*
G75*
G02*
X150010000Y-125870000I0J200000D01*
G01*
G37*
%TD.AperFunction*%
D14*
%TO.P,J2,2*%
%TO.N,USART_TX*%
X151660000Y-125420000D03*
%TO.P,J2,3*%
%TO.N,USART_RX*%
X152910000Y-125420000D03*
%TO.P,J2,4*%
%TO.N,GND*%
X154160000Y-125420000D03*
%TD*%
D15*
%TO.N,GND*%
X163175000Y-102050000D03*
X163175000Y-99350000D03*
X136110000Y-101960000D03*
X136660000Y-111230000D03*
X137420000Y-111930000D03*
X141450000Y-110500000D03*
X140810000Y-109580000D03*
X152450000Y-107410000D03*
X151740000Y-106690000D03*
X151260000Y-109810000D03*
X150400000Y-110700000D03*
X150770000Y-114300000D03*
X153900000Y-96150000D03*
X153000000Y-95350000D03*
X158520000Y-104830000D03*
X158530000Y-102160000D03*
X159000000Y-110350000D03*
X156190000Y-115900000D03*
X155290000Y-115060000D03*
X161290000Y-117470000D03*
X161290000Y-115450000D03*
X165530000Y-114920000D03*
X163450000Y-114900000D03*
X169480000Y-113820000D03*
X170310000Y-114760000D03*
X143710000Y-82880000D03*
X133330000Y-89600000D03*
X134220000Y-90520000D03*
X137010000Y-80890000D03*
X137860000Y-81810000D03*
X169550000Y-94360000D03*
X137400000Y-101980000D03*
X134280000Y-82150000D03*
X139350000Y-87010000D03*
X131850000Y-86100000D03*
X132600000Y-86790000D03*
X148750000Y-87190000D03*
X131680000Y-100700000D03*
X134980000Y-97040000D03*
X137810000Y-93480000D03*
X137830000Y-95320000D03*
X141850000Y-93400000D03*
X172950000Y-95000000D03*
X172950000Y-94150000D03*
X173800000Y-95000000D03*
X173800000Y-94150000D03*
X158030000Y-78950000D03*
X159300000Y-78950000D03*
X155490000Y-78940000D03*
%TO.N,+3V3*%
X160610000Y-78950000D03*
X141880000Y-91190000D03*
X132600000Y-84390000D03*
X150770000Y-97060000D03*
X150760000Y-115850000D03*
X148210000Y-82880000D03*
X138650000Y-82600000D03*
X140970000Y-88138000D03*
X167510000Y-105470000D03*
X164490000Y-105460000D03*
X164540000Y-102880000D03*
X167490000Y-102890000D03*
X160470000Y-102950000D03*
X160460000Y-103800000D03*
X156380000Y-108300000D03*
X156380000Y-106450000D03*
X142500000Y-110350000D03*
X137430000Y-109530000D03*
X137330000Y-115430000D03*
X129286000Y-111506000D03*
X134112000Y-104902000D03*
X132080000Y-103886000D03*
X137414000Y-97282000D03*
X139446000Y-95504000D03*
X139446000Y-93472000D03*
X150830000Y-108160000D03*
%TO.N,TIM2_CH3*%
X131000000Y-108750000D03*
X136000000Y-108750000D03*
%TO.N,BOOT0*%
X144800000Y-90000000D03*
X143400000Y-91600000D03*
%TO.N,NRST*%
X147000000Y-98500000D03*
X147000000Y-93500000D03*
%TD*%
D16*
%TO.N,TIM2_CH3*%
X136000000Y-108750000D02*
X131000000Y-108750000D01*
%TO.N,BOOT0*%
X144800000Y-90200000D02*
X144800000Y-90000000D01*
X143400000Y-91600000D02*
X144800000Y-90200000D01*
%TO.N,NRST*%
X147000000Y-93500000D02*
X147000000Y-98500000D01*
%TD*%
M02*
