%TF.GenerationSoftware,KiCad,Pcbnew,(5.1.10)-1*%
%TF.CreationDate,2021-09-20T20:27:13+02:00*%
%TF.ProjectId,STM32F405RG +  Gyro + I2C,53544d33-3246-4343-9035-5247202b2020,rev?*%
%TF.SameCoordinates,Original*%
%TF.FileFunction,Copper,L2,Inr*%
%TF.FilePolarity,Positive*%
%FSLAX46Y46*%
G04 Gerber Fmt 4.6, Leading zero omitted, Abs format (unit mm)*
G04 Created by KiCad (PCBNEW (5.1.10)-1) date 2021-09-20 20:27:13*
%MOMM*%
%LPD*%
G01*
G04 APERTURE LIST*
%TA.AperFunction,ComponentPad*%
%ADD10O,1.900000X1.200000*%
%TD*%
%TA.AperFunction,ComponentPad*%
%ADD11C,1.450000*%
%TD*%
%TA.AperFunction,ComponentPad*%
%ADD12C,2.600000*%
%TD*%
%TA.AperFunction,ComponentPad*%
%ADD13R,2.600000X2.600000*%
%TD*%
%TA.AperFunction,ComponentPad*%
%ADD14O,0.800000X1.300000*%
%TD*%
%TA.AperFunction,ViaPad*%
%ADD15C,0.800000*%
%TD*%
%TA.AperFunction,Conductor*%
%ADD16C,0.254000*%
%TD*%
%TA.AperFunction,Conductor*%
%ADD17C,0.100000*%
%TD*%
G04 APERTURE END LIST*
D10*
%TO.N,Net-(J1-Pad6)*%
%TO.C,J1*%
X177900000Y-92800000D03*
X177900000Y-99800000D03*
D11*
X175200000Y-93800000D03*
X175200000Y-98800000D03*
%TD*%
D12*
%TO.N,GND*%
%TO.C,J4*%
X168250000Y-125500000D03*
D13*
%TO.N,+12V*%
X163250000Y-125500000D03*
%TD*%
%TO.N,+3V3*%
%TO.C,J2*%
%TA.AperFunction,ComponentPad*%
G36*
G01*
X150010000Y-125870000D02*
X150010000Y-124970000D01*
G75*
G02*
X150210000Y-124770000I200000J0D01*
G01*
X150610000Y-124770000D01*
G75*
G02*
X150810000Y-124970000I0J-200000D01*
G01*
X150810000Y-125870000D01*
G75*
G02*
X150610000Y-126070000I-200000J0D01*
G01*
X150210000Y-126070000D01*
G75*
G02*
X150010000Y-125870000I0J200000D01*
G01*
G37*
%TD.AperFunction*%
D14*
%TO.N,USART_TX*%
X151660000Y-125420000D03*
%TO.N,USART_RX*%
X152910000Y-125420000D03*
%TO.N,GND*%
X154160000Y-125420000D03*
%TD*%
D15*
%TO.N,GND*%
X163175000Y-102050000D03*
X163175000Y-99350000D03*
X136110000Y-101960000D03*
X136660000Y-111230000D03*
X137420000Y-111930000D03*
X141450000Y-110500000D03*
X140810000Y-109580000D03*
X152450000Y-107410000D03*
X151740000Y-106690000D03*
X151260000Y-109810000D03*
X150400000Y-110700000D03*
X150770000Y-114300000D03*
X153900000Y-96150000D03*
X153000000Y-95350000D03*
X158520000Y-104830000D03*
X158530000Y-102160000D03*
X159000000Y-110350000D03*
X156190000Y-115900000D03*
X155290000Y-115060000D03*
X161290000Y-117470000D03*
X161290000Y-115450000D03*
X165530000Y-114920000D03*
X163450000Y-114900000D03*
X169480000Y-113820000D03*
X170310000Y-114760000D03*
X143710000Y-82880000D03*
X133330000Y-89600000D03*
X134220000Y-90520000D03*
X137010000Y-80890000D03*
X137860000Y-81810000D03*
X169550000Y-94360000D03*
X137400000Y-101980000D03*
X134280000Y-82150000D03*
X139350000Y-87010000D03*
X131850000Y-86100000D03*
X132600000Y-86790000D03*
X148750000Y-87190000D03*
X131680000Y-100700000D03*
X134980000Y-97040000D03*
X137810000Y-93480000D03*
X137830000Y-95320000D03*
X141850000Y-93400000D03*
X172950000Y-95000000D03*
X172950000Y-94150000D03*
X173800000Y-95000000D03*
X173800000Y-94150000D03*
X158030000Y-78950000D03*
X159300000Y-78950000D03*
X155490000Y-78940000D03*
%TO.N,+3V3*%
X160610000Y-78950000D03*
X141880000Y-91190000D03*
X132600000Y-84390000D03*
X150770000Y-97060000D03*
X150760000Y-115850000D03*
X148210000Y-82880000D03*
X138650000Y-82600000D03*
X140970000Y-88138000D03*
X167510000Y-105470000D03*
X164490000Y-105460000D03*
X164540000Y-102880000D03*
X167490000Y-102890000D03*
X160470000Y-102950000D03*
X160460000Y-103800000D03*
X156380000Y-108300000D03*
X156380000Y-106450000D03*
X142500000Y-110350000D03*
X137430000Y-109530000D03*
X137330000Y-115430000D03*
X129286000Y-111506000D03*
X134112000Y-104902000D03*
X132080000Y-103886000D03*
X137414000Y-97282000D03*
X139446000Y-95504000D03*
X139446000Y-93472000D03*
X150830000Y-108160000D03*
%TO.N,TIM2_CH3*%
X131000000Y-108750000D03*
X136000000Y-108750000D03*
%TO.N,BOOT0*%
X144800000Y-90000000D03*
X143400000Y-91600000D03*
%TO.N,NRST*%
X147000000Y-98500000D03*
X147000000Y-93500000D03*
%TD*%
D16*
%TO.N,GND*%
X159806063Y-78290226D02*
X159692795Y-78459744D01*
X159614774Y-78648102D01*
X159575000Y-78848061D01*
X159575000Y-79051939D01*
X159614774Y-79251898D01*
X159692795Y-79440256D01*
X159806063Y-79609774D01*
X159950226Y-79753937D01*
X160119744Y-79867205D01*
X160308102Y-79945226D01*
X160508061Y-79985000D01*
X160711939Y-79985000D01*
X160911898Y-79945226D01*
X161100256Y-79867205D01*
X161269774Y-79753937D01*
X161413937Y-79609774D01*
X161527205Y-79440256D01*
X161605226Y-79251898D01*
X161645000Y-79051939D01*
X161645000Y-78848061D01*
X161605226Y-78648102D01*
X161527205Y-78459744D01*
X161413937Y-78290226D01*
X161333711Y-78210000D01*
X169977687Y-78210000D01*
X171164170Y-78284647D01*
X172309981Y-78503222D01*
X173419362Y-78863682D01*
X174474813Y-79360339D01*
X175459703Y-79985370D01*
X176358480Y-80728903D01*
X177156987Y-81579228D01*
X177842621Y-82522922D01*
X178404575Y-83545110D01*
X178833979Y-84629662D01*
X179124071Y-85759494D01*
X179271669Y-86927864D01*
X179290000Y-87511165D01*
X179290000Y-92125831D01*
X179281833Y-92110551D01*
X179127502Y-91922498D01*
X178939449Y-91768167D01*
X178724901Y-91653489D01*
X178492102Y-91582870D01*
X178310665Y-91565000D01*
X177489335Y-91565000D01*
X177307898Y-91582870D01*
X177075099Y-91653489D01*
X176860551Y-91768167D01*
X176672498Y-91922498D01*
X176518167Y-92110551D01*
X176403489Y-92325099D01*
X176332870Y-92557898D01*
X176309025Y-92800000D01*
X176332870Y-93042102D01*
X176335883Y-93052035D01*
X176256381Y-92933051D01*
X176066949Y-92743619D01*
X175844201Y-92594784D01*
X175596697Y-92492264D01*
X175333948Y-92440000D01*
X175066052Y-92440000D01*
X174803303Y-92492264D01*
X174555799Y-92594784D01*
X174333051Y-92743619D01*
X174143619Y-92933051D01*
X173994784Y-93155799D01*
X173892264Y-93403303D01*
X173840000Y-93666052D01*
X173840000Y-93933948D01*
X173892264Y-94196697D01*
X173994784Y-94444201D01*
X174143619Y-94666949D01*
X174333051Y-94856381D01*
X174555799Y-95005216D01*
X174803303Y-95107736D01*
X175066052Y-95160000D01*
X175333948Y-95160000D01*
X175596697Y-95107736D01*
X175844201Y-95005216D01*
X176066949Y-94856381D01*
X176256381Y-94666949D01*
X176405216Y-94444201D01*
X176507736Y-94196697D01*
X176560000Y-93933948D01*
X176560000Y-93666052D01*
X176527016Y-93500232D01*
X176672498Y-93677502D01*
X176860551Y-93831833D01*
X177075099Y-93946511D01*
X177307898Y-94017130D01*
X177489335Y-94035000D01*
X178310665Y-94035000D01*
X178492102Y-94017130D01*
X178724901Y-93946511D01*
X178939449Y-93831833D01*
X179127502Y-93677502D01*
X179281833Y-93489449D01*
X179290000Y-93474169D01*
X179290000Y-99125831D01*
X179281833Y-99110551D01*
X179127502Y-98922498D01*
X178939449Y-98768167D01*
X178724901Y-98653489D01*
X178492102Y-98582870D01*
X178310665Y-98565000D01*
X177489335Y-98565000D01*
X177307898Y-98582870D01*
X177075099Y-98653489D01*
X176860551Y-98768167D01*
X176672498Y-98922498D01*
X176527016Y-99099768D01*
X176560000Y-98933948D01*
X176560000Y-98666052D01*
X176507736Y-98403303D01*
X176405216Y-98155799D01*
X176256381Y-97933051D01*
X176066949Y-97743619D01*
X175844201Y-97594784D01*
X175596697Y-97492264D01*
X175333948Y-97440000D01*
X175066052Y-97440000D01*
X174803303Y-97492264D01*
X174555799Y-97594784D01*
X174333051Y-97743619D01*
X174143619Y-97933051D01*
X173994784Y-98155799D01*
X173892264Y-98403303D01*
X173840000Y-98666052D01*
X173840000Y-98933948D01*
X173892264Y-99196697D01*
X173994784Y-99444201D01*
X174143619Y-99666949D01*
X174333051Y-99856381D01*
X174555799Y-100005216D01*
X174803303Y-100107736D01*
X175066052Y-100160000D01*
X175333948Y-100160000D01*
X175596697Y-100107736D01*
X175844201Y-100005216D01*
X176066949Y-99856381D01*
X176256381Y-99666949D01*
X176335883Y-99547965D01*
X176332870Y-99557898D01*
X176309025Y-99800000D01*
X176332870Y-100042102D01*
X176403489Y-100274901D01*
X176518167Y-100489449D01*
X176672498Y-100677502D01*
X176860551Y-100831833D01*
X177075099Y-100946511D01*
X177307898Y-101017130D01*
X177489335Y-101035000D01*
X178310665Y-101035000D01*
X178492102Y-101017130D01*
X178724901Y-100946511D01*
X178939449Y-100831833D01*
X179127502Y-100677502D01*
X179281833Y-100489449D01*
X179290000Y-100474169D01*
X179290001Y-121477671D01*
X179215353Y-122664169D01*
X178996778Y-123809981D01*
X178636318Y-124919362D01*
X178139661Y-125974813D01*
X177514630Y-126959703D01*
X176771096Y-127858480D01*
X175920773Y-128656987D01*
X174977078Y-129342621D01*
X173954888Y-129904576D01*
X172870338Y-130333979D01*
X171740505Y-130624071D01*
X170572146Y-130771668D01*
X169988835Y-130790000D01*
X135022313Y-130790000D01*
X133835831Y-130715353D01*
X132690019Y-130496778D01*
X131580638Y-130136318D01*
X130525187Y-129639661D01*
X129540297Y-129014630D01*
X128641520Y-128271096D01*
X127843013Y-127420773D01*
X127157379Y-126477078D01*
X126595424Y-125454888D01*
X126403444Y-124970000D01*
X149371928Y-124970000D01*
X149371928Y-125870000D01*
X149388031Y-126033500D01*
X149435722Y-126190716D01*
X149513169Y-126335608D01*
X149617394Y-126462606D01*
X149744392Y-126566831D01*
X149889284Y-126644278D01*
X150046500Y-126691969D01*
X150210000Y-126708072D01*
X150610000Y-126708072D01*
X150773500Y-126691969D01*
X150930716Y-126644278D01*
X151075608Y-126566831D01*
X151101894Y-126545259D01*
X151262008Y-126630841D01*
X151457106Y-126690024D01*
X151660000Y-126710007D01*
X151862895Y-126690024D01*
X152057993Y-126630841D01*
X152237797Y-126534734D01*
X152285001Y-126495995D01*
X152332204Y-126534734D01*
X152512008Y-126630841D01*
X152707106Y-126690024D01*
X152910000Y-126710007D01*
X153112895Y-126690024D01*
X153307993Y-126630841D01*
X153487797Y-126534734D01*
X153536707Y-126494595D01*
X153549885Y-126506351D01*
X153724772Y-126609308D01*
X153757860Y-126623682D01*
X153912000Y-126510423D01*
X153912000Y-125932310D01*
X153930024Y-125872894D01*
X153945000Y-125720837D01*
X153945000Y-125668000D01*
X154408000Y-125668000D01*
X154408000Y-126510423D01*
X154562140Y-126623682D01*
X154595228Y-126609308D01*
X154770115Y-126506351D01*
X154921556Y-126371253D01*
X155043731Y-126209206D01*
X155131944Y-126026438D01*
X155182806Y-125829972D01*
X155036489Y-125668000D01*
X154408000Y-125668000D01*
X153945000Y-125668000D01*
X153945000Y-125119162D01*
X153930024Y-124967105D01*
X153912000Y-124907689D01*
X153912000Y-124329577D01*
X154408000Y-124329577D01*
X154408000Y-125172000D01*
X155036489Y-125172000D01*
X155182806Y-125010028D01*
X155131944Y-124813562D01*
X155043731Y-124630794D01*
X154921556Y-124468747D01*
X154770115Y-124333649D01*
X154595228Y-124230692D01*
X154562140Y-124216318D01*
X154408000Y-124329577D01*
X153912000Y-124329577D01*
X153757860Y-124216318D01*
X153724772Y-124230692D01*
X153549885Y-124333649D01*
X153536707Y-124345405D01*
X153487797Y-124305266D01*
X153307992Y-124209159D01*
X153277800Y-124200000D01*
X161311928Y-124200000D01*
X161311928Y-126800000D01*
X161324188Y-126924482D01*
X161360498Y-127044180D01*
X161419463Y-127154494D01*
X161498815Y-127251185D01*
X161595506Y-127330537D01*
X161705820Y-127389502D01*
X161825518Y-127425812D01*
X161950000Y-127438072D01*
X164550000Y-127438072D01*
X164674482Y-127425812D01*
X164794180Y-127389502D01*
X164904494Y-127330537D01*
X165001185Y-127251185D01*
X165080537Y-127154494D01*
X165139502Y-127044180D01*
X165175429Y-126925744D01*
X167174981Y-126925744D01*
X167317103Y-127205945D01*
X167667842Y-127355165D01*
X168040953Y-127433092D01*
X168422097Y-127436732D01*
X168796627Y-127365943D01*
X169150152Y-127223448D01*
X169182897Y-127205945D01*
X169325019Y-126925744D01*
X168250000Y-125850725D01*
X167174981Y-126925744D01*
X165175429Y-126925744D01*
X165175812Y-126924482D01*
X165188072Y-126800000D01*
X165188072Y-125672097D01*
X166313268Y-125672097D01*
X166384057Y-126046627D01*
X166526552Y-126400152D01*
X166544055Y-126432897D01*
X166824256Y-126575019D01*
X167899275Y-125500000D01*
X168600725Y-125500000D01*
X169675744Y-126575019D01*
X169955945Y-126432897D01*
X170105165Y-126082158D01*
X170183092Y-125709047D01*
X170186732Y-125327903D01*
X170115943Y-124953373D01*
X169973448Y-124599848D01*
X169955945Y-124567103D01*
X169675744Y-124424981D01*
X168600725Y-125500000D01*
X167899275Y-125500000D01*
X166824256Y-124424981D01*
X166544055Y-124567103D01*
X166394835Y-124917842D01*
X166316908Y-125290953D01*
X166313268Y-125672097D01*
X165188072Y-125672097D01*
X165188072Y-124200000D01*
X165175812Y-124075518D01*
X165175430Y-124074256D01*
X167174981Y-124074256D01*
X168250000Y-125149275D01*
X169325019Y-124074256D01*
X169182897Y-123794055D01*
X168832158Y-123644835D01*
X168459047Y-123566908D01*
X168077903Y-123563268D01*
X167703373Y-123634057D01*
X167349848Y-123776552D01*
X167317103Y-123794055D01*
X167174981Y-124074256D01*
X165175430Y-124074256D01*
X165139502Y-123955820D01*
X165080537Y-123845506D01*
X165001185Y-123748815D01*
X164904494Y-123669463D01*
X164794180Y-123610498D01*
X164674482Y-123574188D01*
X164550000Y-123561928D01*
X161950000Y-123561928D01*
X161825518Y-123574188D01*
X161705820Y-123610498D01*
X161595506Y-123669463D01*
X161498815Y-123748815D01*
X161419463Y-123845506D01*
X161360498Y-123955820D01*
X161324188Y-124075518D01*
X161311928Y-124200000D01*
X153277800Y-124200000D01*
X153112894Y-124149976D01*
X152910000Y-124129993D01*
X152707105Y-124149976D01*
X152512007Y-124209159D01*
X152332203Y-124305266D01*
X152285000Y-124344004D01*
X152237797Y-124305266D01*
X152057992Y-124209159D01*
X151862894Y-124149976D01*
X151660000Y-124129993D01*
X151457105Y-124149976D01*
X151262007Y-124209159D01*
X151101894Y-124294741D01*
X151075608Y-124273169D01*
X150930716Y-124195722D01*
X150773500Y-124148031D01*
X150610000Y-124131928D01*
X150210000Y-124131928D01*
X150046500Y-124148031D01*
X149889284Y-124195722D01*
X149744392Y-124273169D01*
X149617394Y-124377394D01*
X149513169Y-124504392D01*
X149435722Y-124649284D01*
X149388031Y-124806500D01*
X149371928Y-124970000D01*
X126403444Y-124970000D01*
X126166021Y-124370338D01*
X125875929Y-123240505D01*
X125728332Y-122072146D01*
X125710000Y-121488835D01*
X125710000Y-115328061D01*
X136295000Y-115328061D01*
X136295000Y-115531939D01*
X136334774Y-115731898D01*
X136412795Y-115920256D01*
X136526063Y-116089774D01*
X136670226Y-116233937D01*
X136839744Y-116347205D01*
X137028102Y-116425226D01*
X137228061Y-116465000D01*
X137431939Y-116465000D01*
X137631898Y-116425226D01*
X137820256Y-116347205D01*
X137989774Y-116233937D01*
X138133937Y-116089774D01*
X138247205Y-115920256D01*
X138318531Y-115748061D01*
X149725000Y-115748061D01*
X149725000Y-115951939D01*
X149764774Y-116151898D01*
X149842795Y-116340256D01*
X149956063Y-116509774D01*
X150100226Y-116653937D01*
X150269744Y-116767205D01*
X150458102Y-116845226D01*
X150658061Y-116885000D01*
X150861939Y-116885000D01*
X151061898Y-116845226D01*
X151250256Y-116767205D01*
X151419774Y-116653937D01*
X151563937Y-116509774D01*
X151677205Y-116340256D01*
X151755226Y-116151898D01*
X151795000Y-115951939D01*
X151795000Y-115748061D01*
X151755226Y-115548102D01*
X151677205Y-115359744D01*
X151563937Y-115190226D01*
X151419774Y-115046063D01*
X151250256Y-114932795D01*
X151061898Y-114854774D01*
X150861939Y-114815000D01*
X150658061Y-114815000D01*
X150458102Y-114854774D01*
X150269744Y-114932795D01*
X150100226Y-115046063D01*
X149956063Y-115190226D01*
X149842795Y-115359744D01*
X149764774Y-115548102D01*
X149725000Y-115748061D01*
X138318531Y-115748061D01*
X138325226Y-115731898D01*
X138365000Y-115531939D01*
X138365000Y-115328061D01*
X138325226Y-115128102D01*
X138247205Y-114939744D01*
X138133937Y-114770226D01*
X137989774Y-114626063D01*
X137820256Y-114512795D01*
X137631898Y-114434774D01*
X137431939Y-114395000D01*
X137228061Y-114395000D01*
X137028102Y-114434774D01*
X136839744Y-114512795D01*
X136670226Y-114626063D01*
X136526063Y-114770226D01*
X136412795Y-114939744D01*
X136334774Y-115128102D01*
X136295000Y-115328061D01*
X125710000Y-115328061D01*
X125710000Y-111404061D01*
X128251000Y-111404061D01*
X128251000Y-111607939D01*
X128290774Y-111807898D01*
X128368795Y-111996256D01*
X128482063Y-112165774D01*
X128626226Y-112309937D01*
X128795744Y-112423205D01*
X128984102Y-112501226D01*
X129184061Y-112541000D01*
X129387939Y-112541000D01*
X129587898Y-112501226D01*
X129776256Y-112423205D01*
X129945774Y-112309937D01*
X130089937Y-112165774D01*
X130203205Y-111996256D01*
X130281226Y-111807898D01*
X130321000Y-111607939D01*
X130321000Y-111404061D01*
X130281226Y-111204102D01*
X130203205Y-111015744D01*
X130089937Y-110846226D01*
X129945774Y-110702063D01*
X129776256Y-110588795D01*
X129587898Y-110510774D01*
X129387939Y-110471000D01*
X129184061Y-110471000D01*
X128984102Y-110510774D01*
X128795744Y-110588795D01*
X128626226Y-110702063D01*
X128482063Y-110846226D01*
X128368795Y-111015744D01*
X128290774Y-111204102D01*
X128251000Y-111404061D01*
X125710000Y-111404061D01*
X125710000Y-108648061D01*
X129965000Y-108648061D01*
X129965000Y-108851939D01*
X130004774Y-109051898D01*
X130082795Y-109240256D01*
X130196063Y-109409774D01*
X130340226Y-109553937D01*
X130509744Y-109667205D01*
X130698102Y-109745226D01*
X130898061Y-109785000D01*
X131101939Y-109785000D01*
X131301898Y-109745226D01*
X131490256Y-109667205D01*
X131659774Y-109553937D01*
X131803937Y-109409774D01*
X131917205Y-109240256D01*
X131995226Y-109051898D01*
X132035000Y-108851939D01*
X132035000Y-108648061D01*
X134965000Y-108648061D01*
X134965000Y-108851939D01*
X135004774Y-109051898D01*
X135082795Y-109240256D01*
X135196063Y-109409774D01*
X135340226Y-109553937D01*
X135509744Y-109667205D01*
X135698102Y-109745226D01*
X135898061Y-109785000D01*
X136101939Y-109785000D01*
X136301898Y-109745226D01*
X136408732Y-109700974D01*
X136434774Y-109831898D01*
X136512795Y-110020256D01*
X136626063Y-110189774D01*
X136770226Y-110333937D01*
X136939744Y-110447205D01*
X137128102Y-110525226D01*
X137328061Y-110565000D01*
X137531939Y-110565000D01*
X137731898Y-110525226D01*
X137920256Y-110447205D01*
X138089774Y-110333937D01*
X138175650Y-110248061D01*
X141465000Y-110248061D01*
X141465000Y-110451939D01*
X141504774Y-110651898D01*
X141582795Y-110840256D01*
X141696063Y-111009774D01*
X141840226Y-111153937D01*
X142009744Y-111267205D01*
X142198102Y-111345226D01*
X142398061Y-111385000D01*
X142601939Y-111385000D01*
X142801898Y-111345226D01*
X142990256Y-111267205D01*
X143159774Y-111153937D01*
X143303937Y-111009774D01*
X143417205Y-110840256D01*
X143495226Y-110651898D01*
X143535000Y-110451939D01*
X143535000Y-110248061D01*
X143495226Y-110048102D01*
X143417205Y-109859744D01*
X143303937Y-109690226D01*
X143159774Y-109546063D01*
X142990256Y-109432795D01*
X142801898Y-109354774D01*
X142601939Y-109315000D01*
X142398061Y-109315000D01*
X142198102Y-109354774D01*
X142009744Y-109432795D01*
X141840226Y-109546063D01*
X141696063Y-109690226D01*
X141582795Y-109859744D01*
X141504774Y-110048102D01*
X141465000Y-110248061D01*
X138175650Y-110248061D01*
X138233937Y-110189774D01*
X138347205Y-110020256D01*
X138425226Y-109831898D01*
X138465000Y-109631939D01*
X138465000Y-109428061D01*
X138425226Y-109228102D01*
X138347205Y-109039744D01*
X138233937Y-108870226D01*
X138089774Y-108726063D01*
X137920256Y-108612795D01*
X137731898Y-108534774D01*
X137531939Y-108495000D01*
X137328061Y-108495000D01*
X137128102Y-108534774D01*
X137021268Y-108579026D01*
X136995226Y-108448102D01*
X136917205Y-108259744D01*
X136803937Y-108090226D01*
X136771772Y-108058061D01*
X149795000Y-108058061D01*
X149795000Y-108261939D01*
X149834774Y-108461898D01*
X149912795Y-108650256D01*
X150026063Y-108819774D01*
X150170226Y-108963937D01*
X150339744Y-109077205D01*
X150528102Y-109155226D01*
X150728061Y-109195000D01*
X150931939Y-109195000D01*
X151131898Y-109155226D01*
X151320256Y-109077205D01*
X151489774Y-108963937D01*
X151633937Y-108819774D01*
X151747205Y-108650256D01*
X151825226Y-108461898D01*
X151865000Y-108261939D01*
X151865000Y-108058061D01*
X151825226Y-107858102D01*
X151747205Y-107669744D01*
X151633937Y-107500226D01*
X151489774Y-107356063D01*
X151320256Y-107242795D01*
X151131898Y-107164774D01*
X150931939Y-107125000D01*
X150728061Y-107125000D01*
X150528102Y-107164774D01*
X150339744Y-107242795D01*
X150170226Y-107356063D01*
X150026063Y-107500226D01*
X149912795Y-107669744D01*
X149834774Y-107858102D01*
X149795000Y-108058061D01*
X136771772Y-108058061D01*
X136659774Y-107946063D01*
X136490256Y-107832795D01*
X136301898Y-107754774D01*
X136101939Y-107715000D01*
X135898061Y-107715000D01*
X135698102Y-107754774D01*
X135509744Y-107832795D01*
X135340226Y-107946063D01*
X135196063Y-108090226D01*
X135082795Y-108259744D01*
X135004774Y-108448102D01*
X134965000Y-108648061D01*
X132035000Y-108648061D01*
X131995226Y-108448102D01*
X131917205Y-108259744D01*
X131803937Y-108090226D01*
X131659774Y-107946063D01*
X131490256Y-107832795D01*
X131301898Y-107754774D01*
X131101939Y-107715000D01*
X130898061Y-107715000D01*
X130698102Y-107754774D01*
X130509744Y-107832795D01*
X130340226Y-107946063D01*
X130196063Y-108090226D01*
X130082795Y-108259744D01*
X130004774Y-108448102D01*
X129965000Y-108648061D01*
X125710000Y-108648061D01*
X125710000Y-106348061D01*
X155345000Y-106348061D01*
X155345000Y-106551939D01*
X155384774Y-106751898D01*
X155462795Y-106940256D01*
X155576063Y-107109774D01*
X155720226Y-107253937D01*
X155889744Y-107367205D01*
X155908563Y-107375000D01*
X155889744Y-107382795D01*
X155720226Y-107496063D01*
X155576063Y-107640226D01*
X155462795Y-107809744D01*
X155384774Y-107998102D01*
X155345000Y-108198061D01*
X155345000Y-108401939D01*
X155384774Y-108601898D01*
X155462795Y-108790256D01*
X155576063Y-108959774D01*
X155720226Y-109103937D01*
X155889744Y-109217205D01*
X156078102Y-109295226D01*
X156278061Y-109335000D01*
X156481939Y-109335000D01*
X156681898Y-109295226D01*
X156870256Y-109217205D01*
X157039774Y-109103937D01*
X157183937Y-108959774D01*
X157297205Y-108790256D01*
X157375226Y-108601898D01*
X157415000Y-108401939D01*
X157415000Y-108198061D01*
X157375226Y-107998102D01*
X157297205Y-107809744D01*
X157183937Y-107640226D01*
X157039774Y-107496063D01*
X156870256Y-107382795D01*
X156851437Y-107375000D01*
X156870256Y-107367205D01*
X157039774Y-107253937D01*
X157183937Y-107109774D01*
X157297205Y-106940256D01*
X157375226Y-106751898D01*
X157415000Y-106551939D01*
X157415000Y-106348061D01*
X157375226Y-106148102D01*
X157297205Y-105959744D01*
X157183937Y-105790226D01*
X157039774Y-105646063D01*
X156870256Y-105532795D01*
X156681898Y-105454774D01*
X156481939Y-105415000D01*
X156278061Y-105415000D01*
X156078102Y-105454774D01*
X155889744Y-105532795D01*
X155720226Y-105646063D01*
X155576063Y-105790226D01*
X155462795Y-105959744D01*
X155384774Y-106148102D01*
X155345000Y-106348061D01*
X125710000Y-106348061D01*
X125710000Y-103784061D01*
X131045000Y-103784061D01*
X131045000Y-103987939D01*
X131084774Y-104187898D01*
X131162795Y-104376256D01*
X131276063Y-104545774D01*
X131420226Y-104689937D01*
X131589744Y-104803205D01*
X131778102Y-104881226D01*
X131978061Y-104921000D01*
X132181939Y-104921000D01*
X132381898Y-104881226D01*
X132570256Y-104803205D01*
X132574961Y-104800061D01*
X133077000Y-104800061D01*
X133077000Y-105003939D01*
X133116774Y-105203898D01*
X133194795Y-105392256D01*
X133308063Y-105561774D01*
X133452226Y-105705937D01*
X133621744Y-105819205D01*
X133810102Y-105897226D01*
X134010061Y-105937000D01*
X134213939Y-105937000D01*
X134413898Y-105897226D01*
X134602256Y-105819205D01*
X134771774Y-105705937D01*
X134915937Y-105561774D01*
X135029205Y-105392256D01*
X135043369Y-105358061D01*
X163455000Y-105358061D01*
X163455000Y-105561939D01*
X163494774Y-105761898D01*
X163572795Y-105950256D01*
X163686063Y-106119774D01*
X163830226Y-106263937D01*
X163999744Y-106377205D01*
X164188102Y-106455226D01*
X164388061Y-106495000D01*
X164591939Y-106495000D01*
X164791898Y-106455226D01*
X164980256Y-106377205D01*
X165149774Y-106263937D01*
X165293937Y-106119774D01*
X165407205Y-105950256D01*
X165485226Y-105761898D01*
X165525000Y-105561939D01*
X165525000Y-105368061D01*
X166475000Y-105368061D01*
X166475000Y-105571939D01*
X166514774Y-105771898D01*
X166592795Y-105960256D01*
X166706063Y-106129774D01*
X166850226Y-106273937D01*
X167019744Y-106387205D01*
X167208102Y-106465226D01*
X167408061Y-106505000D01*
X167611939Y-106505000D01*
X167811898Y-106465226D01*
X168000256Y-106387205D01*
X168169774Y-106273937D01*
X168313937Y-106129774D01*
X168427205Y-105960256D01*
X168505226Y-105771898D01*
X168545000Y-105571939D01*
X168545000Y-105368061D01*
X168505226Y-105168102D01*
X168427205Y-104979744D01*
X168313937Y-104810226D01*
X168169774Y-104666063D01*
X168000256Y-104552795D01*
X167811898Y-104474774D01*
X167611939Y-104435000D01*
X167408061Y-104435000D01*
X167208102Y-104474774D01*
X167019744Y-104552795D01*
X166850226Y-104666063D01*
X166706063Y-104810226D01*
X166592795Y-104979744D01*
X166514774Y-105168102D01*
X166475000Y-105368061D01*
X165525000Y-105368061D01*
X165525000Y-105358061D01*
X165485226Y-105158102D01*
X165407205Y-104969744D01*
X165293937Y-104800226D01*
X165149774Y-104656063D01*
X164980256Y-104542795D01*
X164791898Y-104464774D01*
X164591939Y-104425000D01*
X164388061Y-104425000D01*
X164188102Y-104464774D01*
X163999744Y-104542795D01*
X163830226Y-104656063D01*
X163686063Y-104800226D01*
X163572795Y-104969744D01*
X163494774Y-105158102D01*
X163455000Y-105358061D01*
X135043369Y-105358061D01*
X135107226Y-105203898D01*
X135147000Y-105003939D01*
X135147000Y-104800061D01*
X135107226Y-104600102D01*
X135029205Y-104411744D01*
X134915937Y-104242226D01*
X134771774Y-104098063D01*
X134602256Y-103984795D01*
X134413898Y-103906774D01*
X134213939Y-103867000D01*
X134010061Y-103867000D01*
X133810102Y-103906774D01*
X133621744Y-103984795D01*
X133452226Y-104098063D01*
X133308063Y-104242226D01*
X133194795Y-104411744D01*
X133116774Y-104600102D01*
X133077000Y-104800061D01*
X132574961Y-104800061D01*
X132739774Y-104689937D01*
X132883937Y-104545774D01*
X132997205Y-104376256D01*
X133075226Y-104187898D01*
X133115000Y-103987939D01*
X133115000Y-103784061D01*
X133097894Y-103698061D01*
X159425000Y-103698061D01*
X159425000Y-103901939D01*
X159464774Y-104101898D01*
X159542795Y-104290256D01*
X159656063Y-104459774D01*
X159800226Y-104603937D01*
X159969744Y-104717205D01*
X160158102Y-104795226D01*
X160358061Y-104835000D01*
X160561939Y-104835000D01*
X160761898Y-104795226D01*
X160950256Y-104717205D01*
X161119774Y-104603937D01*
X161263937Y-104459774D01*
X161377205Y-104290256D01*
X161455226Y-104101898D01*
X161495000Y-103901939D01*
X161495000Y-103698061D01*
X161455226Y-103498102D01*
X161409235Y-103387071D01*
X161465226Y-103251898D01*
X161505000Y-103051939D01*
X161505000Y-102848061D01*
X161491077Y-102778061D01*
X163505000Y-102778061D01*
X163505000Y-102981939D01*
X163544774Y-103181898D01*
X163622795Y-103370256D01*
X163736063Y-103539774D01*
X163880226Y-103683937D01*
X164049744Y-103797205D01*
X164238102Y-103875226D01*
X164438061Y-103915000D01*
X164641939Y-103915000D01*
X164841898Y-103875226D01*
X165030256Y-103797205D01*
X165199774Y-103683937D01*
X165343937Y-103539774D01*
X165457205Y-103370256D01*
X165535226Y-103181898D01*
X165575000Y-102981939D01*
X165575000Y-102788061D01*
X166455000Y-102788061D01*
X166455000Y-102991939D01*
X166494774Y-103191898D01*
X166572795Y-103380256D01*
X166686063Y-103549774D01*
X166830226Y-103693937D01*
X166999744Y-103807205D01*
X167188102Y-103885226D01*
X167388061Y-103925000D01*
X167591939Y-103925000D01*
X167791898Y-103885226D01*
X167980256Y-103807205D01*
X168149774Y-103693937D01*
X168293937Y-103549774D01*
X168407205Y-103380256D01*
X168485226Y-103191898D01*
X168525000Y-102991939D01*
X168525000Y-102788061D01*
X168485226Y-102588102D01*
X168407205Y-102399744D01*
X168293937Y-102230226D01*
X168149774Y-102086063D01*
X167980256Y-101972795D01*
X167791898Y-101894774D01*
X167591939Y-101855000D01*
X167388061Y-101855000D01*
X167188102Y-101894774D01*
X166999744Y-101972795D01*
X166830226Y-102086063D01*
X166686063Y-102230226D01*
X166572795Y-102399744D01*
X166494774Y-102588102D01*
X166455000Y-102788061D01*
X165575000Y-102788061D01*
X165575000Y-102778061D01*
X165535226Y-102578102D01*
X165457205Y-102389744D01*
X165343937Y-102220226D01*
X165199774Y-102076063D01*
X165030256Y-101962795D01*
X164841898Y-101884774D01*
X164641939Y-101845000D01*
X164438061Y-101845000D01*
X164238102Y-101884774D01*
X164049744Y-101962795D01*
X163880226Y-102076063D01*
X163736063Y-102220226D01*
X163622795Y-102389744D01*
X163544774Y-102578102D01*
X163505000Y-102778061D01*
X161491077Y-102778061D01*
X161465226Y-102648102D01*
X161387205Y-102459744D01*
X161273937Y-102290226D01*
X161129774Y-102146063D01*
X160960256Y-102032795D01*
X160771898Y-101954774D01*
X160571939Y-101915000D01*
X160368061Y-101915000D01*
X160168102Y-101954774D01*
X159979744Y-102032795D01*
X159810226Y-102146063D01*
X159666063Y-102290226D01*
X159552795Y-102459744D01*
X159474774Y-102648102D01*
X159435000Y-102848061D01*
X159435000Y-103051939D01*
X159474774Y-103251898D01*
X159520765Y-103362929D01*
X159464774Y-103498102D01*
X159425000Y-103698061D01*
X133097894Y-103698061D01*
X133075226Y-103584102D01*
X132997205Y-103395744D01*
X132883937Y-103226226D01*
X132739774Y-103082063D01*
X132570256Y-102968795D01*
X132381898Y-102890774D01*
X132181939Y-102851000D01*
X131978061Y-102851000D01*
X131778102Y-102890774D01*
X131589744Y-102968795D01*
X131420226Y-103082063D01*
X131276063Y-103226226D01*
X131162795Y-103395744D01*
X131084774Y-103584102D01*
X131045000Y-103784061D01*
X125710000Y-103784061D01*
X125710000Y-98398061D01*
X145965000Y-98398061D01*
X145965000Y-98601939D01*
X146004774Y-98801898D01*
X146082795Y-98990256D01*
X146196063Y-99159774D01*
X146340226Y-99303937D01*
X146509744Y-99417205D01*
X146698102Y-99495226D01*
X146898061Y-99535000D01*
X147101939Y-99535000D01*
X147301898Y-99495226D01*
X147490256Y-99417205D01*
X147659774Y-99303937D01*
X147803937Y-99159774D01*
X147917205Y-98990256D01*
X147995226Y-98801898D01*
X148035000Y-98601939D01*
X148035000Y-98398061D01*
X147995226Y-98198102D01*
X147917205Y-98009744D01*
X147803937Y-97840226D01*
X147659774Y-97696063D01*
X147490256Y-97582795D01*
X147301898Y-97504774D01*
X147101939Y-97465000D01*
X146898061Y-97465000D01*
X146698102Y-97504774D01*
X146509744Y-97582795D01*
X146340226Y-97696063D01*
X146196063Y-97840226D01*
X146082795Y-98009744D01*
X146004774Y-98198102D01*
X145965000Y-98398061D01*
X125710000Y-98398061D01*
X125710000Y-97180061D01*
X136379000Y-97180061D01*
X136379000Y-97383939D01*
X136418774Y-97583898D01*
X136496795Y-97772256D01*
X136610063Y-97941774D01*
X136754226Y-98085937D01*
X136923744Y-98199205D01*
X137112102Y-98277226D01*
X137312061Y-98317000D01*
X137515939Y-98317000D01*
X137715898Y-98277226D01*
X137904256Y-98199205D01*
X138073774Y-98085937D01*
X138217937Y-97941774D01*
X138331205Y-97772256D01*
X138409226Y-97583898D01*
X138449000Y-97383939D01*
X138449000Y-97180061D01*
X138409226Y-96980102D01*
X138400097Y-96958061D01*
X149735000Y-96958061D01*
X149735000Y-97161939D01*
X149774774Y-97361898D01*
X149852795Y-97550256D01*
X149966063Y-97719774D01*
X150110226Y-97863937D01*
X150279744Y-97977205D01*
X150468102Y-98055226D01*
X150668061Y-98095000D01*
X150871939Y-98095000D01*
X151071898Y-98055226D01*
X151260256Y-97977205D01*
X151429774Y-97863937D01*
X151573937Y-97719774D01*
X151687205Y-97550256D01*
X151765226Y-97361898D01*
X151805000Y-97161939D01*
X151805000Y-96958061D01*
X151765226Y-96758102D01*
X151687205Y-96569744D01*
X151573937Y-96400226D01*
X151429774Y-96256063D01*
X151260256Y-96142795D01*
X151071898Y-96064774D01*
X150871939Y-96025000D01*
X150668061Y-96025000D01*
X150468102Y-96064774D01*
X150279744Y-96142795D01*
X150110226Y-96256063D01*
X149966063Y-96400226D01*
X149852795Y-96569744D01*
X149774774Y-96758102D01*
X149735000Y-96958061D01*
X138400097Y-96958061D01*
X138331205Y-96791744D01*
X138217937Y-96622226D01*
X138073774Y-96478063D01*
X137904256Y-96364795D01*
X137715898Y-96286774D01*
X137515939Y-96247000D01*
X137312061Y-96247000D01*
X137112102Y-96286774D01*
X136923744Y-96364795D01*
X136754226Y-96478063D01*
X136610063Y-96622226D01*
X136496795Y-96791744D01*
X136418774Y-96980102D01*
X136379000Y-97180061D01*
X125710000Y-97180061D01*
X125710000Y-93370061D01*
X138411000Y-93370061D01*
X138411000Y-93573939D01*
X138450774Y-93773898D01*
X138528795Y-93962256D01*
X138642063Y-94131774D01*
X138786226Y-94275937D01*
X138955744Y-94389205D01*
X139144102Y-94467226D01*
X139248541Y-94488000D01*
X139144102Y-94508774D01*
X138955744Y-94586795D01*
X138786226Y-94700063D01*
X138642063Y-94844226D01*
X138528795Y-95013744D01*
X138450774Y-95202102D01*
X138411000Y-95402061D01*
X138411000Y-95605939D01*
X138450774Y-95805898D01*
X138528795Y-95994256D01*
X138642063Y-96163774D01*
X138786226Y-96307937D01*
X138955744Y-96421205D01*
X139144102Y-96499226D01*
X139344061Y-96539000D01*
X139547939Y-96539000D01*
X139747898Y-96499226D01*
X139936256Y-96421205D01*
X140105774Y-96307937D01*
X140249937Y-96163774D01*
X140363205Y-95994256D01*
X140441226Y-95805898D01*
X140481000Y-95605939D01*
X140481000Y-95402061D01*
X140441226Y-95202102D01*
X140363205Y-95013744D01*
X140249937Y-94844226D01*
X140105774Y-94700063D01*
X139936256Y-94586795D01*
X139747898Y-94508774D01*
X139643459Y-94488000D01*
X139747898Y-94467226D01*
X139936256Y-94389205D01*
X140105774Y-94275937D01*
X140249937Y-94131774D01*
X140363205Y-93962256D01*
X140441226Y-93773898D01*
X140481000Y-93573939D01*
X140481000Y-93398061D01*
X145965000Y-93398061D01*
X145965000Y-93601939D01*
X146004774Y-93801898D01*
X146082795Y-93990256D01*
X146196063Y-94159774D01*
X146340226Y-94303937D01*
X146509744Y-94417205D01*
X146698102Y-94495226D01*
X146898061Y-94535000D01*
X147101939Y-94535000D01*
X147301898Y-94495226D01*
X147490256Y-94417205D01*
X147659774Y-94303937D01*
X147803937Y-94159774D01*
X147917205Y-93990256D01*
X147995226Y-93801898D01*
X148035000Y-93601939D01*
X148035000Y-93398061D01*
X147995226Y-93198102D01*
X147917205Y-93009744D01*
X147803937Y-92840226D01*
X147659774Y-92696063D01*
X147490256Y-92582795D01*
X147301898Y-92504774D01*
X147101939Y-92465000D01*
X146898061Y-92465000D01*
X146698102Y-92504774D01*
X146509744Y-92582795D01*
X146340226Y-92696063D01*
X146196063Y-92840226D01*
X146082795Y-93009744D01*
X146004774Y-93198102D01*
X145965000Y-93398061D01*
X140481000Y-93398061D01*
X140481000Y-93370061D01*
X140441226Y-93170102D01*
X140363205Y-92981744D01*
X140249937Y-92812226D01*
X140105774Y-92668063D01*
X139936256Y-92554795D01*
X139747898Y-92476774D01*
X139547939Y-92437000D01*
X139344061Y-92437000D01*
X139144102Y-92476774D01*
X138955744Y-92554795D01*
X138786226Y-92668063D01*
X138642063Y-92812226D01*
X138528795Y-92981744D01*
X138450774Y-93170102D01*
X138411000Y-93370061D01*
X125710000Y-93370061D01*
X125710000Y-91088061D01*
X140845000Y-91088061D01*
X140845000Y-91291939D01*
X140884774Y-91491898D01*
X140962795Y-91680256D01*
X141076063Y-91849774D01*
X141220226Y-91993937D01*
X141389744Y-92107205D01*
X141578102Y-92185226D01*
X141778061Y-92225000D01*
X141981939Y-92225000D01*
X142181898Y-92185226D01*
X142370256Y-92107205D01*
X142463898Y-92044635D01*
X142482795Y-92090256D01*
X142596063Y-92259774D01*
X142740226Y-92403937D01*
X142909744Y-92517205D01*
X143098102Y-92595226D01*
X143298061Y-92635000D01*
X143501939Y-92635000D01*
X143701898Y-92595226D01*
X143890256Y-92517205D01*
X144059774Y-92403937D01*
X144203937Y-92259774D01*
X144317205Y-92090256D01*
X144395226Y-91901898D01*
X144435000Y-91701939D01*
X144435000Y-91498061D01*
X144395226Y-91298102D01*
X144317205Y-91109744D01*
X144203937Y-90940226D01*
X144059774Y-90796063D01*
X143890256Y-90682795D01*
X143701898Y-90604774D01*
X143501939Y-90565000D01*
X143298061Y-90565000D01*
X143098102Y-90604774D01*
X142909744Y-90682795D01*
X142816102Y-90745365D01*
X142797205Y-90699744D01*
X142683937Y-90530226D01*
X142539774Y-90386063D01*
X142370256Y-90272795D01*
X142181898Y-90194774D01*
X141981939Y-90155000D01*
X141778061Y-90155000D01*
X141578102Y-90194774D01*
X141389744Y-90272795D01*
X141220226Y-90386063D01*
X141076063Y-90530226D01*
X140962795Y-90699744D01*
X140884774Y-90888102D01*
X140845000Y-91088061D01*
X125710000Y-91088061D01*
X125710000Y-89898061D01*
X143765000Y-89898061D01*
X143765000Y-90101939D01*
X143804774Y-90301898D01*
X143882795Y-90490256D01*
X143996063Y-90659774D01*
X144140226Y-90803937D01*
X144309744Y-90917205D01*
X144498102Y-90995226D01*
X144698061Y-91035000D01*
X144901939Y-91035000D01*
X145101898Y-90995226D01*
X145290256Y-90917205D01*
X145459774Y-90803937D01*
X145603937Y-90659774D01*
X145717205Y-90490256D01*
X145795226Y-90301898D01*
X145835000Y-90101939D01*
X145835000Y-89898061D01*
X145795226Y-89698102D01*
X145717205Y-89509744D01*
X145603937Y-89340226D01*
X145459774Y-89196063D01*
X145290256Y-89082795D01*
X145101898Y-89004774D01*
X144901939Y-88965000D01*
X144698061Y-88965000D01*
X144498102Y-89004774D01*
X144309744Y-89082795D01*
X144140226Y-89196063D01*
X143996063Y-89340226D01*
X143882795Y-89509744D01*
X143804774Y-89698102D01*
X143765000Y-89898061D01*
X125710000Y-89898061D01*
X125710000Y-88036061D01*
X139935000Y-88036061D01*
X139935000Y-88239939D01*
X139974774Y-88439898D01*
X140052795Y-88628256D01*
X140166063Y-88797774D01*
X140310226Y-88941937D01*
X140479744Y-89055205D01*
X140668102Y-89133226D01*
X140868061Y-89173000D01*
X141071939Y-89173000D01*
X141271898Y-89133226D01*
X141460256Y-89055205D01*
X141629774Y-88941937D01*
X141773937Y-88797774D01*
X141887205Y-88628256D01*
X141965226Y-88439898D01*
X142005000Y-88239939D01*
X142005000Y-88036061D01*
X141965226Y-87836102D01*
X141887205Y-87647744D01*
X141773937Y-87478226D01*
X141629774Y-87334063D01*
X141460256Y-87220795D01*
X141271898Y-87142774D01*
X141071939Y-87103000D01*
X140868061Y-87103000D01*
X140668102Y-87142774D01*
X140479744Y-87220795D01*
X140310226Y-87334063D01*
X140166063Y-87478226D01*
X140052795Y-87647744D01*
X139974774Y-87836102D01*
X139935000Y-88036061D01*
X125710000Y-88036061D01*
X125710000Y-87522313D01*
X125784647Y-86335830D01*
X126003222Y-85190019D01*
X126296286Y-84288061D01*
X131565000Y-84288061D01*
X131565000Y-84491939D01*
X131604774Y-84691898D01*
X131682795Y-84880256D01*
X131796063Y-85049774D01*
X131940226Y-85193937D01*
X132109744Y-85307205D01*
X132298102Y-85385226D01*
X132498061Y-85425000D01*
X132701939Y-85425000D01*
X132901898Y-85385226D01*
X133090256Y-85307205D01*
X133259774Y-85193937D01*
X133403937Y-85049774D01*
X133517205Y-84880256D01*
X133595226Y-84691898D01*
X133635000Y-84491939D01*
X133635000Y-84400000D01*
X134773000Y-84400000D01*
X134773000Y-87000000D01*
X134775440Y-87024776D01*
X134782667Y-87048601D01*
X134794403Y-87070557D01*
X134810197Y-87089803D01*
X134829443Y-87105597D01*
X134851399Y-87117333D01*
X134875224Y-87124560D01*
X134900000Y-87127000D01*
X137600000Y-87127000D01*
X137624776Y-87124560D01*
X137648601Y-87117333D01*
X137670557Y-87105597D01*
X137689803Y-87089803D01*
X137705597Y-87070557D01*
X137717333Y-87048601D01*
X137724560Y-87024776D01*
X137727000Y-87000000D01*
X137727000Y-84400000D01*
X137724560Y-84375224D01*
X137717333Y-84351399D01*
X137705597Y-84329443D01*
X137689803Y-84310197D01*
X137670557Y-84294403D01*
X137648601Y-84282667D01*
X137624776Y-84275440D01*
X137600000Y-84273000D01*
X134900000Y-84273000D01*
X134875224Y-84275440D01*
X134851399Y-84282667D01*
X134829443Y-84294403D01*
X134810197Y-84310197D01*
X134794403Y-84329443D01*
X134782667Y-84351399D01*
X134775440Y-84375224D01*
X134773000Y-84400000D01*
X133635000Y-84400000D01*
X133635000Y-84288061D01*
X133595226Y-84088102D01*
X133517205Y-83899744D01*
X133403937Y-83730226D01*
X133259774Y-83586063D01*
X133090256Y-83472795D01*
X132901898Y-83394774D01*
X132701939Y-83355000D01*
X132498061Y-83355000D01*
X132298102Y-83394774D01*
X132109744Y-83472795D01*
X131940226Y-83586063D01*
X131796063Y-83730226D01*
X131682795Y-83899744D01*
X131604774Y-84088102D01*
X131565000Y-84288061D01*
X126296286Y-84288061D01*
X126363682Y-84080638D01*
X126860339Y-83025187D01*
X127194863Y-82498061D01*
X137615000Y-82498061D01*
X137615000Y-82701939D01*
X137654774Y-82901898D01*
X137732795Y-83090256D01*
X137846063Y-83259774D01*
X137990226Y-83403937D01*
X138159744Y-83517205D01*
X138348102Y-83595226D01*
X138548061Y-83635000D01*
X138751939Y-83635000D01*
X138951898Y-83595226D01*
X139140256Y-83517205D01*
X139309774Y-83403937D01*
X139453937Y-83259774D01*
X139567205Y-83090256D01*
X139645226Y-82901898D01*
X139669858Y-82778061D01*
X147175000Y-82778061D01*
X147175000Y-82981939D01*
X147214774Y-83181898D01*
X147292795Y-83370256D01*
X147406063Y-83539774D01*
X147550226Y-83683937D01*
X147719744Y-83797205D01*
X147908102Y-83875226D01*
X148108061Y-83915000D01*
X148311939Y-83915000D01*
X148511898Y-83875226D01*
X148700256Y-83797205D01*
X148869774Y-83683937D01*
X149013937Y-83539774D01*
X149127205Y-83370256D01*
X149205226Y-83181898D01*
X149245000Y-82981939D01*
X149245000Y-82778061D01*
X149205226Y-82578102D01*
X149127205Y-82389744D01*
X149013937Y-82220226D01*
X148869774Y-82076063D01*
X148700256Y-81962795D01*
X148511898Y-81884774D01*
X148311939Y-81845000D01*
X148108061Y-81845000D01*
X147908102Y-81884774D01*
X147719744Y-81962795D01*
X147550226Y-82076063D01*
X147406063Y-82220226D01*
X147292795Y-82389744D01*
X147214774Y-82578102D01*
X147175000Y-82778061D01*
X139669858Y-82778061D01*
X139685000Y-82701939D01*
X139685000Y-82498061D01*
X139645226Y-82298102D01*
X139567205Y-82109744D01*
X139453937Y-81940226D01*
X139309774Y-81796063D01*
X139140256Y-81682795D01*
X138951898Y-81604774D01*
X138751939Y-81565000D01*
X138548061Y-81565000D01*
X138348102Y-81604774D01*
X138159744Y-81682795D01*
X137990226Y-81796063D01*
X137846063Y-81940226D01*
X137732795Y-82109744D01*
X137654774Y-82298102D01*
X137615000Y-82498061D01*
X127194863Y-82498061D01*
X127485370Y-82040297D01*
X128228903Y-81141520D01*
X129079228Y-80343013D01*
X129808539Y-79813137D01*
X143395000Y-79813137D01*
X143395000Y-80026863D01*
X143436696Y-80236483D01*
X143518485Y-80433940D01*
X143637225Y-80611647D01*
X143788353Y-80762775D01*
X143966060Y-80881515D01*
X144163517Y-80963304D01*
X144373137Y-81005000D01*
X144586863Y-81005000D01*
X144796483Y-80963304D01*
X144993940Y-80881515D01*
X145171647Y-80762775D01*
X145322775Y-80611647D01*
X145441515Y-80433940D01*
X145523304Y-80236483D01*
X145565000Y-80026863D01*
X145565000Y-79813137D01*
X146395000Y-79813137D01*
X146395000Y-80026863D01*
X146436696Y-80236483D01*
X146518485Y-80433940D01*
X146637225Y-80611647D01*
X146788353Y-80762775D01*
X146966060Y-80881515D01*
X147163517Y-80963304D01*
X147373137Y-81005000D01*
X147586863Y-81005000D01*
X147796483Y-80963304D01*
X147993940Y-80881515D01*
X148171647Y-80762775D01*
X148322775Y-80611647D01*
X148441515Y-80433940D01*
X148523304Y-80236483D01*
X148565000Y-80026863D01*
X148565000Y-79813137D01*
X148523304Y-79603517D01*
X148441515Y-79406060D01*
X148322775Y-79228353D01*
X148171647Y-79077225D01*
X147993940Y-78958485D01*
X147796483Y-78876696D01*
X147586863Y-78835000D01*
X147373137Y-78835000D01*
X147163517Y-78876696D01*
X146966060Y-78958485D01*
X146788353Y-79077225D01*
X146637225Y-79228353D01*
X146518485Y-79406060D01*
X146436696Y-79603517D01*
X146395000Y-79813137D01*
X145565000Y-79813137D01*
X145523304Y-79603517D01*
X145441515Y-79406060D01*
X145322775Y-79228353D01*
X145171647Y-79077225D01*
X144993940Y-78958485D01*
X144796483Y-78876696D01*
X144586863Y-78835000D01*
X144373137Y-78835000D01*
X144163517Y-78876696D01*
X143966060Y-78958485D01*
X143788353Y-79077225D01*
X143637225Y-79228353D01*
X143518485Y-79406060D01*
X143436696Y-79603517D01*
X143395000Y-79813137D01*
X129808539Y-79813137D01*
X130022922Y-79657379D01*
X131045110Y-79095425D01*
X132129662Y-78666021D01*
X133259494Y-78375929D01*
X134427864Y-78228331D01*
X135011165Y-78210000D01*
X159886289Y-78210000D01*
X159806063Y-78290226D01*
%TA.AperFunction,Conductor*%
D17*
G36*
X159806063Y-78290226D02*
G01*
X159692795Y-78459744D01*
X159614774Y-78648102D01*
X159575000Y-78848061D01*
X159575000Y-79051939D01*
X159614774Y-79251898D01*
X159692795Y-79440256D01*
X159806063Y-79609774D01*
X159950226Y-79753937D01*
X160119744Y-79867205D01*
X160308102Y-79945226D01*
X160508061Y-79985000D01*
X160711939Y-79985000D01*
X160911898Y-79945226D01*
X161100256Y-79867205D01*
X161269774Y-79753937D01*
X161413937Y-79609774D01*
X161527205Y-79440256D01*
X161605226Y-79251898D01*
X161645000Y-79051939D01*
X161645000Y-78848061D01*
X161605226Y-78648102D01*
X161527205Y-78459744D01*
X161413937Y-78290226D01*
X161333711Y-78210000D01*
X169977687Y-78210000D01*
X171164170Y-78284647D01*
X172309981Y-78503222D01*
X173419362Y-78863682D01*
X174474813Y-79360339D01*
X175459703Y-79985370D01*
X176358480Y-80728903D01*
X177156987Y-81579228D01*
X177842621Y-82522922D01*
X178404575Y-83545110D01*
X178833979Y-84629662D01*
X179124071Y-85759494D01*
X179271669Y-86927864D01*
X179290000Y-87511165D01*
X179290000Y-92125831D01*
X179281833Y-92110551D01*
X179127502Y-91922498D01*
X178939449Y-91768167D01*
X178724901Y-91653489D01*
X178492102Y-91582870D01*
X178310665Y-91565000D01*
X177489335Y-91565000D01*
X177307898Y-91582870D01*
X177075099Y-91653489D01*
X176860551Y-91768167D01*
X176672498Y-91922498D01*
X176518167Y-92110551D01*
X176403489Y-92325099D01*
X176332870Y-92557898D01*
X176309025Y-92800000D01*
X176332870Y-93042102D01*
X176335883Y-93052035D01*
X176256381Y-92933051D01*
X176066949Y-92743619D01*
X175844201Y-92594784D01*
X175596697Y-92492264D01*
X175333948Y-92440000D01*
X175066052Y-92440000D01*
X174803303Y-92492264D01*
X174555799Y-92594784D01*
X174333051Y-92743619D01*
X174143619Y-92933051D01*
X173994784Y-93155799D01*
X173892264Y-93403303D01*
X173840000Y-93666052D01*
X173840000Y-93933948D01*
X173892264Y-94196697D01*
X173994784Y-94444201D01*
X174143619Y-94666949D01*
X174333051Y-94856381D01*
X174555799Y-95005216D01*
X174803303Y-95107736D01*
X175066052Y-95160000D01*
X175333948Y-95160000D01*
X175596697Y-95107736D01*
X175844201Y-95005216D01*
X176066949Y-94856381D01*
X176256381Y-94666949D01*
X176405216Y-94444201D01*
X176507736Y-94196697D01*
X176560000Y-93933948D01*
X176560000Y-93666052D01*
X176527016Y-93500232D01*
X176672498Y-93677502D01*
X176860551Y-93831833D01*
X177075099Y-93946511D01*
X177307898Y-94017130D01*
X177489335Y-94035000D01*
X178310665Y-94035000D01*
X178492102Y-94017130D01*
X178724901Y-93946511D01*
X178939449Y-93831833D01*
X179127502Y-93677502D01*
X179281833Y-93489449D01*
X179290000Y-93474169D01*
X179290000Y-99125831D01*
X179281833Y-99110551D01*
X179127502Y-98922498D01*
X178939449Y-98768167D01*
X178724901Y-98653489D01*
X178492102Y-98582870D01*
X178310665Y-98565000D01*
X177489335Y-98565000D01*
X177307898Y-98582870D01*
X177075099Y-98653489D01*
X176860551Y-98768167D01*
X176672498Y-98922498D01*
X176527016Y-99099768D01*
X176560000Y-98933948D01*
X176560000Y-98666052D01*
X176507736Y-98403303D01*
X176405216Y-98155799D01*
X176256381Y-97933051D01*
X176066949Y-97743619D01*
X175844201Y-97594784D01*
X175596697Y-97492264D01*
X175333948Y-97440000D01*
X175066052Y-97440000D01*
X174803303Y-97492264D01*
X174555799Y-97594784D01*
X174333051Y-97743619D01*
X174143619Y-97933051D01*
X173994784Y-98155799D01*
X173892264Y-98403303D01*
X173840000Y-98666052D01*
X173840000Y-98933948D01*
X173892264Y-99196697D01*
X173994784Y-99444201D01*
X174143619Y-99666949D01*
X174333051Y-99856381D01*
X174555799Y-100005216D01*
X174803303Y-100107736D01*
X175066052Y-100160000D01*
X175333948Y-100160000D01*
X175596697Y-100107736D01*
X175844201Y-100005216D01*
X176066949Y-99856381D01*
X176256381Y-99666949D01*
X176335883Y-99547965D01*
X176332870Y-99557898D01*
X176309025Y-99800000D01*
X176332870Y-100042102D01*
X176403489Y-100274901D01*
X176518167Y-100489449D01*
X176672498Y-100677502D01*
X176860551Y-100831833D01*
X177075099Y-100946511D01*
X177307898Y-101017130D01*
X177489335Y-101035000D01*
X178310665Y-101035000D01*
X178492102Y-101017130D01*
X178724901Y-100946511D01*
X178939449Y-100831833D01*
X179127502Y-100677502D01*
X179281833Y-100489449D01*
X179290000Y-100474169D01*
X179290001Y-121477671D01*
X179215353Y-122664169D01*
X178996778Y-123809981D01*
X178636318Y-124919362D01*
X178139661Y-125974813D01*
X177514630Y-126959703D01*
X176771096Y-127858480D01*
X175920773Y-128656987D01*
X174977078Y-129342621D01*
X173954888Y-129904576D01*
X172870338Y-130333979D01*
X171740505Y-130624071D01*
X170572146Y-130771668D01*
X169988835Y-130790000D01*
X135022313Y-130790000D01*
X133835831Y-130715353D01*
X132690019Y-130496778D01*
X131580638Y-130136318D01*
X130525187Y-129639661D01*
X129540297Y-129014630D01*
X128641520Y-128271096D01*
X127843013Y-127420773D01*
X127157379Y-126477078D01*
X126595424Y-125454888D01*
X126403444Y-124970000D01*
X149371928Y-124970000D01*
X149371928Y-125870000D01*
X149388031Y-126033500D01*
X149435722Y-126190716D01*
X149513169Y-126335608D01*
X149617394Y-126462606D01*
X149744392Y-126566831D01*
X149889284Y-126644278D01*
X150046500Y-126691969D01*
X150210000Y-126708072D01*
X150610000Y-126708072D01*
X150773500Y-126691969D01*
X150930716Y-126644278D01*
X151075608Y-126566831D01*
X151101894Y-126545259D01*
X151262008Y-126630841D01*
X151457106Y-126690024D01*
X151660000Y-126710007D01*
X151862895Y-126690024D01*
X152057993Y-126630841D01*
X152237797Y-126534734D01*
X152285001Y-126495995D01*
X152332204Y-126534734D01*
X152512008Y-126630841D01*
X152707106Y-126690024D01*
X152910000Y-126710007D01*
X153112895Y-126690024D01*
X153307993Y-126630841D01*
X153487797Y-126534734D01*
X153536707Y-126494595D01*
X153549885Y-126506351D01*
X153724772Y-126609308D01*
X153757860Y-126623682D01*
X153912000Y-126510423D01*
X153912000Y-125932310D01*
X153930024Y-125872894D01*
X153945000Y-125720837D01*
X153945000Y-125668000D01*
X154408000Y-125668000D01*
X154408000Y-126510423D01*
X154562140Y-126623682D01*
X154595228Y-126609308D01*
X154770115Y-126506351D01*
X154921556Y-126371253D01*
X155043731Y-126209206D01*
X155131944Y-126026438D01*
X155182806Y-125829972D01*
X155036489Y-125668000D01*
X154408000Y-125668000D01*
X153945000Y-125668000D01*
X153945000Y-125119162D01*
X153930024Y-124967105D01*
X153912000Y-124907689D01*
X153912000Y-124329577D01*
X154408000Y-124329577D01*
X154408000Y-125172000D01*
X155036489Y-125172000D01*
X155182806Y-125010028D01*
X155131944Y-124813562D01*
X155043731Y-124630794D01*
X154921556Y-124468747D01*
X154770115Y-124333649D01*
X154595228Y-124230692D01*
X154562140Y-124216318D01*
X154408000Y-124329577D01*
X153912000Y-124329577D01*
X153757860Y-124216318D01*
X153724772Y-124230692D01*
X153549885Y-124333649D01*
X153536707Y-124345405D01*
X153487797Y-124305266D01*
X153307992Y-124209159D01*
X153277800Y-124200000D01*
X161311928Y-124200000D01*
X161311928Y-126800000D01*
X161324188Y-126924482D01*
X161360498Y-127044180D01*
X161419463Y-127154494D01*
X161498815Y-127251185D01*
X161595506Y-127330537D01*
X161705820Y-127389502D01*
X161825518Y-127425812D01*
X161950000Y-127438072D01*
X164550000Y-127438072D01*
X164674482Y-127425812D01*
X164794180Y-127389502D01*
X164904494Y-127330537D01*
X165001185Y-127251185D01*
X165080537Y-127154494D01*
X165139502Y-127044180D01*
X165175429Y-126925744D01*
X167174981Y-126925744D01*
X167317103Y-127205945D01*
X167667842Y-127355165D01*
X168040953Y-127433092D01*
X168422097Y-127436732D01*
X168796627Y-127365943D01*
X169150152Y-127223448D01*
X169182897Y-127205945D01*
X169325019Y-126925744D01*
X168250000Y-125850725D01*
X167174981Y-126925744D01*
X165175429Y-126925744D01*
X165175812Y-126924482D01*
X165188072Y-126800000D01*
X165188072Y-125672097D01*
X166313268Y-125672097D01*
X166384057Y-126046627D01*
X166526552Y-126400152D01*
X166544055Y-126432897D01*
X166824256Y-126575019D01*
X167899275Y-125500000D01*
X168600725Y-125500000D01*
X169675744Y-126575019D01*
X169955945Y-126432897D01*
X170105165Y-126082158D01*
X170183092Y-125709047D01*
X170186732Y-125327903D01*
X170115943Y-124953373D01*
X169973448Y-124599848D01*
X169955945Y-124567103D01*
X169675744Y-124424981D01*
X168600725Y-125500000D01*
X167899275Y-125500000D01*
X166824256Y-124424981D01*
X166544055Y-124567103D01*
X166394835Y-124917842D01*
X166316908Y-125290953D01*
X166313268Y-125672097D01*
X165188072Y-125672097D01*
X165188072Y-124200000D01*
X165175812Y-124075518D01*
X165175430Y-124074256D01*
X167174981Y-124074256D01*
X168250000Y-125149275D01*
X169325019Y-124074256D01*
X169182897Y-123794055D01*
X168832158Y-123644835D01*
X168459047Y-123566908D01*
X168077903Y-123563268D01*
X167703373Y-123634057D01*
X167349848Y-123776552D01*
X167317103Y-123794055D01*
X167174981Y-124074256D01*
X165175430Y-124074256D01*
X165139502Y-123955820D01*
X165080537Y-123845506D01*
X165001185Y-123748815D01*
X164904494Y-123669463D01*
X164794180Y-123610498D01*
X164674482Y-123574188D01*
X164550000Y-123561928D01*
X161950000Y-123561928D01*
X161825518Y-123574188D01*
X161705820Y-123610498D01*
X161595506Y-123669463D01*
X161498815Y-123748815D01*
X161419463Y-123845506D01*
X161360498Y-123955820D01*
X161324188Y-124075518D01*
X161311928Y-124200000D01*
X153277800Y-124200000D01*
X153112894Y-124149976D01*
X152910000Y-124129993D01*
X152707105Y-124149976D01*
X152512007Y-124209159D01*
X152332203Y-124305266D01*
X152285000Y-124344004D01*
X152237797Y-124305266D01*
X152057992Y-124209159D01*
X151862894Y-124149976D01*
X151660000Y-124129993D01*
X151457105Y-124149976D01*
X151262007Y-124209159D01*
X151101894Y-124294741D01*
X151075608Y-124273169D01*
X150930716Y-124195722D01*
X150773500Y-124148031D01*
X150610000Y-124131928D01*
X150210000Y-124131928D01*
X150046500Y-124148031D01*
X149889284Y-124195722D01*
X149744392Y-124273169D01*
X149617394Y-124377394D01*
X149513169Y-124504392D01*
X149435722Y-124649284D01*
X149388031Y-124806500D01*
X149371928Y-124970000D01*
X126403444Y-124970000D01*
X126166021Y-124370338D01*
X125875929Y-123240505D01*
X125728332Y-122072146D01*
X125710000Y-121488835D01*
X125710000Y-115328061D01*
X136295000Y-115328061D01*
X136295000Y-115531939D01*
X136334774Y-115731898D01*
X136412795Y-115920256D01*
X136526063Y-116089774D01*
X136670226Y-116233937D01*
X136839744Y-116347205D01*
X137028102Y-116425226D01*
X137228061Y-116465000D01*
X137431939Y-116465000D01*
X137631898Y-116425226D01*
X137820256Y-116347205D01*
X137989774Y-116233937D01*
X138133937Y-116089774D01*
X138247205Y-115920256D01*
X138318531Y-115748061D01*
X149725000Y-115748061D01*
X149725000Y-115951939D01*
X149764774Y-116151898D01*
X149842795Y-116340256D01*
X149956063Y-116509774D01*
X150100226Y-116653937D01*
X150269744Y-116767205D01*
X150458102Y-116845226D01*
X150658061Y-116885000D01*
X150861939Y-116885000D01*
X151061898Y-116845226D01*
X151250256Y-116767205D01*
X151419774Y-116653937D01*
X151563937Y-116509774D01*
X151677205Y-116340256D01*
X151755226Y-116151898D01*
X151795000Y-115951939D01*
X151795000Y-115748061D01*
X151755226Y-115548102D01*
X151677205Y-115359744D01*
X151563937Y-115190226D01*
X151419774Y-115046063D01*
X151250256Y-114932795D01*
X151061898Y-114854774D01*
X150861939Y-114815000D01*
X150658061Y-114815000D01*
X150458102Y-114854774D01*
X150269744Y-114932795D01*
X150100226Y-115046063D01*
X149956063Y-115190226D01*
X149842795Y-115359744D01*
X149764774Y-115548102D01*
X149725000Y-115748061D01*
X138318531Y-115748061D01*
X138325226Y-115731898D01*
X138365000Y-115531939D01*
X138365000Y-115328061D01*
X138325226Y-115128102D01*
X138247205Y-114939744D01*
X138133937Y-114770226D01*
X137989774Y-114626063D01*
X137820256Y-114512795D01*
X137631898Y-114434774D01*
X137431939Y-114395000D01*
X137228061Y-114395000D01*
X137028102Y-114434774D01*
X136839744Y-114512795D01*
X136670226Y-114626063D01*
X136526063Y-114770226D01*
X136412795Y-114939744D01*
X136334774Y-115128102D01*
X136295000Y-115328061D01*
X125710000Y-115328061D01*
X125710000Y-111404061D01*
X128251000Y-111404061D01*
X128251000Y-111607939D01*
X128290774Y-111807898D01*
X128368795Y-111996256D01*
X128482063Y-112165774D01*
X128626226Y-112309937D01*
X128795744Y-112423205D01*
X128984102Y-112501226D01*
X129184061Y-112541000D01*
X129387939Y-112541000D01*
X129587898Y-112501226D01*
X129776256Y-112423205D01*
X129945774Y-112309937D01*
X130089937Y-112165774D01*
X130203205Y-111996256D01*
X130281226Y-111807898D01*
X130321000Y-111607939D01*
X130321000Y-111404061D01*
X130281226Y-111204102D01*
X130203205Y-111015744D01*
X130089937Y-110846226D01*
X129945774Y-110702063D01*
X129776256Y-110588795D01*
X129587898Y-110510774D01*
X129387939Y-110471000D01*
X129184061Y-110471000D01*
X128984102Y-110510774D01*
X128795744Y-110588795D01*
X128626226Y-110702063D01*
X128482063Y-110846226D01*
X128368795Y-111015744D01*
X128290774Y-111204102D01*
X128251000Y-111404061D01*
X125710000Y-111404061D01*
X125710000Y-108648061D01*
X129965000Y-108648061D01*
X129965000Y-108851939D01*
X130004774Y-109051898D01*
X130082795Y-109240256D01*
X130196063Y-109409774D01*
X130340226Y-109553937D01*
X130509744Y-109667205D01*
X130698102Y-109745226D01*
X130898061Y-109785000D01*
X131101939Y-109785000D01*
X131301898Y-109745226D01*
X131490256Y-109667205D01*
X131659774Y-109553937D01*
X131803937Y-109409774D01*
X131917205Y-109240256D01*
X131995226Y-109051898D01*
X132035000Y-108851939D01*
X132035000Y-108648061D01*
X134965000Y-108648061D01*
X134965000Y-108851939D01*
X135004774Y-109051898D01*
X135082795Y-109240256D01*
X135196063Y-109409774D01*
X135340226Y-109553937D01*
X135509744Y-109667205D01*
X135698102Y-109745226D01*
X135898061Y-109785000D01*
X136101939Y-109785000D01*
X136301898Y-109745226D01*
X136408732Y-109700974D01*
X136434774Y-109831898D01*
X136512795Y-110020256D01*
X136626063Y-110189774D01*
X136770226Y-110333937D01*
X136939744Y-110447205D01*
X137128102Y-110525226D01*
X137328061Y-110565000D01*
X137531939Y-110565000D01*
X137731898Y-110525226D01*
X137920256Y-110447205D01*
X138089774Y-110333937D01*
X138175650Y-110248061D01*
X141465000Y-110248061D01*
X141465000Y-110451939D01*
X141504774Y-110651898D01*
X141582795Y-110840256D01*
X141696063Y-111009774D01*
X141840226Y-111153937D01*
X142009744Y-111267205D01*
X142198102Y-111345226D01*
X142398061Y-111385000D01*
X142601939Y-111385000D01*
X142801898Y-111345226D01*
X142990256Y-111267205D01*
X143159774Y-111153937D01*
X143303937Y-111009774D01*
X143417205Y-110840256D01*
X143495226Y-110651898D01*
X143535000Y-110451939D01*
X143535000Y-110248061D01*
X143495226Y-110048102D01*
X143417205Y-109859744D01*
X143303937Y-109690226D01*
X143159774Y-109546063D01*
X142990256Y-109432795D01*
X142801898Y-109354774D01*
X142601939Y-109315000D01*
X142398061Y-109315000D01*
X142198102Y-109354774D01*
X142009744Y-109432795D01*
X141840226Y-109546063D01*
X141696063Y-109690226D01*
X141582795Y-109859744D01*
X141504774Y-110048102D01*
X141465000Y-110248061D01*
X138175650Y-110248061D01*
X138233937Y-110189774D01*
X138347205Y-110020256D01*
X138425226Y-109831898D01*
X138465000Y-109631939D01*
X138465000Y-109428061D01*
X138425226Y-109228102D01*
X138347205Y-109039744D01*
X138233937Y-108870226D01*
X138089774Y-108726063D01*
X137920256Y-108612795D01*
X137731898Y-108534774D01*
X137531939Y-108495000D01*
X137328061Y-108495000D01*
X137128102Y-108534774D01*
X137021268Y-108579026D01*
X136995226Y-108448102D01*
X136917205Y-108259744D01*
X136803937Y-108090226D01*
X136771772Y-108058061D01*
X149795000Y-108058061D01*
X149795000Y-108261939D01*
X149834774Y-108461898D01*
X149912795Y-108650256D01*
X150026063Y-108819774D01*
X150170226Y-108963937D01*
X150339744Y-109077205D01*
X150528102Y-109155226D01*
X150728061Y-109195000D01*
X150931939Y-109195000D01*
X151131898Y-109155226D01*
X151320256Y-109077205D01*
X151489774Y-108963937D01*
X151633937Y-108819774D01*
X151747205Y-108650256D01*
X151825226Y-108461898D01*
X151865000Y-108261939D01*
X151865000Y-108058061D01*
X151825226Y-107858102D01*
X151747205Y-107669744D01*
X151633937Y-107500226D01*
X151489774Y-107356063D01*
X151320256Y-107242795D01*
X151131898Y-107164774D01*
X150931939Y-107125000D01*
X150728061Y-107125000D01*
X150528102Y-107164774D01*
X150339744Y-107242795D01*
X150170226Y-107356063D01*
X150026063Y-107500226D01*
X149912795Y-107669744D01*
X149834774Y-107858102D01*
X149795000Y-108058061D01*
X136771772Y-108058061D01*
X136659774Y-107946063D01*
X136490256Y-107832795D01*
X136301898Y-107754774D01*
X136101939Y-107715000D01*
X135898061Y-107715000D01*
X135698102Y-107754774D01*
X135509744Y-107832795D01*
X135340226Y-107946063D01*
X135196063Y-108090226D01*
X135082795Y-108259744D01*
X135004774Y-108448102D01*
X134965000Y-108648061D01*
X132035000Y-108648061D01*
X131995226Y-108448102D01*
X131917205Y-108259744D01*
X131803937Y-108090226D01*
X131659774Y-107946063D01*
X131490256Y-107832795D01*
X131301898Y-107754774D01*
X131101939Y-107715000D01*
X130898061Y-107715000D01*
X130698102Y-107754774D01*
X130509744Y-107832795D01*
X130340226Y-107946063D01*
X130196063Y-108090226D01*
X130082795Y-108259744D01*
X130004774Y-108448102D01*
X129965000Y-108648061D01*
X125710000Y-108648061D01*
X125710000Y-106348061D01*
X155345000Y-106348061D01*
X155345000Y-106551939D01*
X155384774Y-106751898D01*
X155462795Y-106940256D01*
X155576063Y-107109774D01*
X155720226Y-107253937D01*
X155889744Y-107367205D01*
X155908563Y-107375000D01*
X155889744Y-107382795D01*
X155720226Y-107496063D01*
X155576063Y-107640226D01*
X155462795Y-107809744D01*
X155384774Y-107998102D01*
X155345000Y-108198061D01*
X155345000Y-108401939D01*
X155384774Y-108601898D01*
X155462795Y-108790256D01*
X155576063Y-108959774D01*
X155720226Y-109103937D01*
X155889744Y-109217205D01*
X156078102Y-109295226D01*
X156278061Y-109335000D01*
X156481939Y-109335000D01*
X156681898Y-109295226D01*
X156870256Y-109217205D01*
X157039774Y-109103937D01*
X157183937Y-108959774D01*
X157297205Y-108790256D01*
X157375226Y-108601898D01*
X157415000Y-108401939D01*
X157415000Y-108198061D01*
X157375226Y-107998102D01*
X157297205Y-107809744D01*
X157183937Y-107640226D01*
X157039774Y-107496063D01*
X156870256Y-107382795D01*
X156851437Y-107375000D01*
X156870256Y-107367205D01*
X157039774Y-107253937D01*
X157183937Y-107109774D01*
X157297205Y-106940256D01*
X157375226Y-106751898D01*
X157415000Y-106551939D01*
X157415000Y-106348061D01*
X157375226Y-106148102D01*
X157297205Y-105959744D01*
X157183937Y-105790226D01*
X157039774Y-105646063D01*
X156870256Y-105532795D01*
X156681898Y-105454774D01*
X156481939Y-105415000D01*
X156278061Y-105415000D01*
X156078102Y-105454774D01*
X155889744Y-105532795D01*
X155720226Y-105646063D01*
X155576063Y-105790226D01*
X155462795Y-105959744D01*
X155384774Y-106148102D01*
X155345000Y-106348061D01*
X125710000Y-106348061D01*
X125710000Y-103784061D01*
X131045000Y-103784061D01*
X131045000Y-103987939D01*
X131084774Y-104187898D01*
X131162795Y-104376256D01*
X131276063Y-104545774D01*
X131420226Y-104689937D01*
X131589744Y-104803205D01*
X131778102Y-104881226D01*
X131978061Y-104921000D01*
X132181939Y-104921000D01*
X132381898Y-104881226D01*
X132570256Y-104803205D01*
X132574961Y-104800061D01*
X133077000Y-104800061D01*
X133077000Y-105003939D01*
X133116774Y-105203898D01*
X133194795Y-105392256D01*
X133308063Y-105561774D01*
X133452226Y-105705937D01*
X133621744Y-105819205D01*
X133810102Y-105897226D01*
X134010061Y-105937000D01*
X134213939Y-105937000D01*
X134413898Y-105897226D01*
X134602256Y-105819205D01*
X134771774Y-105705937D01*
X134915937Y-105561774D01*
X135029205Y-105392256D01*
X135043369Y-105358061D01*
X163455000Y-105358061D01*
X163455000Y-105561939D01*
X163494774Y-105761898D01*
X163572795Y-105950256D01*
X163686063Y-106119774D01*
X163830226Y-106263937D01*
X163999744Y-106377205D01*
X164188102Y-106455226D01*
X164388061Y-106495000D01*
X164591939Y-106495000D01*
X164791898Y-106455226D01*
X164980256Y-106377205D01*
X165149774Y-106263937D01*
X165293937Y-106119774D01*
X165407205Y-105950256D01*
X165485226Y-105761898D01*
X165525000Y-105561939D01*
X165525000Y-105368061D01*
X166475000Y-105368061D01*
X166475000Y-105571939D01*
X166514774Y-105771898D01*
X166592795Y-105960256D01*
X166706063Y-106129774D01*
X166850226Y-106273937D01*
X167019744Y-106387205D01*
X167208102Y-106465226D01*
X167408061Y-106505000D01*
X167611939Y-106505000D01*
X167811898Y-106465226D01*
X168000256Y-106387205D01*
X168169774Y-106273937D01*
X168313937Y-106129774D01*
X168427205Y-105960256D01*
X168505226Y-105771898D01*
X168545000Y-105571939D01*
X168545000Y-105368061D01*
X168505226Y-105168102D01*
X168427205Y-104979744D01*
X168313937Y-104810226D01*
X168169774Y-104666063D01*
X168000256Y-104552795D01*
X167811898Y-104474774D01*
X167611939Y-104435000D01*
X167408061Y-104435000D01*
X167208102Y-104474774D01*
X167019744Y-104552795D01*
X166850226Y-104666063D01*
X166706063Y-104810226D01*
X166592795Y-104979744D01*
X166514774Y-105168102D01*
X166475000Y-105368061D01*
X165525000Y-105368061D01*
X165525000Y-105358061D01*
X165485226Y-105158102D01*
X165407205Y-104969744D01*
X165293937Y-104800226D01*
X165149774Y-104656063D01*
X164980256Y-104542795D01*
X164791898Y-104464774D01*
X164591939Y-104425000D01*
X164388061Y-104425000D01*
X164188102Y-104464774D01*
X163999744Y-104542795D01*
X163830226Y-104656063D01*
X163686063Y-104800226D01*
X163572795Y-104969744D01*
X163494774Y-105158102D01*
X163455000Y-105358061D01*
X135043369Y-105358061D01*
X135107226Y-105203898D01*
X135147000Y-105003939D01*
X135147000Y-104800061D01*
X135107226Y-104600102D01*
X135029205Y-104411744D01*
X134915937Y-104242226D01*
X134771774Y-104098063D01*
X134602256Y-103984795D01*
X134413898Y-103906774D01*
X134213939Y-103867000D01*
X134010061Y-103867000D01*
X133810102Y-103906774D01*
X133621744Y-103984795D01*
X133452226Y-104098063D01*
X133308063Y-104242226D01*
X133194795Y-104411744D01*
X133116774Y-104600102D01*
X133077000Y-104800061D01*
X132574961Y-104800061D01*
X132739774Y-104689937D01*
X132883937Y-104545774D01*
X132997205Y-104376256D01*
X133075226Y-104187898D01*
X133115000Y-103987939D01*
X133115000Y-103784061D01*
X133097894Y-103698061D01*
X159425000Y-103698061D01*
X159425000Y-103901939D01*
X159464774Y-104101898D01*
X159542795Y-104290256D01*
X159656063Y-104459774D01*
X159800226Y-104603937D01*
X159969744Y-104717205D01*
X160158102Y-104795226D01*
X160358061Y-104835000D01*
X160561939Y-104835000D01*
X160761898Y-104795226D01*
X160950256Y-104717205D01*
X161119774Y-104603937D01*
X161263937Y-104459774D01*
X161377205Y-104290256D01*
X161455226Y-104101898D01*
X161495000Y-103901939D01*
X161495000Y-103698061D01*
X161455226Y-103498102D01*
X161409235Y-103387071D01*
X161465226Y-103251898D01*
X161505000Y-103051939D01*
X161505000Y-102848061D01*
X161491077Y-102778061D01*
X163505000Y-102778061D01*
X163505000Y-102981939D01*
X163544774Y-103181898D01*
X163622795Y-103370256D01*
X163736063Y-103539774D01*
X163880226Y-103683937D01*
X164049744Y-103797205D01*
X164238102Y-103875226D01*
X164438061Y-103915000D01*
X164641939Y-103915000D01*
X164841898Y-103875226D01*
X165030256Y-103797205D01*
X165199774Y-103683937D01*
X165343937Y-103539774D01*
X165457205Y-103370256D01*
X165535226Y-103181898D01*
X165575000Y-102981939D01*
X165575000Y-102788061D01*
X166455000Y-102788061D01*
X166455000Y-102991939D01*
X166494774Y-103191898D01*
X166572795Y-103380256D01*
X166686063Y-103549774D01*
X166830226Y-103693937D01*
X166999744Y-103807205D01*
X167188102Y-103885226D01*
X167388061Y-103925000D01*
X167591939Y-103925000D01*
X167791898Y-103885226D01*
X167980256Y-103807205D01*
X168149774Y-103693937D01*
X168293937Y-103549774D01*
X168407205Y-103380256D01*
X168485226Y-103191898D01*
X168525000Y-102991939D01*
X168525000Y-102788061D01*
X168485226Y-102588102D01*
X168407205Y-102399744D01*
X168293937Y-102230226D01*
X168149774Y-102086063D01*
X167980256Y-101972795D01*
X167791898Y-101894774D01*
X167591939Y-101855000D01*
X167388061Y-101855000D01*
X167188102Y-101894774D01*
X166999744Y-101972795D01*
X166830226Y-102086063D01*
X166686063Y-102230226D01*
X166572795Y-102399744D01*
X166494774Y-102588102D01*
X166455000Y-102788061D01*
X165575000Y-102788061D01*
X165575000Y-102778061D01*
X165535226Y-102578102D01*
X165457205Y-102389744D01*
X165343937Y-102220226D01*
X165199774Y-102076063D01*
X165030256Y-101962795D01*
X164841898Y-101884774D01*
X164641939Y-101845000D01*
X164438061Y-101845000D01*
X164238102Y-101884774D01*
X164049744Y-101962795D01*
X163880226Y-102076063D01*
X163736063Y-102220226D01*
X163622795Y-102389744D01*
X163544774Y-102578102D01*
X163505000Y-102778061D01*
X161491077Y-102778061D01*
X161465226Y-102648102D01*
X161387205Y-102459744D01*
X161273937Y-102290226D01*
X161129774Y-102146063D01*
X160960256Y-102032795D01*
X160771898Y-101954774D01*
X160571939Y-101915000D01*
X160368061Y-101915000D01*
X160168102Y-101954774D01*
X159979744Y-102032795D01*
X159810226Y-102146063D01*
X159666063Y-102290226D01*
X159552795Y-102459744D01*
X159474774Y-102648102D01*
X159435000Y-102848061D01*
X159435000Y-103051939D01*
X159474774Y-103251898D01*
X159520765Y-103362929D01*
X159464774Y-103498102D01*
X159425000Y-103698061D01*
X133097894Y-103698061D01*
X133075226Y-103584102D01*
X132997205Y-103395744D01*
X132883937Y-103226226D01*
X132739774Y-103082063D01*
X132570256Y-102968795D01*
X132381898Y-102890774D01*
X132181939Y-102851000D01*
X131978061Y-102851000D01*
X131778102Y-102890774D01*
X131589744Y-102968795D01*
X131420226Y-103082063D01*
X131276063Y-103226226D01*
X131162795Y-103395744D01*
X131084774Y-103584102D01*
X131045000Y-103784061D01*
X125710000Y-103784061D01*
X125710000Y-98398061D01*
X145965000Y-98398061D01*
X145965000Y-98601939D01*
X146004774Y-98801898D01*
X146082795Y-98990256D01*
X146196063Y-99159774D01*
X146340226Y-99303937D01*
X146509744Y-99417205D01*
X146698102Y-99495226D01*
X146898061Y-99535000D01*
X147101939Y-99535000D01*
X147301898Y-99495226D01*
X147490256Y-99417205D01*
X147659774Y-99303937D01*
X147803937Y-99159774D01*
X147917205Y-98990256D01*
X147995226Y-98801898D01*
X148035000Y-98601939D01*
X148035000Y-98398061D01*
X147995226Y-98198102D01*
X147917205Y-98009744D01*
X147803937Y-97840226D01*
X147659774Y-97696063D01*
X147490256Y-97582795D01*
X147301898Y-97504774D01*
X147101939Y-97465000D01*
X146898061Y-97465000D01*
X146698102Y-97504774D01*
X146509744Y-97582795D01*
X146340226Y-97696063D01*
X146196063Y-97840226D01*
X146082795Y-98009744D01*
X146004774Y-98198102D01*
X145965000Y-98398061D01*
X125710000Y-98398061D01*
X125710000Y-97180061D01*
X136379000Y-97180061D01*
X136379000Y-97383939D01*
X136418774Y-97583898D01*
X136496795Y-97772256D01*
X136610063Y-97941774D01*
X136754226Y-98085937D01*
X136923744Y-98199205D01*
X137112102Y-98277226D01*
X137312061Y-98317000D01*
X137515939Y-98317000D01*
X137715898Y-98277226D01*
X137904256Y-98199205D01*
X138073774Y-98085937D01*
X138217937Y-97941774D01*
X138331205Y-97772256D01*
X138409226Y-97583898D01*
X138449000Y-97383939D01*
X138449000Y-97180061D01*
X138409226Y-96980102D01*
X138400097Y-96958061D01*
X149735000Y-96958061D01*
X149735000Y-97161939D01*
X149774774Y-97361898D01*
X149852795Y-97550256D01*
X149966063Y-97719774D01*
X150110226Y-97863937D01*
X150279744Y-97977205D01*
X150468102Y-98055226D01*
X150668061Y-98095000D01*
X150871939Y-98095000D01*
X151071898Y-98055226D01*
X151260256Y-97977205D01*
X151429774Y-97863937D01*
X151573937Y-97719774D01*
X151687205Y-97550256D01*
X151765226Y-97361898D01*
X151805000Y-97161939D01*
X151805000Y-96958061D01*
X151765226Y-96758102D01*
X151687205Y-96569744D01*
X151573937Y-96400226D01*
X151429774Y-96256063D01*
X151260256Y-96142795D01*
X151071898Y-96064774D01*
X150871939Y-96025000D01*
X150668061Y-96025000D01*
X150468102Y-96064774D01*
X150279744Y-96142795D01*
X150110226Y-96256063D01*
X149966063Y-96400226D01*
X149852795Y-96569744D01*
X149774774Y-96758102D01*
X149735000Y-96958061D01*
X138400097Y-96958061D01*
X138331205Y-96791744D01*
X138217937Y-96622226D01*
X138073774Y-96478063D01*
X137904256Y-96364795D01*
X137715898Y-96286774D01*
X137515939Y-96247000D01*
X137312061Y-96247000D01*
X137112102Y-96286774D01*
X136923744Y-96364795D01*
X136754226Y-96478063D01*
X136610063Y-96622226D01*
X136496795Y-96791744D01*
X136418774Y-96980102D01*
X136379000Y-97180061D01*
X125710000Y-97180061D01*
X125710000Y-93370061D01*
X138411000Y-93370061D01*
X138411000Y-93573939D01*
X138450774Y-93773898D01*
X138528795Y-93962256D01*
X138642063Y-94131774D01*
X138786226Y-94275937D01*
X138955744Y-94389205D01*
X139144102Y-94467226D01*
X139248541Y-94488000D01*
X139144102Y-94508774D01*
X138955744Y-94586795D01*
X138786226Y-94700063D01*
X138642063Y-94844226D01*
X138528795Y-95013744D01*
X138450774Y-95202102D01*
X138411000Y-95402061D01*
X138411000Y-95605939D01*
X138450774Y-95805898D01*
X138528795Y-95994256D01*
X138642063Y-96163774D01*
X138786226Y-96307937D01*
X138955744Y-96421205D01*
X139144102Y-96499226D01*
X139344061Y-96539000D01*
X139547939Y-96539000D01*
X139747898Y-96499226D01*
X139936256Y-96421205D01*
X140105774Y-96307937D01*
X140249937Y-96163774D01*
X140363205Y-95994256D01*
X140441226Y-95805898D01*
X140481000Y-95605939D01*
X140481000Y-95402061D01*
X140441226Y-95202102D01*
X140363205Y-95013744D01*
X140249937Y-94844226D01*
X140105774Y-94700063D01*
X139936256Y-94586795D01*
X139747898Y-94508774D01*
X139643459Y-94488000D01*
X139747898Y-94467226D01*
X139936256Y-94389205D01*
X140105774Y-94275937D01*
X140249937Y-94131774D01*
X140363205Y-93962256D01*
X140441226Y-93773898D01*
X140481000Y-93573939D01*
X140481000Y-93398061D01*
X145965000Y-93398061D01*
X145965000Y-93601939D01*
X146004774Y-93801898D01*
X146082795Y-93990256D01*
X146196063Y-94159774D01*
X146340226Y-94303937D01*
X146509744Y-94417205D01*
X146698102Y-94495226D01*
X146898061Y-94535000D01*
X147101939Y-94535000D01*
X147301898Y-94495226D01*
X147490256Y-94417205D01*
X147659774Y-94303937D01*
X147803937Y-94159774D01*
X147917205Y-93990256D01*
X147995226Y-93801898D01*
X148035000Y-93601939D01*
X148035000Y-93398061D01*
X147995226Y-93198102D01*
X147917205Y-93009744D01*
X147803937Y-92840226D01*
X147659774Y-92696063D01*
X147490256Y-92582795D01*
X147301898Y-92504774D01*
X147101939Y-92465000D01*
X146898061Y-92465000D01*
X146698102Y-92504774D01*
X146509744Y-92582795D01*
X146340226Y-92696063D01*
X146196063Y-92840226D01*
X146082795Y-93009744D01*
X146004774Y-93198102D01*
X145965000Y-93398061D01*
X140481000Y-93398061D01*
X140481000Y-93370061D01*
X140441226Y-93170102D01*
X140363205Y-92981744D01*
X140249937Y-92812226D01*
X140105774Y-92668063D01*
X139936256Y-92554795D01*
X139747898Y-92476774D01*
X139547939Y-92437000D01*
X139344061Y-92437000D01*
X139144102Y-92476774D01*
X138955744Y-92554795D01*
X138786226Y-92668063D01*
X138642063Y-92812226D01*
X138528795Y-92981744D01*
X138450774Y-93170102D01*
X138411000Y-93370061D01*
X125710000Y-93370061D01*
X125710000Y-91088061D01*
X140845000Y-91088061D01*
X140845000Y-91291939D01*
X140884774Y-91491898D01*
X140962795Y-91680256D01*
X141076063Y-91849774D01*
X141220226Y-91993937D01*
X141389744Y-92107205D01*
X141578102Y-92185226D01*
X141778061Y-92225000D01*
X141981939Y-92225000D01*
X142181898Y-92185226D01*
X142370256Y-92107205D01*
X142463898Y-92044635D01*
X142482795Y-92090256D01*
X142596063Y-92259774D01*
X142740226Y-92403937D01*
X142909744Y-92517205D01*
X143098102Y-92595226D01*
X143298061Y-92635000D01*
X143501939Y-92635000D01*
X143701898Y-92595226D01*
X143890256Y-92517205D01*
X144059774Y-92403937D01*
X144203937Y-92259774D01*
X144317205Y-92090256D01*
X144395226Y-91901898D01*
X144435000Y-91701939D01*
X144435000Y-91498061D01*
X144395226Y-91298102D01*
X144317205Y-91109744D01*
X144203937Y-90940226D01*
X144059774Y-90796063D01*
X143890256Y-90682795D01*
X143701898Y-90604774D01*
X143501939Y-90565000D01*
X143298061Y-90565000D01*
X143098102Y-90604774D01*
X142909744Y-90682795D01*
X142816102Y-90745365D01*
X142797205Y-90699744D01*
X142683937Y-90530226D01*
X142539774Y-90386063D01*
X142370256Y-90272795D01*
X142181898Y-90194774D01*
X141981939Y-90155000D01*
X141778061Y-90155000D01*
X141578102Y-90194774D01*
X141389744Y-90272795D01*
X141220226Y-90386063D01*
X141076063Y-90530226D01*
X140962795Y-90699744D01*
X140884774Y-90888102D01*
X140845000Y-91088061D01*
X125710000Y-91088061D01*
X125710000Y-89898061D01*
X143765000Y-89898061D01*
X143765000Y-90101939D01*
X143804774Y-90301898D01*
X143882795Y-90490256D01*
X143996063Y-90659774D01*
X144140226Y-90803937D01*
X144309744Y-90917205D01*
X144498102Y-90995226D01*
X144698061Y-91035000D01*
X144901939Y-91035000D01*
X145101898Y-90995226D01*
X145290256Y-90917205D01*
X145459774Y-90803937D01*
X145603937Y-90659774D01*
X145717205Y-90490256D01*
X145795226Y-90301898D01*
X145835000Y-90101939D01*
X145835000Y-89898061D01*
X145795226Y-89698102D01*
X145717205Y-89509744D01*
X145603937Y-89340226D01*
X145459774Y-89196063D01*
X145290256Y-89082795D01*
X145101898Y-89004774D01*
X144901939Y-88965000D01*
X144698061Y-88965000D01*
X144498102Y-89004774D01*
X144309744Y-89082795D01*
X144140226Y-89196063D01*
X143996063Y-89340226D01*
X143882795Y-89509744D01*
X143804774Y-89698102D01*
X143765000Y-89898061D01*
X125710000Y-89898061D01*
X125710000Y-88036061D01*
X139935000Y-88036061D01*
X139935000Y-88239939D01*
X139974774Y-88439898D01*
X140052795Y-88628256D01*
X140166063Y-88797774D01*
X140310226Y-88941937D01*
X140479744Y-89055205D01*
X140668102Y-89133226D01*
X140868061Y-89173000D01*
X141071939Y-89173000D01*
X141271898Y-89133226D01*
X141460256Y-89055205D01*
X141629774Y-88941937D01*
X141773937Y-88797774D01*
X141887205Y-88628256D01*
X141965226Y-88439898D01*
X142005000Y-88239939D01*
X142005000Y-88036061D01*
X141965226Y-87836102D01*
X141887205Y-87647744D01*
X141773937Y-87478226D01*
X141629774Y-87334063D01*
X141460256Y-87220795D01*
X141271898Y-87142774D01*
X141071939Y-87103000D01*
X140868061Y-87103000D01*
X140668102Y-87142774D01*
X140479744Y-87220795D01*
X140310226Y-87334063D01*
X140166063Y-87478226D01*
X140052795Y-87647744D01*
X139974774Y-87836102D01*
X139935000Y-88036061D01*
X125710000Y-88036061D01*
X125710000Y-87522313D01*
X125784647Y-86335830D01*
X126003222Y-85190019D01*
X126296286Y-84288061D01*
X131565000Y-84288061D01*
X131565000Y-84491939D01*
X131604774Y-84691898D01*
X131682795Y-84880256D01*
X131796063Y-85049774D01*
X131940226Y-85193937D01*
X132109744Y-85307205D01*
X132298102Y-85385226D01*
X132498061Y-85425000D01*
X132701939Y-85425000D01*
X132901898Y-85385226D01*
X133090256Y-85307205D01*
X133259774Y-85193937D01*
X133403937Y-85049774D01*
X133517205Y-84880256D01*
X133595226Y-84691898D01*
X133635000Y-84491939D01*
X133635000Y-84400000D01*
X134773000Y-84400000D01*
X134773000Y-87000000D01*
X134775440Y-87024776D01*
X134782667Y-87048601D01*
X134794403Y-87070557D01*
X134810197Y-87089803D01*
X134829443Y-87105597D01*
X134851399Y-87117333D01*
X134875224Y-87124560D01*
X134900000Y-87127000D01*
X137600000Y-87127000D01*
X137624776Y-87124560D01*
X137648601Y-87117333D01*
X137670557Y-87105597D01*
X137689803Y-87089803D01*
X137705597Y-87070557D01*
X137717333Y-87048601D01*
X137724560Y-87024776D01*
X137727000Y-87000000D01*
X137727000Y-84400000D01*
X137724560Y-84375224D01*
X137717333Y-84351399D01*
X137705597Y-84329443D01*
X137689803Y-84310197D01*
X137670557Y-84294403D01*
X137648601Y-84282667D01*
X137624776Y-84275440D01*
X137600000Y-84273000D01*
X134900000Y-84273000D01*
X134875224Y-84275440D01*
X134851399Y-84282667D01*
X134829443Y-84294403D01*
X134810197Y-84310197D01*
X134794403Y-84329443D01*
X134782667Y-84351399D01*
X134775440Y-84375224D01*
X134773000Y-84400000D01*
X133635000Y-84400000D01*
X133635000Y-84288061D01*
X133595226Y-84088102D01*
X133517205Y-83899744D01*
X133403937Y-83730226D01*
X133259774Y-83586063D01*
X133090256Y-83472795D01*
X132901898Y-83394774D01*
X132701939Y-83355000D01*
X132498061Y-83355000D01*
X132298102Y-83394774D01*
X132109744Y-83472795D01*
X131940226Y-83586063D01*
X131796063Y-83730226D01*
X131682795Y-83899744D01*
X131604774Y-84088102D01*
X131565000Y-84288061D01*
X126296286Y-84288061D01*
X126363682Y-84080638D01*
X126860339Y-83025187D01*
X127194863Y-82498061D01*
X137615000Y-82498061D01*
X137615000Y-82701939D01*
X137654774Y-82901898D01*
X137732795Y-83090256D01*
X137846063Y-83259774D01*
X137990226Y-83403937D01*
X138159744Y-83517205D01*
X138348102Y-83595226D01*
X138548061Y-83635000D01*
X138751939Y-83635000D01*
X138951898Y-83595226D01*
X139140256Y-83517205D01*
X139309774Y-83403937D01*
X139453937Y-83259774D01*
X139567205Y-83090256D01*
X139645226Y-82901898D01*
X139669858Y-82778061D01*
X147175000Y-82778061D01*
X147175000Y-82981939D01*
X147214774Y-83181898D01*
X147292795Y-83370256D01*
X147406063Y-83539774D01*
X147550226Y-83683937D01*
X147719744Y-83797205D01*
X147908102Y-83875226D01*
X148108061Y-83915000D01*
X148311939Y-83915000D01*
X148511898Y-83875226D01*
X148700256Y-83797205D01*
X148869774Y-83683937D01*
X149013937Y-83539774D01*
X149127205Y-83370256D01*
X149205226Y-83181898D01*
X149245000Y-82981939D01*
X149245000Y-82778061D01*
X149205226Y-82578102D01*
X149127205Y-82389744D01*
X149013937Y-82220226D01*
X148869774Y-82076063D01*
X148700256Y-81962795D01*
X148511898Y-81884774D01*
X148311939Y-81845000D01*
X148108061Y-81845000D01*
X147908102Y-81884774D01*
X147719744Y-81962795D01*
X147550226Y-82076063D01*
X147406063Y-82220226D01*
X147292795Y-82389744D01*
X147214774Y-82578102D01*
X147175000Y-82778061D01*
X139669858Y-82778061D01*
X139685000Y-82701939D01*
X139685000Y-82498061D01*
X139645226Y-82298102D01*
X139567205Y-82109744D01*
X139453937Y-81940226D01*
X139309774Y-81796063D01*
X139140256Y-81682795D01*
X138951898Y-81604774D01*
X138751939Y-81565000D01*
X138548061Y-81565000D01*
X138348102Y-81604774D01*
X138159744Y-81682795D01*
X137990226Y-81796063D01*
X137846063Y-81940226D01*
X137732795Y-82109744D01*
X137654774Y-82298102D01*
X137615000Y-82498061D01*
X127194863Y-82498061D01*
X127485370Y-82040297D01*
X128228903Y-81141520D01*
X129079228Y-80343013D01*
X129808539Y-79813137D01*
X143395000Y-79813137D01*
X143395000Y-80026863D01*
X143436696Y-80236483D01*
X143518485Y-80433940D01*
X143637225Y-80611647D01*
X143788353Y-80762775D01*
X143966060Y-80881515D01*
X144163517Y-80963304D01*
X144373137Y-81005000D01*
X144586863Y-81005000D01*
X144796483Y-80963304D01*
X144993940Y-80881515D01*
X145171647Y-80762775D01*
X145322775Y-80611647D01*
X145441515Y-80433940D01*
X145523304Y-80236483D01*
X145565000Y-80026863D01*
X145565000Y-79813137D01*
X146395000Y-79813137D01*
X146395000Y-80026863D01*
X146436696Y-80236483D01*
X146518485Y-80433940D01*
X146637225Y-80611647D01*
X146788353Y-80762775D01*
X146966060Y-80881515D01*
X147163517Y-80963304D01*
X147373137Y-81005000D01*
X147586863Y-81005000D01*
X147796483Y-80963304D01*
X147993940Y-80881515D01*
X148171647Y-80762775D01*
X148322775Y-80611647D01*
X148441515Y-80433940D01*
X148523304Y-80236483D01*
X148565000Y-80026863D01*
X148565000Y-79813137D01*
X148523304Y-79603517D01*
X148441515Y-79406060D01*
X148322775Y-79228353D01*
X148171647Y-79077225D01*
X147993940Y-78958485D01*
X147796483Y-78876696D01*
X147586863Y-78835000D01*
X147373137Y-78835000D01*
X147163517Y-78876696D01*
X146966060Y-78958485D01*
X146788353Y-79077225D01*
X146637225Y-79228353D01*
X146518485Y-79406060D01*
X146436696Y-79603517D01*
X146395000Y-79813137D01*
X145565000Y-79813137D01*
X145523304Y-79603517D01*
X145441515Y-79406060D01*
X145322775Y-79228353D01*
X145171647Y-79077225D01*
X144993940Y-78958485D01*
X144796483Y-78876696D01*
X144586863Y-78835000D01*
X144373137Y-78835000D01*
X144163517Y-78876696D01*
X143966060Y-78958485D01*
X143788353Y-79077225D01*
X143637225Y-79228353D01*
X143518485Y-79406060D01*
X143436696Y-79603517D01*
X143395000Y-79813137D01*
X129808539Y-79813137D01*
X130022922Y-79657379D01*
X131045110Y-79095425D01*
X132129662Y-78666021D01*
X133259494Y-78375929D01*
X134427864Y-78228331D01*
X135011165Y-78210000D01*
X159886289Y-78210000D01*
X159806063Y-78290226D01*
G37*
%TD.AperFunction*%
%TD*%
M02*
